<?xml version="1.0" encoding="UTF-8"?>
<svg width="123.2mm" height="59.499mm" version="1.1" viewBox="0 0 436.53443 210.82214" xmlns="http://www.w3.org/2000/svg">
 <g transform="translate(-140.72 -384.83)">
  <g transform="matrix(.98602 -.2642 .17347 .64739 346.32 58.889)" fill="#803300" fill-rule="evenodd">
   <path d="m100 552.36h10v10h-10z"/>
   <path d="m120 562.36h-30v10h30z"/>
   <path d="m80 572.36v10h50v-10z"/>
   <path d="m100 612.36h10v-10h-10z"/>
   <path d="m120 602.36h-30v-10h30z"/>
   <path d="m80 592.36v-10h50v10z"/>
  </g>
  <g transform="matrix(1.494 -.40031 .32589 1.2162 -206.07 33.812)" fill="#a40" fill-rule="evenodd">
   <path d="m140 442.36s-1.5317-13.512 0-20c1.7125-7.2542 4.6329-14.828 10-20 5.8004-5.5896 14.127-8.2947 22-10 6.1898-1.3408 19 0 19 0l11-4c-4.1123 15.307 3.9283 11.423 10 14h18c6.4259-2.4537 10.179-6.244 6-14 0 0 9.1935 3.3268 14 4 6.6022 0.92467 13.841-0.0945 20 2.4567 4.3552 1.804 13.244 6.1758 16 10 4.3582 6.0466 7.2583 10.127 8 17.543l2 20z"/>
   <path d="m140 441.95s-1.5317 13.512 0 20c1.7125 7.2542 4.6329 14.828 10 20 5.8004 5.5896 14.127 8.2947 22 10 6.1898 1.3408 19 0 19 0l11 4c-4.1123-15.307 3.9283-11.423 10-14h18c6.4259 2.4537 10.179 6.244 6 14 0 0 9.1935-3.3268 14-4 6.6022-0.92467 13.841 0.0945 20-2.4567 4.3552-1.804 13.244-6.1758 16-10 4.3582-6.0466 7.2583-10.127 8-17.543l2-20z"/>
  </g>
  <path d="m257.81 468.54 9.6415 35.982 3.1151-0.83469-9.6414-35.982z" fill-rule="evenodd" stroke="#000" stroke-width="1.415px"/>
  <path d="m160.51 506.03 42.097-23.138 8.8932 33.19-48.026 1.011z" fill-rule="evenodd" stroke="#000" stroke-width="1.3346px"/>
  <path d="m307.59 456.87 225.7-54.07 4.8037 17.928-222.49 66.022z" fill-rule="evenodd" stroke="#000" stroke-width="1.5467px"/>
  <g transform="matrix(-.044881 -.39121 .39121 -.044881 20.344 512.45)">
   <path d="m100 542.36s-10.572-10-20-10-18.104 10.764-20 20c-7.2185 35.168 47.218 64.832 40 100-1.8957 9.2356-10.572 20-20 20s-20-20-20-20 12.643 11.194 20 10c4.6532-0.75511 9.0522-5.3822 10-10 7.2185-35.168-47.218-64.832-40-100 2.8435-13.853 15.927-31.394 30-30 11.96 1.1843 20 20 20 20z" fill-rule="evenodd" stroke="#000" stroke-width="1px"/>
   <ellipse cx="96" cy="547.36" rx="5" ry="10"/>
   <ellipse cx="64" cy="647.36" rx="5" ry="10"/>
  </g>
  <g transform="matrix(.15674 .36124 .36124 -.15674 38.93 581.82)">
   <path d="m100 542.36s-10.572-10-20-10-18.104 10.764-20 20c-7.2185 35.168 47.218 64.832 40 100-1.8957 9.2356-10.572 20-20 20s-20-20-20-20 12.643 11.194 20 10c4.6532-0.75511 9.0522-5.3822 10-10 7.2185-35.168-47.218-64.832-40-100 2.8435-13.853 15.927-31.394 30-30 11.96 1.1843 20 20 20 20z" fill-rule="evenodd" stroke="#000" stroke-width="1px"/>
   <ellipse cx="96" cy="547.36" rx="5" ry="10"/>
   <ellipse cx="64" cy="647.36" rx="5" ry="10"/>
  </g>
  <g transform="matrix(-.12821 -.47849 -.47849 .12821 811.95 394.71)" fill-rule="evenodd" stroke="#000" stroke-width="1px">
   <path d="m60 542.36c-7.2542 1.7125-4.0814 3.6596-8 10-1.7524 2.8355-1.7524 7.1645 0 10 3.9186 6.3404 0.74583 8.2875 8 10 6.4883 1.5317 20 0 20 0v-30s-13.512-1.5317-20 0z"/>
   <path d="m80 552.36h30v10h-30z"/>
  </g>
  <g transform="matrix(.12821 .47849 -.47849 .12821 777.36 289.55)" fill-rule="evenodd" stroke="#000" stroke-width="1px">
   <path d="m60 542.36c-7.2542 1.7125-4.0814 3.6596-8 10-1.7524 2.8355-1.7524 7.1645 0 10 3.9186 6.3404 0.74583 8.2875 8 10 6.4883 1.5317 20 0 20 0v-30s-13.512-1.5317-20 0z"/>
   <path d="m80 552.36h30v10h-30z"/>
  </g>
  <g transform="matrix(-.12821 -.47849 -.47849 .12821 794.02 399.51)" fill-rule="evenodd" stroke="#000" stroke-width="1px">
   <path d="m60 542.36c-7.2542 1.7125-4.0814 3.6596-8 10-1.7524 2.8355-1.7524 7.1645 0 10 3.9186 6.3404 0.74583 8.2875 8 10 6.4883 1.5317 20 0 20 0v-30s-13.512-1.5317-20 0z"/>
   <path d="m80 552.36h30v10h-30z"/>
  </g>
  <g transform="matrix(.12821 .47849 -.47849 .12821 759.44 294.35)" fill-rule="evenodd" stroke="#000" stroke-width="1px">
   <path d="m60 542.36c-7.2542 1.7125-4.0814 3.6596-8 10-1.7524 2.8355-1.7524 7.1645 0 10 3.9186 6.3404 0.74583 8.2875 8 10 6.4883 1.5317 20 0 20 0v-30s-13.512-1.5317-20 0z"/>
   <path d="m80 552.36h30v10h-30z"/>
  </g>
  <path d="m189.68 494.87 333.16-89.269" fill="none" stroke="#fff" stroke-width="1.523px"/>
  <path d="m191.28 500.85 333.16-89.269" fill="none" stroke="#fff" stroke-width="1.523px"/>
  <path d="m192.88 506.82 333.16-89.269" fill="none" stroke="#fff" stroke-width="1.523px"/>
  <path d="m194.48 512.8 333.16-89.269" fill="none" stroke="#fff" stroke-width="1.523px"/>
  <path d="m152.9 513.06c12.014 0 23.561-13.626 25.485-25.485 2.0285-12.5-4.4899-31.951-16.99-33.98-7.9057-1.2829-16.99 8.9808-16.99 16.99 0 4.0046 7.5749 4.5975 8.495 8.495 2.0573 8.7149-10.552 16.77-8.495 25.485 0.92007 3.8974 4.4904 8.495 8.495 8.495z" fill-rule="evenodd" stroke="#000" stroke-width="1.2014px"/>
 </g>
 <g transform="matrix(.94173 -.33871 .33871 .94173 -152.18 -362.81)" fill-rule="evenodd" stroke="#000" stroke-width="1px">
  <path d="m30 602.36v14h60v-14z"/>
  <path d="m90 602.36c84.231-2.6006 177.1-2.7321 280 0l20 10-30-6h-250l-20 6z"/>
  <path d="m90 612.36v3h300v-3z" fill="#fea"/>
  <path d="m22 602.36v14h8v-14z" fill="#e6e6e6"/>
 </g>
</svg>
