<?xml version='1.0' encoding='utf-8'?>
<svg xmlns="http://www.w3.org/2000/svg" width="3500" height="3500" version="1.1" viewBox="0 0 926.04 926.04"> <metadata> </metadata> <g transform="translate(0 629.04)"> <path d="m274.78 197.78c-0.21177-0.63109 0.15503-2.1142 0.8153-3.2956 0.91731-1.6414 0.21204-2.702-2.9897-4.4961-2.3046-1.2914-11.965-7.4225-21.468-13.625-14.849-9.6916-17.562-11.118-19.301-10.148-2.8518 1.5912-6.2551-1.3386-6.0757-5.2303 0.1118-2.4226-2.2619-5.6653-9.0908-12.419-5.0831-5.0272-12.684-13.93-16.89-19.784-4.6569-6.481-9.4121-11.635-12.158-13.178-4.0136-2.2556-4.3236-2.8822-2.8159-5.7062 1.1077-2.0749 0.77959-6.2491-0.94796-12.062-9.6372-32.427-3.7104-66.95 15.759-91.793 9.8483-12.567 16.763-18.998 34.487-32.077 18.279-13.488 21.634-17.183 21.582-23.765-0.0488-6.1171 1.4898-8.7888 7.2085-12.517 4.3755-2.8522 4.8099-2.8304 8.6461 0.43367 2.2216 1.8902 6.6776 4.9621 9.9023 6.8262 10.917 6.311 24.636 2.019 42.194-13.2 16.435-14.246 36.28-52.247 35.365-67.721-0.55529-9.385-6.4841-15.986-16.984-18.909-3.2837-0.91417-3.748-1.6771-3.4245-5.6272 0.3185-3.888 1.2614-5.36 6.3214-9.868 5.9359-5.2884 5.9535-5.3257 9.3248-19.742 8.7027-37.215 17.245-56.181 31.861-70.735 10.159-10.117 16.322-13.997 30.376-19.128 24.738-9.0308 57.878-7.5256 90.361 4.1042l9.0958 3.2566 6.4224-9.6325c3.5323-5.2979 18.841-30.369 34.02-55.714 15.179-25.345 33.746-56.139 41.261-68.43 9.4587-15.471 14.019-24.042 14.818-27.853 0.63557-3.0276 1.8288-6.0647 2.6517-6.7491 1.2096-1.0059-0.85297-2.4287-10.767-7.4267-11.13-5.6111-12.491-6.0001-14.732-4.2084-6.9104 5.5242-24.303-6.7969-23.852-16.897 0.598-13.393 14.571-18.863 28.336-11.092 5.1516 2.9084 6.3437 4.834 5.8275 9.415-0.38836 3.4457 0.0462 3.8386 11.036 9.9801l11.44 6.3932 6.0207-9.9031c4.4164-7.2644 5.6632-10.304 4.6811-11.406-0.73681-0.82641-5.9862-3.753-11.666-6.5038-8.4874-4.1106-10.521-4.653-11.419-3.0461-1.8298 3.2742-5.4732 3.1972-11.629-0.24571-11.222-6.2761-15.089-15.425-10.232-24.21 4.2743-7.7319 14.048-9.0207 24.426-3.2209 5.7229 3.1983 8.6424 7.6234 6.9855 10.588-0.54653 0.97796 2.9161 3.615 11.282 8.592l12.071 7.181 5.5657-9.959c3.0611-5.4774 5.1673-10.609 4.6803-11.404-0.48696-0.79482 0.27585-3.5231 1.6952-6.0628 2.3228-4.1564 2.2553-4.7994-0.67659-6.4379-4.1631-2.3266-3.7158-7.5116 1.3196-15.3 3.3997-5.2584 4.0075-5.601 7.6231-4.2957 2.3371 0.84372 5.2381 0.59267 7.1608-0.61954 1.7775-1.1209 4.5973-1.4929 6.2661-0.82689 2.3001 0.91801 3.8085 0.27309 6.2352-2.6659 5.4329-6.5798 5.3102-6.5625 13.187-1.8632 7.2082 4.3005 7.2258 4.3257 0.97444 1.3973-7.8419-3.6735-9.1343-2.6929-18.106 13.738-3.4494 6.3178-6.6683 11.265-7.1522 10.995-0.48392-0.27044-3.2698 2.0674-6.1909 5.1953-4.1394 4.4326-5.0751 6.0719-4.2416 7.4319 0.7097 1.1582 0.47718 1.7458-0.69139 1.748-0.96829 2e-3 -3.2545 2.9622-5.0807 6.5786-1.8261 3.6165-3.8226 6.2946-4.4365 5.9515-0.61393-0.34311-1.927 1.7764-2.9178 4.7101-2.1822 6.4613-3.9822 6.7534-12.497 2.028-3.3339-1.8506-6.726-3.0321-7.5377-2.6263s-1.8467 0.13257-2.3-0.6073c-0.45326-0.73988-1.1363-0.78694-1.5177-0.10445-0.88083 1.5761 7.6932 6.4485 9.6372 5.4766 0.79871-0.39935 2.4132-0.14041 3.5876 0.57541 1.741 1.061 1.5548 1.2212-1.0074 0.86657-3.0435-0.42126-3.0559-0.38296-0.39371 1.2095 1.512 0.90446 3.4188 1.1537 4.2371 0.55396 0.81834-0.59979-3.6816 8.1053-9.9998 19.345-7.8194 13.908-11.11 20.827-10.304 21.662 0.65107 0.67515 0.74886 2.0056 0.21741 2.9566-0.53147 0.95099-1.3299 1.1356-1.7743 0.41038-1.1285-1.8419-3.6072 4.6578-2.7501 7.2114 0.51087 1.5221 1.2068 1.1525 2.5677-1.3638 4.7979-8.8701 27.743-45.89 34.278-55.301 8.0341-11.572 10.631-14.048 13.217-12.603 0.94661 0.52903 2.4855 0.57951 3.4199 0.1123 1.1356-0.56784 0.86496-0.99627-0.81662-1.2923-1.3835-0.24358-2.5769-1.1389-2.6518-1.9895-0.22553-2.5596 6.1013 1.7569 6.7744 4.6219 0.34312 1.4603 1.5731 3.175 2.7336 3.8106 1.8356 1.0054 1.9408 0.86744 0.80935-1.0618-1.1352-1.9357-1.036-2.0725 0.78204-1.077 1.3974 0.76534 1.5109 2.2119 0.3445 4.3975-2.7638 5.1808-6.1644 15.391-5.2882 15.881 0.43988 0.24584-0.2272 2.4678-1.4826 4.9376-9.1589 18.021-21.717 45.266-21.358 46.336 0.79829 2.3782 2.0972 0.97304 7.656-8.282 7.6578-12.75 13.242-24.088 12.162-24.692-0.49896-0.27885 1.7871-5.5806 5.0799-11.782 3.2926-6.2013 5.9562-12.625 5.9185-14.274-0.0378-1.6496 0.55747-4.1196 1.3227-5.4888 0.76522-1.3692 0.62863-2.4881-0.30348-2.4864-0.93225 2e-3 -1.3828-0.55523-1.0014-1.2377 0.3814-0.68247 1.5532-0.7604 2.604-0.17315 1.0508 0.58724 3.0214-0.0568 4.379-1.4312 1.8732-1.8966 2.0658-3.6983 0.79851-7.4738-1.5114-4.5028-1.2736-5.4973 2.5076-10.481 4.1986-5.5339 6.6051-7.6413 4.5724-4.004-0.60025 1.0741-0.55139 2.2546 0.10869 2.6235 0.73735 0.41207 1.5529-1.0587 2.115-3.8154 0.50353-2.4671 1.8726-6.3973 3.0426-8.7336 1.7246-3.4441 1.619-4.5393-0.55815-5.7881-1.4769-0.84724-3.4245-1.2189-4.3281-0.82622-0.91529 0.39773-0.98887-0.47692-0.16626-1.9746 1.2976-2.362 1.7145-2.3473 3.4364 0.123 2.6849 3.8518 4.0613 3.1575 5.129-2.5871 0.72284-3.8882 1.2555-4.6788 2.6336-3.9086 1.7591 0.9831 1.6731 2.5647-0.53948 9.9212-0.77455 2.5749-0.41434 4.9085 0.9512 6.1624 1.2088 1.1099 1.9127 3.9954 1.5644 6.4124-0.50394 3.497 0.10308 4.8059 2.9729 6.4097 5.4542 3.0481 3.6399 9.6064-4.2484 15.358-3.3241 2.4235-4.8533 2.6216-7.7572 1.0051-3.3347-1.8568-3.8552-1.6445-6.6696 2.7174-1.6788 2.602-3.9352 4.9354-5.0142 5.1855-1.079 0.25003-2.5077 1.4313-3.1748 2.6251-1.1 1.9683-0.17861 2.7075 9.8905 7.9351 9.7728 5.0737 11.298 5.5208 12.729 3.7306 2.6376-3.2999 6.4043-2.4979 14.052 2.9919 11.661 8.3707 12.901 18.643 3.172 26.268-7.7092 6.0417-31.738-3.9291-27.546-11.43 1.1645-2.0838 0.36884-2.815-8.3892-7.7096-11.034-6.1663-9.9145-6.7115-15.954 7.7725l-3.196 7.6652 22.289 12.456 3.5659-2.8094c3.5307-2.7817 3.6386-2.7623 10.951 1.9788 12.881 8.3512 15.803 19.743 7.0126 27.339-4.3047 3.7198-9.2978 4.1477-18.152 1.5555-8.3313-2.439-12.093-6.6392-11.7-13.063 0.1642-2.6826-0.0729-4.3241-0.52694-3.6477-0.55497 0.82577-3.8342-0.68959-9.9902-4.6166l-9.1647-5.8464-8.7964 13.67c-4.838 7.5187-10.784 17.945-13.213 23.171-2.4294 5.2251-19.877 39.954-38.773 77.176-18.896 37.222-35.007 69.496-35.803 71.72-1.3943 3.896-1.1241 4.3201 7.3973 11.612 22.823 19.53 35.533 37.244 43.06 60.015 12.625 38.191 2.5604 68.673-35.266 106.81-11.107 11.198-14.252 16.263-14.2 22.864 0.0322 4.0231-0.63431 5.425-4.0834 8.5904l-4.1218 3.7827-14.643-10.278-7.677 1.9816c-13.011 3.3586-23.156 14.611-34.607 38.386-12.096 25.114-15.781 48.554-9.6697 61.507 3.2594 6.908 9.5705 11.94 16.208 12.922 8.4113 1.2449 10.554 2.9562 11.033 8.8124 0.45457 5.5579-1.1217 9.7282-3.9828 10.537-0.95488 0.26977-3.4022 1.9179-5.4384 3.6625-3.4336 2.9418-3.8928 5.14-6.3266 30.292-3.3831 34.962-3.45 35.242-12.982 54.408-12.704 25.544-27.591 40.317-50.079 49.698-18.063 7.5353-41.767 10.953-58.949 8.4993-19.33-2.7604-45.148-11.397-69.464-23.237-13.132-6.394-14.377-6.7583-16.006-4.6826-1.6039 2.0432-2.6881 1.7629-11.752-3.038-5.4921-2.9089-10.159-5.8052-10.371-6.4364zm12.105-2.291c0.13807-0.24704-0.90998-1.098-2.3292-1.8912-1.4191-0.79305-2.8473-0.96407-3.1737-0.37995-0.32643 0.58409 0.72175 1.4351 2.3292 1.8912 1.6076 0.45607 3.0356 0.62703 3.1737 0.37997zm8.627 5.7694c0.36015-0.64445 0.04-1.5153-0.71136-1.9352-0.75147-0.41997-1.3022-0.0358-1.2238 0.85372 0.0784 0.88952 0.39849 1.7603 0.71139 1.9352 0.3129 0.17486 0.86363-0.2093 1.2238-0.85371zm-17.411-13.512c2.034 0.95193 4.1716 1.621 4.7503 1.487 2.3154-0.53652-4.9913-5.4714-10.783-7.2825-3.3921-1.0608-8.8366-3.2872-12.099-4.9476-5.6873-2.8945-5.6313-2.8078 1.3618 2.1074 4.0115 2.8195 8.5935 5.5265 10.182 6.0156 1.589 0.48922 4.5533 1.6683 6.5872 2.6202zm15.972 6.999c0.46357-0.82949 0.26229-1.8326-0.44725-2.2292-0.70952-0.39652-1.5848-0.19374-1.9449 0.4507-0.36014 0.64442-1.2354 0.84722-1.9449 0.4507-2.0412-1.1407 0.71573-3.332 3.6307-2.8857 2.3281 0.35642 6.0224-4.0207 4.236-5.019-0.77863-0.43515-1.7832 1.48 29.743-56.704 12.728-23.491 22.983-43.184 22.789-43.763-0.19427-0.5788-3.0946-0.57703-6.4452 0.0039-4.6282 0.8026-5.8133 1.5234-4.9322 3 0.63779 1.0689 0.10817 4.1236-1.1768 6.7883-1.2851 2.6646-3.7493 9.5907-5.4761 15.391-2.2762 7.6464-7.455 18.494-18.833 39.448-8.6316 15.896-16.351 29.418-17.155 30.049-0.80382 0.6314-2.9403 1.0633-4.7477 0.95979-1.8072-0.10342-2.6981-0.48201-1.9796-0.84127 0.71851-0.35924 0.55733-1.8881-0.35817-3.3974-1.2343-2.0349-2.0901-2.5313-3.3113-1.9207-1.0038 0.50189-0.8904 0.82197 0.29044 0.81979 1.2603-2e-3 1.3034 0.48977 0.12336 1.4082-1.3832 1.0767-2.054 0.86702-2.8258-0.88327-0.846-1.9188-0.52186-2.4087 1.9774-2.9878 3.2208-0.74643 7.357-7.9709 6.6824-11.672-0.21548-1.1821 1.1561-4.0482 3.0481-6.3691 2.1082-2.5865 2.9344-4.5023 2.1343-4.9495-0.71797-0.40124-0.99322-1.2878-0.61181-1.9703 0.38139-0.68245 1.0918-0.59058 1.5789 0.2043 1.195 1.9506 1.832 0.54484 3.3601-7.4163 0.71287-3.7136 1.6216-6.8276 2.0196-6.9198s0.49278 1.1494 0.21087 2.7593c-0.28206 1.6098 0.19492 2.9256 1.06 2.924 0.86507-2e-3 0.79089 1.5038-0.16473 3.3453l-1.7378 3.348 3.2026-2.5891c2.2627-1.8293 3.2508-3.6674 3.367-6.2632 0.0903-2.0209 1.0314-5.4058 2.0916-7.522l1.9275-3.8478-3.1589 3.6163c-2.9314 3.3559-2.9358 3.0421-0.0604-4.3566 1.7043-4.385 3.6284-8.0956 4.2759-8.2456s0.19515 1.4848-1.0053 3.6329-1.6398 3.7797-0.97601 3.6259c0.66372-0.1538 2.1857-2.9951 3.3817-6.3143 1.5434-4.2813 1.5689-5.7395 0.0875-5.0194-1.2707 0.61777-1.796 0.47503-1.3424-0.36477 0.40755-0.7602 0.93986-2.5385 1.1779-3.9546 0.35991-2.1414 0.50169-2.148 0.84254-0.0393 0.58683 3.63 1.0602 2.2638 2.4966-7.2054 1.9558-12.893 2.9711-27.132 2.1716-30.457-0.84314-3.5068 7.1225-28.462 11.736-36.766l3.172-5.7098 8.9697 5.9135c4.9332 3.2524 9.5367 6.262 10.23 6.6881 0.69315 0.42614 0.32384 0.78753-0.82062 0.8033-1.4596 0.02007-2.3192 1.2542-2.8789 4.1337-0.64191 3.3015-0.49558 3.6146 0.7474 1.5998 1.8796-3.0464 2.773-3.0856 8.8271-0.38714l4.7439 2.1145-4.686 10.451c-6.0501 13.493-7.2355 14.579-12.338 11.303-3.6684-2.355-3.8142-2.8724-1.6843-5.9789l2.3316-3.4008-3.1348 2.861c-2.5109 2.2918-2.2523 1.4419 1.2999-4.2708 3.381-5.4374 4.0135-7.3672 2.6606-8.1233-1.7429-0.97404-3.9242 3.2727-7.5166 14.635-1.1049 3.4949 0.47211 6.2932 2.003 3.5539 0.42016-0.75181 0.96978-0.75376 1.2213-0.0043 0.25165 0.74951-0.14654 2.4844-0.88486 3.8554-0.73849 1.3708-0.71949 3.1421 0.0415 3.9358 1.0043 1.0473 1.6195 0.47938 2.2436-2.071 0.98654-4.0309 4.2545-3.242 5.3179 1.2838 0.3431 1.4603 1.2044 2.9795 1.9139 3.3761 0.72456 0.40493 1.019-0.43314 0.67158-1.9117-0.39302-1.6725 1.8268-7.1609 6.0862-15.048 3.978-7.3657 6.1845-12.717 5.4255-13.156-0.70363-0.40707-0.12267-0.7648 1.2907-0.79474 1.852-0.03916 0.80079-1.0496-3.763-3.6171-12.703-7.1462-4.2554-3.5547 16.466 7.0009l21.244 10.822-5.39 8.2122c-2.9646 4.5167-7.0525 10.038-9.0844 12.269-2.7822 3.0553-3.4921 4.7767-2.8753 6.9712 1.366 4.8603-1.572 8.1306-7.1149 7.9197-3.3618-0.12798-5.2213 0.59434-5.6079 2.1783-0.35424 1.4513-0.94765 1.7668-1.5316 0.81381-0.60296-0.98415-1.051-0.67017-1.2192 0.85418-0.14623 1.3255-0.86718 2.074-1.6023 1.6632-0.77572-0.43351-1.5554 0.50204-1.858 2.2295-0.38414 2.1925-0.81629 2.4951-1.6412 1.1488-0.81534-1.3309-1.3059-1.0299-1.8047 1.1074-0.43887 1.8808-1.0234 2.3826-1.6273 1.397-0.60377-0.9855-1.1883-0.48366-1.6273 1.397-0.43835 1.8786-1.0236 2.3822-1.626 1.3991-0.63372-1.0344-1.3933-0.079-2.3263 2.9263-0.85093 2.741-1.4778 3.6007-1.6252 2.2287-0.15804-1.4719-1.212-0.48788-3.0909 2.8855-1.5722 2.8132-7.8812 12.927-14.029 22.469-6.1481 9.5424-10.841 17.899-10.429 18.571 0.41214 0.67168-0.8241 3.2008-2.7473 5.6203-4.1641 5.2388-13.571 30.538-12.192 32.789 0.58675 0.95775-0.11769 1.2624-1.7978 0.77725-1.6786-0.48471-1.1473 0.17499 1.3542 1.6814 4.1182 2.4799 7.5415 0.82176 4.6428-2.2488-0.73106-0.77446 1.73 0.21046 5.469 2.1887 3.739 1.9784 6.8612 4.3108 6.9381 5.1834 0.077 0.8726 1.0474 2.0937 2.1569 2.7137 1.6465 0.92017 1.9023 0.63957 1.3931-1.5279-0.52523-2.2358-0.13028-2.3793 2.5014-0.90855 1.7189 0.96064 3.4434 2.6944 3.8323 3.8529 0.75091 2.2373 4.524 2.9703 4.3365 0.84241-0.061-0.69134 4.4546 0.40842 10.035 2.4438 33.356 12.167 66.972 10.625 93.324-4.2813 6.1205-3.4623 11.414-5.8287 11.763-5.2587 1.1678 1.9062 7.2711-5.1961 6.7573-7.8635-0.35345-1.835-0.2097-2.0585 0.5503-0.85452 0.56551 0.89638 1.8437 0.99497 2.8404 0.21914 2.7505-2.1408 4.6017-6.0443 2.865-6.0411-0.84516 2e-3 -0.60544-0.91999 0.5328-2.0479 1.5733-1.559 2.1218-1.5295 2.2871 0.12283 0.16668 1.6654 0.49003 1.6968 1.3832 0.13419 0.64344-1.1204 0.58513-2.3638-0.12441-2.7604s-0.10878-2.6556 1.3353-5.0199l2.6254-4.2989-1.3414 4.6321c-1.0434 3.6031-0.16779 2.6206 3.9418-4.4228 3.3605-5.7592 4.6682-9.0537 3.5935-9.0517-1.1163 2e-3 -0.7016-0.77114 1.2216-2.2787 1.9477-1.5264 3.6632-4.7961 5.1822-9.8772 1.9559-6.5425 1.9063-7.2663-0.35758-5.2203-1.7214 1.5558-1.4528 0.83195 0.77835-2.0981 1.9919-2.6159 3.0177-5.1086 2.4686-6.004-0.59102-0.96468-1.0391-0.61161-1.2118 0.95486-0.18599 1.6862-0.60722 1.9417-1.31 0.79465-0.56978-0.92992-0.4466-2.7453 0.27369-4.0341 0.72029-1.2888 1.7081-1.6931 2.195-0.89825s1.1107 1.042 1.3861 0.54925c0.8686-1.5542 1.3102-24.463 0.46778-24.268-0.44193 0.10244-0.78591 2.4005-0.76436 5.1068 0.0217 2.7064-0.34173 5.0089-0.80735 5.1169-1.1182 0.25911-0.76386-24.022 0.4198-28.768 0.65585-2.6304 1.5714-3.5844 3.1694-3.3031 2.4614 0.43334 4.6371-4.1406 4.7433-9.9719 0.0494-2.7157-1.0265-4.0364-5.1962-6.3786-10.204-5.732-19.055-21.518-19.448-34.687-0.42819-14.346 2.7464-29.365 9.4805-44.851 3.35-7.7042 4.5746-9.4043 7.2139-10.016 2.9419-0.6818 3.0645-0.90717 1.6449-3.0238-1.3358-1.991-0.51817-3.8879 6.3068-14.631 9.0671-14.273 18.712-23.084 29.31-26.778 3.9337-1.371 19.074-0.57978 22.186 1.1594 1.3369 0.74714 2.2509-0.07638 3.3094-2.9818 1.0131-2.7806 1.7711-3.5103 2.4668-2.3748 0.68587 1.1195 1.8473 0.13118 3.6623-3.1166 3.2105-5.7447 2.5832-6.5065-1.8972-2.3043-2.515 2.3589-3.0096 2.4751-2.0047 0.47102 0.73314-1.4636 3.4019-4.4697 5.929-6.6811 2.5271-2.2115 7.7024-7.1277 11.5-10.925 3.7981-3.7973 7.9037-6.8997 9.1237-6.8942 1.22 0.0055 2.5629-0.62789 2.9844-1.4074 0.573-1.0593 0.3351-1.208-0.94095-0.5884-2.8867 1.4021 16.022-29.459 19.282-31.47 2.3766-1.4663 2.7807-2.2706 1.8789-3.7423-0.63167-1.031-0.43743-6.4386 0.4317-12.017 3.5475-22.771-2.3925-43.344-18.974-65.714-10.467-14.121-28.759-30.678-32.067-29.024-2.6154 1.3077-1.3647-4.2508 1.6412-7.2938 1.3478-1.3646 1.9983-3.1462 1.4658-4.0152-0.52641-0.8592 0.7881-4.8706 2.9211-8.9143 2.1334-4.0434 2.9388-6.2739 1.7907-4.9562-1.1481 1.3178-5.8569 10.449-10.463 20.293-8.9528 19.131-14.476 27.891-15.087 23.927-0.24986-1.6209-0.61531-1.3135-1.2507 1.0524-0.4937 1.8383-4.3109 9.7381-8.4827 17.555l-7.585 14.213 7.9153-12.49 7.9154-12.49-3.9336 9.3339c-2.2905 5.435-5.5579 10.995-7.8221 13.311-2.1385 2.1877-5.7303 7.4457-7.9817 11.685-3.9503 7.438-3.9588 7.5406-0.24406 2.9388l3.8492-4.7682-2.6639 5.4306c-1.4652 2.9868-3.2201 6.8934-3.9 8.6812-0.67975 1.7879-2.7188 4.8-4.5306 6.6938-3.0138 3.1494-2.9904 2.8264 0.2742-3.7882l3.569-7.2312-5.3234 7.7884c-3.4604 5.0627 2.112-6.8906 15.923-34.155 11.685-23.069 38.977-77.01 60.648-119.87 21.671-42.859 42.677-84.206 46.679-91.882 6.8809-13.196 8.0672-16.977 5.1106-16.292-1.3454 0.31173-67.92 124.54-146.91 274.13-13.965 26.446-30.413 57.04-36.551 67.987-6.1383 10.946-17.013 31.336-24.165 45.309l-13.005 25.407 10.992 6.1429 4.0443-6.1989c2.2243-3.4094 3.6995-6.3906 3.277-6.6256-0.42191-0.23463 5.5214-12.631 13.208-27.547 9.8415-19.099 13.663-27.644 12.919-28.891-0.66272-1.1113-0.52956-1.4852 0.35743-1.0043 0.98813 0.53493 4.8318-5.77 12.771-20.948 6.2466-11.943 11.533-21.246 11.748-20.672 0.21468 0.57324-3.1455 7.6905-7.4669 15.816-4.3214 8.1258-9.4795 18.365-11.463 22.754-3.4162 7.5609-3.423 7.7589-0.12816 3.7725 2.5-3.025 1.7624-1.0179-2.6253 7.1422-3.3569 6.242-7.9992 15.634-10.318 20.87l-4.215 9.5201 4.3607-2.1192c5.1544-2.505 12.478-1.7196 16.327 1.751 4.2875 3.8659 7.1899 12.034 6.5756 18.506-0.87269 9.1925-7.3666 27.04-15.85 43.563-8.9368 17.405-11.413 27.742-8.9468 37.355l1.6247 6.3341 3.8684-1.1022c2.9656-0.84498 3.694-1.6218 3.1211-3.3287-1.0069-2.9998 1.9876-8.0651 5.6384-9.5374 3.9664-1.5995 11.26 2.4766 11.976 6.693 0.29481 1.7359-0.62096 5.2265-2.0351 7.7568-2.1136 3.7819-3.9149 4.912-10.122 6.3504-6.6515 1.5413-8.2807 1.3419-13.678-1.6746-6.4298-3.5934-12.126-10.968-11.67-15.107 0.13553-1.2293-0.54046-2.2336-1.5022-2.2317-0.96188 0.0017-1.3737-0.35751-0.91513-0.79839 1.2361-1.1888 2.2598-11.46 1.1427-11.466-0.52773-0.0026-0.0229-1.9394 1.122-4.304 1.145-2.3646 1.6018-5.0825 1.0152-6.0399-0.72001-1.1751 0.10182-3.1739 2.5291-6.1516 1.9776-2.4261 3.006-4.4105 2.2853-4.41-0.72067 5.52e-4 3.5723-8.7358 9.54-19.414 8.127-14.542 10.512-19.765 9.5037-20.811-0.74063-0.76786-0.77772-1.6806-0.0825-2.0283 1.9375-0.96877 2.2973-10.878 0.46964-12.937-2.616-2.9479-6.9649-1.7101-6.6304 1.8871 0.20981 2.2546-0.50527 3.5168-2.9211 5.1558-3.6332 2.4654-7.7254 0.86215-9.2283-3.6156-0.90768-2.7039-1.2616-2.5034-3.8931 2.2052-1.592 2.8487-5.2998 8.9563-8.2394 13.572-3.9678 6.2303-4.3432 7.1698-1.4571 3.6462l3.8877-4.7467-2.7358 5.3904c-2.3537 4.6376-2.3522 5.9707 0.0109 9.5448 4.8534 7.3408-2.6005 11.903-7.6386 4.6751-1.7182-2.4649-2.0928-2.4066-3.6479 0.567-1.5129 2.8928-1.432 3.0914 0.63581 1.5626 1.4153-1.0463 0.41031 1.1775-2.4965 5.5242-5.9586 8.9101-7.3629 10.226-8.6585 8.1112-0.68097-1.1115 0.69352-4.1283 4.2234-9.2694l5.233-7.6216-11.255-6.2902-5.2645 7.4369c-6.8943 9.7395-8.1344 10.636-4.4974 3.2527l2.9694-6.0287-4.1588 5.364-4.1587 5.3641 4.1705-7.9385c2.7421-5.2196 5.0513-8.1422 6.7422-8.5331 2.1315-0.49294-0.32944-2.1498-14.381-9.6823-9.3238-4.9981-17.009-9.7491-17.079-10.558-0.0694-0.8085-3.0649 3.9169-6.6567 10.501l-6.5308 11.971 5.1266-10.974c4.9418-10.578 5.017-11.05 2.0847-13.104-7.2159-5.0538-8.0661-6.2664-5.899-8.4137 1.1548-1.1443 4.3877-1.7419 7.1843-1.328l5.0846 0.7525 8.829-13.947c4.8559-7.6709 15.148-24.6 22.872-37.62 7.7237-13.02 32.702-55.107 55.509-93.527 22.806-38.419 41.892-70.653 42.414-71.63 0.52171-0.97699 13.958-23.468 29.858-49.98 15.9-26.512 28.776-48.6 28.614-49.083-0.4743-1.4132-11.428 15.707-29.478 46.073-12.792 21.52-17.382 28.339-19.206 28.535-1.422 0.15259-2.8395 1.6767-3.485 3.7476-0.89316 2.8655-1.6943 3.2949-4.4705 2.4002-31.691-10.215-43.625-12.24-63.678-10.803-19.921 1.4281-38.713 9.6033-51.958 22.604-10.58 10.385-21.677 34.382-24.118 52.153-0.46541 3.3888-1.1294 6.4774-1.4755 6.8636-0.34572 0.3864-0.79121 2.6874-0.98911 5.1139-0.52645 6.456-4.5376 17.347-7.9006 21.451-2.855 3.4846-2.8047 3.6816 2.0648 8.0785 6.3055 5.6935 8.7423 10.862 9.7505 20.68 2.8044 27.311-27.797 76.737-57.166 92.332-14.01 7.439-26.214 8.5396-38.185 3.4435-6.9257-2.9483-6.997-2.9391-9.4446 1.2029-1.357 2.2952-2.3906 3.351-2.2983 2.3455 0.30284-3.3001-2.162-3.2185-3.8963 0.12898-0.93374 1.8038-1.0378 2.7836-0.2297 2.1781 0.80818-0.60547 2.0014-0.80354 2.6519-0.44002 2.4617 1.3757-2.2072 6.2401-14.889 15.513-17.754 12.982-26.471 20.3-33.254 27.919-7.7171 8.6685-20.037 33.474-21.341 42.971-0.70005 5.0958-1.4608 6.9559-2.7309 6.6777-0.96831-0.21213-1.6909 0.40367-1.6059 1.3684 0.0984 1.1158-0.475 1.0449-1.5741-0.19395-1.0669-1.2022-2.0551-1.3639-2.5812-0.42245-1.8334 3.2805 0.22384 3.9238 5.3088 1.6601 6.9056-3.0742 26.321-3.5269 39.637-0.92424 20.137 3.936 41.82 14.729 51.274 25.522l4.1343 4.7201-4.1413-3.1929c-18.763-14.466-38.602-23.156-59.164-25.916-7.651-1.0267-23.895-0.09957-28.693 1.6376-6.7889 2.4582-10.363 11.724-5.5577 14.409 2.6632 1.4883 1.9529 5.7056-0.97065 5.7633-1.8666 0.03686-1.8219 0.57918 0.20428 2.4788 1.9734 1.8501 2.0406 2.4544 0.28081 2.527-3.0379 0.12534 7.2046 5.2408 11.231 5.609 2.7606 0.2525 2.8376 0.04394 1.3256-3.5929-1.19-2.8625-1.0945-3.5756 0.36952-2.7574 1.086 0.60692 2.2423 2.2435 2.5697 3.6369 0.32739 1.3934 2.1641 3.3861 4.0815 4.4281 7.7004 4.1852 30.871 24.862 28.942 25.826-0.6451 0.32266-1.9925-0.28895-2.9942-1.3591-1.5018-1.6045-1.6903-1.5026-1.0749 0.58115 0.60142 2.0363 1.398 2.5229 4.102 2.5057 4.0348-0.0255 3.9142 0.74092-0.26904 1.7103-2.0635 0.47811-3.5701-0.0159-4.6502-1.5248-4.14-5.7839-33.514-27.293-40.282-29.496l-4.0799-1.3282 2.0014 6.285c1.1007 3.4567 2.761 6.2836 3.6894 6.2818 0.92834-2e-3 1.0077 0.33705 0.1761 0.75284-1.7857 0.8928-0.25043 4.9406 2.7616 7.2816 1.1684 0.90809 1.6137 2.1901 0.98962 2.849-0.62413 0.65884-0.36883 1.1966 0.5671 1.1948 2.4773-5e-3 5.8383 5.3771 3.9483 6.3221-0.98173 0.49089-0.82559 0.80041 0.40258 0.79809 1.1036-2e-3 5.7518 4.5413 10.329 10.096 13.388 16.246 25.998 26.762 44.682 37.262 14.998 8.4286 22.625 11.453 33.59 13.321 2.3274 0.39638 4.1748 0.0773 4.1056-0.70887-0.0694-0.78637 0.46805-1.0976 1.1947-0.6915 1.1435 0.63905 1.984 5.8237 1.1781 7.2658-0.15436 0.27621-1.5945-0.21408-3.2004-1.0896-1.6059-0.87549-4.5373-1.9656-6.5146-2.4225-3.5486-0.81991-3.5526-0.77362-0.31951 3.6012 3.8369 5.1918 7.5218 7.4364 8.7119 5.307zm-26.522-28.278c-4.2037-6.4056-23.528-32.034-26.01-34.496-1.3481-1.3368-2.1762-2.9223-1.8403-3.5233 0.87584-1.5672 1.2784-1.1963 8.2744 7.6245 3.8366 4.8373 7.7221 8.458 9.8958 9.2214 1.9684 0.69127 4.3354 2.4102 5.2599 3.8203 1.3153 2.0058 0.63359 1.8019-3.1344-0.93766l-4.8155-3.5012 3.8978 5.1432c6.443 8.5017 14.749 22.401 12.686 21.228-1.0598-0.60262-2.9558-2.6632-4.2131-4.579zm-34.431-27.737c-0.0808-0.9168 0.54686-0.82377 1.4714 0.21798 1.7997 2.028 1.7392 3.0963-0.11654 2.0592-0.66759-0.37309-1.2773-1.3978-1.3548-2.2772zm31.933 17.06c-0.43099-1.8344-0.17617-2.4049 0.82424-1.8458 0.79656 0.44516 1.1739 1.2998 0.83882 1.8995-0.33511 0.59961 0.56935 2.0487 2.0097 3.2202 2.5085 2.0401 2.4994 2.072-0.21497 0.75562-1.5586-0.75575-3.1147-2.5692-3.4578-4.0295zm9.37 4.5278c-0.70876-1.1828-0.78235-2.268-0.16353-2.4114 0.61897-0.14336 1.4105 0.95334 1.7592 2.4371 0.72285 3.0767 0.25876 3.0693-1.5956-0.0257zm-5.8361-7.8218c0.38654-0.69166 1.2652-0.9433 1.9524-0.55923 0.68738 0.38415 1.3583-0.28664 1.4911-1.4906 0.17494-1.5856 0.7168-1.6533 1.9663-0.24527 0.94868 1.069 1.0695 2.6933 0.26824 3.6094-1.6248 1.858-6.7836 0.66389-5.6781-1.3143zm-21.088-19.067c-2.4738-2.6548-4.1688-5.4156-3.7667-6.1352 0.50808-0.90914 0.96375-0.61539 1.4936 0.96277 0.41923 1.2492 1.7406 2.8179 2.9363 3.4862 1.1957 0.66822 3.6971 3.077 5.5584 5.3526 4.5583 5.5728-0.25576 2.7359-6.2217-3.6664zm14.22 3.3343c1.0686 0.17059 2.5199 0.9817 3.2253 1.8025 0.70523 0.82068-0.16902 0.68112-1.9429-0.31024-1.7739-0.99136-2.351-1.6629-1.2824-1.4922zm20.54 10.96c-0.0783-0.88943 0.47231-1.2737 1.2238-0.8537 0.75146 0.41996 1.0715 1.2908 0.71138 1.9352-0.36015 0.64444-0.91074 1.0287-1.2236 0.85379s-0.6331-1.0457-0.71152-1.9353zm-33.523-21.81c-0.0784-0.88952 0.43803-1.2928 1.1476-0.89629 0.70954 0.39653 1.3542 1.4488 1.4327 2.3383 0.0783 0.88945-0.43803 1.2928-1.1477 0.89622-0.70954-0.39653-1.3542-1.4488-1.4325-2.3382zm-3.8632-5.3682c-0.0853-0.96705 0.77451-1.9736 1.9104-2.2368 1.4573-0.33769 1.5896 0.22845 0.44928 1.9227-1.8398 2.7337-2.143 2.7741-2.3597 0.31415zm-13.524-8.9616c-0.0784-0.88951 0.4723-1.2737 1.2236-0.85378 0.75146 0.41996 1.0717 1.2908 0.71152 1.9353-0.36014 0.64443-0.91088 1.0286-1.2238 0.85371-0.31289-0.17486-0.63295-1.0457-0.71136-1.9352zm-39.218-26.011c1.0687 0.17068 2.52 0.98179 3.2253 1.8025 0.70536 0.82076-0.16901 0.68111-1.9429-0.31025-1.7739-0.99136-2.3509-1.6628-1.2824-1.4922zm5.1973-2.7796c-4.2767-3.549-6.0078-5.7644-5.0998-6.5266 0.75597-0.63466 2.6117-0.41387 4.1238 0.49067 2.6622 1.5925 2.6497 1.6306-0.39385 1.2094-2.7268-0.37736-2.6433-0.12586 0.63122 1.9 2.0759 1.2842 4.8129 3.203 6.0822 4.264 1.2695 1.061 3.8051 3.0045 5.635 4.319 1.8298 1.3144 3.5163 2.9543 3.7479 3.6442 0.62413 1.8594-7.3367-3.1684-14.726-9.3006zm22.664 13.705c1.1204 0.18192 2.2098 0.84542 2.4209 1.4743 0.21108 0.6289-0.70556 0.48004-2.0371-0.33087-1.4715-0.89614-1.622-1.3446-0.38382-1.1435zm12.707 6.6317c-0.0808-0.9168 0.54686-0.82377 1.4714 0.21797 1.7997 2.028 1.7393 3.0963-0.11654 2.0592-0.66759-0.37309-1.2773-1.3978-1.3548-2.2772zm-12.137-9.3563c-0.70523-0.82068-0.97616-2.0401-0.60193-2.7097 0.46632-0.83442 0.97628-0.55546 1.6208 0.88657 0.51728 1.1573 2.2563 3.1576 3.8647 4.4452l2.9243 2.341-3.2627-1.7355c-1.7945-0.95443-3.8398-2.4069-4.5451-3.2276zm-32.129-22.601c1.1205 0.182 2.2098 0.84542 2.4211 1.4744 0.21109 0.6289-0.7057 0.47998-2.0373-0.33094-1.4714-0.89623-1.622-1.3446-0.38381-1.1435zm298.8 87.184c0.82479-1.3303 1.2856-1.4371 1.175-0.27231-0.0999 1.0541-0.71059 2.0391-1.3566 2.189-0.64626 0.14977-0.56436-0.71263 0.18181-1.9166zm6.0626-27.554c0.23306-2.0612 0.45647-2.1129 1.0888-0.2523 0.43742 1.2875 0.30556 2.4545-0.29335 2.5932-0.59876 0.13879-0.95674-0.91466-0.7954-2.3409zm-200.3-142.35c-9.1569-11.205-0.4048-28.699 11.132-22.252 7.2094 4.029 7.071 12.692-0.23296 14.585-3.5015 0.90757-3.5542 1.0524-1.7632 4.8483 1.8183 3.8538 1.9158 3.8988 6.4774 2.9896 8.8054-1.755 16.139-9.1839 27.261-27.614 15.712-26.036 23.719-35.541 34.063-40.436 12.958-6.1316 26.994 3.3299 24.451 16.482-1.002 5.1834-1.3766 5.6166-5.2804 6.1051-2.311 0.28921-4.9669 0.09826-5.902-0.42436-2.6184-1.4633-3.9887-7.0096-2.1591-8.7396 0.89986-0.85098 2.248-2.1346 2.9955-2.8527 0.74755-0.71805 0.6502-2.5023-0.21652-3.9651-1.283-2.1655-2.1591-2.4293-4.7165-1.4202-1.7275 0.68158-3.3537 2.4542-3.6139 3.939-0.31946 1.8238-0.80256 2.1618-1.4887 1.0419-0.71912-1.1736-1.2801-0.57798-1.9205 2.0388-0.50949 2.0821-1.2514 3.1319-1.6986 2.4035-0.45547-0.74185-4.8919 6.161-10.407 16.193-5.6008 10.189-9.948 16.939-10.416 16.176-0.44912-0.73307-2.2395 1.5094-4.0639 5.0901-4.7489 9.3208-15.899 19.582-24.19 22.261-2.7025 0.87343-2.8707 1.1031-0.86957 1.1881 1.3643 0.057854 0.32624 0.71206-2.307 1.4537-2.6332 0.7416-5.1114 1.0863-5.5072 0.76598-0.39581-0.32035-2.6962-0.88337-5.1119-1.2511-5.7437-0.87452-10.505-3.6972-14.517-8.6064zm4.7564-1.9326c-0.84865-1.7159-2.1235-3.4443-2.833-3.8408-0.70954-0.39653-0.59587 0.68289 0.25277 2.3988 0.84863 1.7159 2.1234 3.4443 2.833 3.8408 0.70954 0.39654 0.59587-0.68288-0.25276-2.3988zm19.767 6.1433c11.902-3.5687 20.416-13.092 36.981-41.365 8.8278-15.067 13.173-21.323 16.926-24.369l5.0491-4.0976-4.1348 1.5333c-8.9882 3.3331-15.69 11.193-31.965 37.491-12.994 20.997-18.949 27.302-28.407 30.078-4.1194 1.2092-4.1634 1.273-1.026 1.491 1.8028 0.12535 4.7624-0.21734 6.5772-0.76147zm-20.357-12.484c0.49613-0.88774 2.1796-1.7892 3.7408-2.0033 2.925-0.40107 5.4852-4.8329 3.2996-5.7121-0.67518-0.2716-1.3093-1.419-1.4088-2.5496-0.1451-1.6468-0.78247-1.9733-3.2035-1.6413-2.6435 0.3625-5.0296 4.0672-7.1024 11.028-0.39571 1.3289 3.9645 2.1483 4.6742 0.87843zm91.515-40.771c1.1379-0.56908 0.91644-0.84499-0.68979-0.85914-2.0257-0.01783-1.946-0.16572 0.55366-1.0278 3.5756-1.2327 3.1584-3.4878-0.55106-2.9791-1.4771 0.20255-2.7882 1.2983-2.9136 2.4349-0.27531 2.4969 1.3176 3.5724 3.6005 2.431zm108.71 149.28c0.8248-1.3303 1.2856-1.4371 1.175-0.27231-0.0999 1.0541-0.71059 2.0391-1.3566 2.189-0.64627 0.14977-0.56437-0.71264 0.18194-1.9165zm-130.5-95.866c3.2413-5.7999 4.8641-8.2005 3.6149-5.3299-1.2492 2.8706-3.898 7.6177-5.8801 10.553-1.9882 2.9315-0.96613 0.58281 2.2712-5.2193zm18.659 8.5055 5.9663-10.12-8.9033 19.626 11.781-18.018-5.4699 10.397c-4.5014 8.5562-5.8126 10.206-7.4051 9.3159-1.5908-0.88901-0.87319-2.8827 4.031-11.202zm96.839-96.953c4.1417-7.4109 6.0454-10.326 4.2306-6.4771-1.8148 3.8486-5.2034 9.9121-7.5303 13.474-2.3269 3.5624-0.84197 0.4136 3.2997-6.9973zm5.3907 0.42405c-0.0594-0.72376 3.8929-8.4211 8.7829-17.105l8.8913-15.789-8.2609 16.91c-8.214 16.815-9.2066 18.5-9.4129 15.984zm8.7673-34.797c5.042-9.022 7.2226-12.444 4.8413-7.6061-2.3813 4.8375-6.5082 12.218-9.1673 16.404-2.6624 4.1835-0.7142 0.22551 4.3299-8.7953zm2.018 1.8966 6.9453-12.264-3.8739 9.7864c-2.5234 6.3747-4.9449 10.65-6.9453 12.264-2.3663 1.9078-1.4762-0.34055 3.874-9.7864zm8.0274-4.0302c0.14268-1.2944 0.64055-2.9489 1.1062-3.6766 0.46558-0.72774 0.69723 0.25071 0.51436 2.1741-0.18274 1.9235-0.68062 3.5779-1.1062 3.6766-0.42574 0.0986-0.65718-0.87972-0.51436-2.1741zm10.933-22.169c3.5936-7.6579 6.9598-14.022 7.4806-14.143 2.4309-0.56323 1.0465 2.7741-6.1945 14.934l-7.8198 13.132zm15.615-30.591c2.8074-6.0424 5.4369-11.089 5.8436-11.214 2.1936-0.67528 0.78776 2.8711-4.7608 12.01l-6.1872 10.19zm10.189-20.445c0.19441-0.73707 2.4476-5.7052 5.0071-11.04 3.544-7.3874 4.5889-8.8388 4.3821-6.0874-0.1493 1.9872-2.4025 6.9554-5.007 11.04-2.6045 4.0851-4.5765 6.8244-4.3821 6.0874zm-240.58 405.26c2.0917-2.8607 2.8726-4.3561 5.7857-11.082 4.5092-10.41 7.2916-18.141 8.1504-22.646 1.2348-6.4769 12.857-28.637 18.698-35.652 2.8919-3.4732 6.5442-8.3637 8.1164-10.868 1.5724-2.504 4.9779-6.0369 7.5686-7.8502 2.5907-1.8134 4.6432-4.0599 4.561-4.9924-0.0872-0.98909 0.27645-1.0003 0.87283-0.0269 0.56226 0.91766 1.3343 1.1101 1.7157 0.4276s0.0229-1.6155-0.79657-2.0735c-0.84349-0.4714 0.0963-1.2848 2.1657-1.8744 2.0108-0.57287 3.4716-1.5909 3.2462-2.2623-0.22539-0.67143 0.71717-1.3513 2.0946-1.5109 3.142-0.36392 8.2943-4.8366 5.5657-4.8316-1.032 0.0019-1.5643-0.55486-1.1829-1.2373 0.3814-0.68246 1.7301-0.71012 2.9972-0.06147 1.956 1.0015 1.9938 0.81949 0.25033-1.2053-1.1293-1.3116-2.5508-2.3994-3.1587-2.4173-0.60792-0.01794 0.0238-1.4249 1.4038-3.1266 1.9281-2.3772 2.005-3.2935 0.33092-3.9566-3.9386-1.5599-13.513 4.1435-10.13 6.0343 1.0989 0.61414 2.5218-0.04373 3.3878-1.5664 1.1327-1.9926 1.5481-2.0721 1.7213-0.33073 0.3515 3.5356-2.5502 4.9283-7.0544 3.3859-2.8084-0.96177-4.4793-0.69085-5.3502 0.86753-0.69652 1.2463-0.50373 2.2647 0.4284 2.2629 0.93211-0.0017 1.3827 0.55522 1.0013 1.2377-0.3814 0.68247-1.274 0.91639-1.9836 0.51986-0.70953-0.39653-1.911 0.38994-2.6698 1.7477-0.95736 1.7131-0.672 2.5933 0.93239 2.8758 1.2717 0.2239 2.0174 0.93433 1.6573 1.5788-0.36015 0.64443-1.6952 0.98854-2.9669 0.76464-3.0092-0.52977-4.0447 1.3709-1.5161 2.784 1.7198 0.96114 1.553 1.2993-1.3386 2.7116-2.6559 1.2972-6.1169 6.8232-17.656 28.189-7.8936 14.617-15.469 29.411-16.835 32.877-1.3655 3.4654-4.0092 9.0803-5.8749 12.478-1.8657 3.3972-2.9013 6.4511-2.3014 6.7864 0.60009 0.33537 0.29888 1.8305-0.66926 3.3225-0.96864 1.4917-2.0592 2.2253-2.4246 1.6295-0.36529-0.59575-1.3358 0.13916-2.1566 1.6332-1.2348 2.2467-1.0835 2.5463 0.8723 1.7315 1.8996-0.79138 1.9497-0.53667 0.25495 1.2957-1.3018 1.4076-1.4971 2.623-0.51008 3.1746 0.87963 0.4916 2.1381 0.157 2.7966-0.74355zm30.369 17.356c2.2293 1.0094 4.9443 1.8223 6.0332 1.8063 1.0889-0.016 2.723 0.80863 3.6317 1.8325 0.95166 1.0724 1.9894 1.2578 2.4478 0.4375 0.53948-0.96532 1.7954-0.52905 3.8989 1.3544 2.3691 2.1213 2.9328 2.2561 2.3834 0.5698-0.73898-2.2679-11.753-7.2558-12.64-5.7241-0.25163 0.41929-4.6566-1.397-9.8039-4.0446-5.1473-2.6477-10.6-4.8067-12.117-4.7979-1.9785 0.0114-0.65555 0.96558 4.6769 3.3733 4.0894 1.8465 9.2594 4.1832 11.489 5.1928zm26.367 8.8655c0.41467-0.742 1.6344-0.30602 2.9991 1.072 1.6515 1.6677 2.2513 1.7689 2.1269 0.35872-0.12425-1.4101 0.47556-1.3089 2.127 0.35879 1.3349 1.348 2.5847 1.8132 2.9784 1.1087 0.37312-0.66764 1.3194-0.4916 2.1028 0.39115 0.78338 0.88271 2.7458 1.2987 4.3609 0.92443 1.6151-0.37427 3.0859-0.23577 3.2683 0.30771 0.50015 1.4898 13.094 2.2081 24.965 1.4241 10.617-0.70118 28.973-4.5198 27.007-5.6183-0.5811-0.32476 0.89349-0.86153 3.2769-1.1928 2.3834-0.33123 3.7969-0.92519 3.1412-1.3198-0.65587-0.39472 0.27428-0.83015 2.067-0.96771 2.6765-0.20547 3.0313-0.60122 1.9837-2.2132-0.70168-1.0797-1.0961-1.3198-0.87665-0.53379 0.21949 0.78606-1.4254 1.6846-3.6554 1.9966-2.23 0.31207-3.682 0.79855-3.2267 1.0811 1.1004 0.68302-33.129 7.9737-35.453 7.5513-5.3148-0.9661-12.42-1.1365-12.882-0.30905-0.31469 0.5631-0.88763 0.50893-1.2731-0.12033-0.38563-0.62933-6.3719-2.2858-13.303-3.6811-6.9311-1.3954-13.887-3.2064-15.457-4.0245-2.7594-1.4378-2.7875-1.4054-0.83781 0.96133 2.7872 3.3833 3.7472 3.898 4.5595 2.4444zm-10.954-8.4847c-0.21109-0.6289-1.3006-1.2924-2.4211-1.4744-1.2382-0.20113-1.0877 0.24733 0.38382 1.1435 1.3316 0.81094 2.2483 0.95987 2.0372 0.33096zm21.327 5.4858c-0.77332-0.80194-2.3308-1.2437-3.4608-0.98184-1.4433 0.3344-1.0249 0.76838 1.406 1.458 1.9761 0.5606 2.8577 0.3563 2.0549-0.47621zm19.237 4.33c6.8815 0.52211 32.338-2.1109 35.331-3.6546 1.9669-1.0142-3.0983-0.80536-7.0888 0.29218-4.6021 1.2659-18.871 2.3281-27.381 2.0383-10.101-0.3439-10.701 0.57753-0.86114 1.3242zm-95.618-56.857c0.11043-1.1649-0.35038-1.0581-1.175 0.2723-0.74693 1.2035-0.82819 2.0662-0.18194 1.9165 0.64626-0.14978 1.2569-1.1347 1.3566-2.189zm30.832-6.6692c0.31009-1.3228-0.3418-0.83531-1.4486 1.0832-1.1068 1.9186-1.3603 3.0009-0.56356 2.4052s1.7022-2.1655 2.0118-3.4886zm-100.68-52.998c-0.21109-0.6289-1.3006-1.2924-2.4211-1.4744-1.2382-0.20112-1.0876 0.24741 0.38393 1.1435 1.3316 0.81094 2.2482 0.95977 2.0371 0.33087zm-5.7957-4.7766c-0.21109-0.6289-1.3006-1.2924-2.4209-1.4743-1.2382-0.20114-1.0877 0.24732 0.38381 1.1435 1.3315 0.81093 2.2482 0.95976 2.0371 0.33086zm97.071 31.998c7.8556-15.856 14.72-35.291 15.388-43.565 0.0979-1.2138 0.55843-3.0323 1.0231-4.0411 1.5126-3.2828 3.8841-19.33 2.9371-19.872-0.50698-0.2902-1.032 0.47432-1.1671 1.6995-0.1915 1.7357-0.95218 1.1236-3.4456-2.7728-2.9338-4.5847-3.2685-4.8116-4.0272-2.7295-0.45507 1.249 0.3721 3.4074 1.8381 4.7965 1.4661 1.3891 1.8437 2.1353 0.83933 1.6583-1.4631-0.69479-1.733-0.06143-1.3567 3.185 0.2583 2.2288-2.2e-4 4.8929-0.57436 5.9203-0.57415 1.0274-0.28989 1.8665 0.63149 1.8648 0.96863-0.0018 0.90574 0.59599-0.14882 1.4169-1.0033 0.78099-1.8894 5.6842-1.9689 10.896-0.0795 5.212-1.4743 13.923-3.0994 19.357-3.6082 12.066-13.07 32.255-14.947 31.893-1.8545-0.35729-3.9375 6.7576-2.2536 7.6988 0.90364 0.505 4.2579-5.1458 10.332-17.406zm131.41 76.403c4.9035-2.8803 9.1518-5.6957 9.4405-6.2563 0.28899-0.56055-3.8927 1.5828-9.2925 4.7632-5.3997 3.1804-11.141 6.1992-12.759 6.7084-1.6175 0.50924-3.8253 1.4696-4.9062 2.1341-6.3211 3.8867 10.161-3.0288 17.517-7.3494zm-110.14-74.727c1.8271-3.8725 0.0785-1.2424-3.886 5.8447-3.9616 7.0887-5.4595 10.255-3.3221 7.0409 2.1372-3.2146 5.3809-9.0132 7.2029-12.889zm110.7 79.744c-0.0742-0.84254-0.8574-1.5306-1.7403-1.5289-0.88291 2e-3 -1.5446 0.69235-1.4704 1.5349 0.0742 0.84253 0.85739 1.5306 1.7403 1.5289 0.88305-2e-3 1.5447-0.69228 1.4704-1.5349zm2.6185-0.94413c-0.22739-0.67774 0.88989-1.3322 2.4826-1.4546 1.7621-0.13531 2.8243-1.0371 2.7126-2.3034-0.13504-1.5332-1.0237-1.5903-3.375-0.21669-3.0107 1.7586-3.9433 3.7894-2.1904 4.769 0.43119 0.24097 0.59774-0.11649 0.36971-0.79456zm16.856-13.681c-0.19344-3.2252-0.98554-2.6702-1.3873 0.97197-0.14268 1.2944 0.15017 2.2585 0.6509 2.1425 0.50077-0.11606 0.83112-1.5181 0.7364-3.1145zm-122.38-76.169c0.31009-1.3228-0.34179-0.83533-1.4486 1.0832-1.1068 1.9186-1.3603 3.001-0.56356 2.4052 0.79669-0.59578 1.7022-2.1656 2.0118-3.4886zm126.07 72.785c-0.45579-1.358-1.018-1.763-1.4283-1.0289-0.87403 1.564-0.1228 3.8022 1.1752 3.5014 0.55264-0.12809 0.66728-1.2403 0.25307-2.4726zm5.2972-5.2732c0.48506-1.9823 0.44432-3.5028-0.0906-3.3789-0.53477 0.12398-1.3693 1.8473-1.8544 3.8296-0.4852 1.9823-0.44447 3.5028 0.0904 3.3788 0.53476-0.12397 1.3693-1.8473 1.8545-3.8296zm-281.37-158.68c0.54022-0.96665 0.75411-1.885 0.47522-2.0409-0.27888-0.15586-1.2831 0.32081-2.2318 1.0592-0.94858 0.73843-1.1625 1.6568-0.47508 2.041 0.68724 0.38408 1.6915-0.09261 2.2317-1.0593zm155.52 84.225c0.0923-1.0055-0.56887-0.51011-1.4692 1.101s-0.97583 2.4338-0.16779 1.8283c0.80805-0.60552 1.5447-1.9237 1.637-2.9292zm142.52 46.206c3.8588-10.219 7.0931-24.521 5.46-24.142-0.54766 0.12691-1.9124 4.0648-3.0328 8.751-1.1205 4.686-3.9586 12.674-6.3069 17.751-6.8773 14.868-9.7824 21.474-9.8005 22.285-0.0581 2.6167 10.714-16.789 13.68-24.645zm-293.28-148.88c0.88987-2.2664-0.1561-0.96047-2.3242 2.902-2.174 3.8592-2.8961 5.7169-1.6178 4.1207 1.2784-1.5961 3.0523-4.7563 3.942-7.0228zm10.99-10.703c0.11056-1.1648-0.35037-1.0581-1.175 0.27231-0.74693 1.2035-0.8282 2.0662-0.18182 1.9165 0.64626-0.14978 1.2568-1.1348 1.3566-2.189zm129.41 68.019c0.769-1.376 0.58621-2.1611-0.44744-1.9217-0.96116 0.22278-1.6779 1.1962-1.5927 2.1632 0.21688 2.4605 0.55228 2.4208 2.0402-0.24154zm-122.14-75.367c2.6528-3.6238 2.6988-4.0315 0.31335-2.7774-3.3597 1.7663-7.7118 8.0186-5.1719 7.43 0.96227-0.22288 3.1485-2.3167 4.8586-4.6526zm162.79 95.607c1.5581-0.36106 1.9087-4.1647 0.45853-4.9751-0.63358-0.35408-1.7414 0.41068-2.4617 1.6995-1.2763 2.2838-0.33812 3.8181 2.0032 3.2756zm-41.313-26.85c1.0282-1.8398-1.6049-5.0006-4.5597-5.4736-2.9172-0.4669-2.9279-0.3901-0.17514 1.2497 1.613 0.96091 2.3883 2.0194 1.7227 2.3522-0.66551 0.33283-0.36477 1.0775 0.66834 1.6549 1.0331 0.57737 2.0878 0.67489 2.3438 0.21678zm24.477 8.7507c-0.0979-1.1114 0.79048-3.5556 1.9744-5.4316l2.1524-3.4109-3.0146 2.9282-3.0146 2.9282 1.6361-3.6985c1.3022-2.9438 1.23-3.2357-0.35382-1.4303-2.229 2.5409-2.5474 8.2658-0.52275 9.3974 0.72772 0.40669 1.2409-0.16906 1.1428-1.2825zm16.982 9.0699c1.4288-1.1122 1.154-1.3974-1.4927-1.5489-3.8029-0.2177-4.5758 0.49953-2.0558 1.9078 0.98841 0.55238 2.5853 0.39091 3.5486-0.35888zm-38.522-26.106c0.90036-1.6111 1.0565-3.2537 0.34692-3.6502-1.4412-0.80544-3.9266 2.8736-3.2675 4.837 0.70029 2.0864 1.2062 1.8808 2.9206-1.1868zm9.3028 4.9299c-0.14294-2.3845-0.36639-2.5757-1.25-1.0702-1.145 1.9496-0.78089 4.4846 0.59763 4.1653 0.45463-0.10535 0.74884-1.4978 0.65237-3.0951zm-125.7-72.671c3.2266-2.7688 3.2553-2.924 0.3382-1.8236-1.7537 0.66154-3.5742 1.8929-4.0456 2.7364-1.4602 2.6128 0.025 2.2472 3.7074-0.91281zm149 87.341c-0.21108-0.62891-1.3006-1.2924-2.4211-1.4744-1.2382-0.20113-1.0876 0.24742 0.38394 1.1436 1.3316 0.81094 2.2482 0.95977 2.0371 0.33085zm-40.605-31.058c1.3245-3.5262 3.4264-8.233 4.6708-10.46 1.4521-2.5983 1.6446-4.3937 0.53739-5.0125-1.8538-1.036-3.7467 2.919-7.1128 14.861-2.3477 8.3289-1.1401 8.7164 1.9046 0.61109zm47.131 28.36c0.30998-1.3229-0.34178-0.83534-1.4486 1.0832-1.1068 1.9185-1.3604 3.0009-0.56355 2.4052 0.7967-0.59577 1.7022-2.1655 2.0118-3.4886zm-42.942-23.163c0.11056-1.1648-0.35037-1.0581-1.175 0.27232-0.74693 1.2035-0.8282 2.0662-0.18181 1.9165 0.64626-0.14977 1.2568-1.1348 1.3566-2.189zm38.584 20.395c1.3684-1.7277 1.8637-3.1399 1.0998-3.1387-0.76355 0.0014-0.78148-1.0831-0.0399-2.41 0.74155-1.3269 0.75661-2.7432 0.0336-3.1472-1.1993-0.67022-2.2726 1.8213-3.8709 8.9846-0.75556 3.3863-0.0773 3.3157 2.7774-0.28868zm-38.587-25.49c0.54022-0.96665 0.75409-1.885 0.47521-2.0409-0.27887-0.15585-1.2831 0.32082-2.2318 1.0592-0.94859 0.73842-1.1625 1.6568-0.47523 2.0409 0.68738 0.38415 1.6916-0.09252 2.2318-1.0592zm-103.15-63.99c6.0109-4.1828 8.0611-6.3335 3.9338-4.1266-3.9114 2.0916-10.869 7.3653-10.206 7.7359 0.33109 0.18503 3.1537-1.4392 6.2725-3.6093zm139.56 80.997c-0.1933-3.2251-0.98554-2.6702-1.3872 0.97205-0.14281 1.2944 0.15002 2.2585 0.65077 2.1424 0.50088-0.11598 0.83112-1.5181 0.73639-3.1145zm15.537 8.1831c0.72029-1.2889 0.72903-2.6678 0.0195-3.0644-0.70953-0.39653-1.8794 0.33353-2.5997 1.6224-0.72029 1.2889-0.72904 2.6678-0.0195 3.0644 0.70952 0.39652 1.8794-0.33352 2.5997-1.6224zm-7.2075-6.3224c0.13351-3.5613-2.4211-6.7431-3.6493-4.5454-0.43102 0.77124 2.0321 6.7598 3.3418 8.125 0.0918 0.09577 0.23019-1.5151 0.30746-3.5796zm-25.671-15.127c-0.0784-0.88953-0.72299-1.9417-1.4326-2.3383-0.70953-0.39652-1.226 0.0068-1.1476 0.8963 0.0784 0.88951 0.72311 1.9417 1.4326 2.3383 0.70953 0.39653 1.226-0.0068 1.1476-0.8963zm-8.6522-8.1989c0.11056-1.1648-0.35038-1.0581-1.175 0.27232-0.74693 1.2035-0.82821 2.0662-0.18194 1.9165 0.64639-0.1497 1.2569-1.1347 1.3566-2.189zm29.153 17.462c0.12542-1.1366 1.4172-2.2293 2.8694-2.4288 3.3467-0.45894 4.3227-2.1213 2.0059-3.416-0.98169-0.54862-2.7208-0.06993-3.8648 1.0637-2.051 2.0322-3.1411 5.7845-1.8835 6.4873 0.35484 0.1983 0.74759-0.56952 0.87236-1.7065zm-35.57-24.219c0.0923-1.0055-0.56889-0.51013-1.4692 1.1009-0.90036 1.6111-0.97583 2.4338-0.16777 1.8283 0.80803-0.60554 1.5447-1.9237 1.637-2.9292zm52.189 29.483c1.4133-1.7845 2.2808-3.7159 1.9279-4.292-0.35293-0.57606-1.9073 0.66151-3.4542 2.7502-3.4486 4.6563-2.055 6.0639 1.5263 1.5418zm-6.0255-5.9613c0.30997-1.3229-0.34179-0.83533-1.4486 1.0832-1.1068 1.9186-1.3604 3.0009-0.56357 2.4052 0.79671-0.59578 1.7022-2.1655 2.0118-3.4886zm-151.37-85.778c0.36014-0.64442-0.34995-0.6953-1.5781-0.1131-1.228 0.58227-2.5274 1.5859-2.8876 2.2303-0.36014 0.64442 0.34996 0.69531 1.578 0.11303 1.2281-0.5822 2.5276-1.5858 2.8877-2.2303zm263.72 139.43c0.0198-4.0702 0.45985-9.2393 0.97803-11.487 0.51806-2.2476 0.3259-3.5931-0.4272-2.9902-1.432 1.1465-2.7592 22.381-1.3789 22.061 0.43571-0.10092 0.80829-3.5137 0.82806-7.5839zm-247.86-142.69c5.4988-3.8959 5.6959-4.2124 4.5644-7.3303-1.1214-3.0899-1.2471-3.0629-2.4274 0.52105-1.4706 4.4658-7.6449 10.152-7.8985 7.2739-0.11273-1.2796-0.81603-1.268-2.131 0.03504-3.984 3.9476 2.1649 3.5583 7.8925-0.49965zm244.03 139.21c0.13564-1.2292-0.17061-2.1383-0.68047-2.0202-0.50973 0.11818-0.85843 0.99106-0.77483 1.9397 0.22733 2.5803 1.1738 2.6326 1.4553 0.0805zm-27.437-36.018c0.1845-0.74661 0.8768-1.0549 1.5386-0.68508 2.5441 1.4218 5.6329-3.2013 4.2246-6.323-0.76573-1.6971-0.85293-2.3461-0.19408-1.4424 0.65898 0.90375 1.4902 1.1203 1.8474 0.48123 1.0565-1.8905-3.5618-5.6686-6.4459-5.2731-3.7134 0.50917-4.7709 3.0532-2.693 6.4787 2.415 3.9813 0.77763 6.2054-5.2728 7.1629l-5.1076 0.80825 5.8837 0.07502c3.236 0.04122 6.0347-0.53582 6.2191-1.2825zm-19.205-8.0494c-2.8298-9.5093 0.94971-23.73 11.297-42.506 11.181-20.289 15.731-36.935 12.738-46.607-1.1714-3.7864-1.8973-5.6324-1.613-4.1022 1.3832 7.4455-1.3749 16.026-12.161 37.829-11.259 22.761-15.136 33.332-15.21 41.473-0.0483 5.3162 3.0731 16.325 4.9218 17.358 0.69411 0.38791 0.70647-1.162 0.027-3.4446zm55.527 24.457c1.9582-3.1125 4.2323-5.6869 5.0538-5.7209 0.8214-0.03403 2.4755-1.5314 3.6758-3.3275 1.9227-2.8769 1.7428-3.5607-1.5106-5.7456-3.0912-2.0758-3.4382-2.0684-2.129 0.04662 0.86031 1.3897 2.36 2.5253 3.3326 2.5235 0.97249-0.0019-0.22636 1.451-2.6643 3.2285-2.4379 1.7775-5.919 5.8916-7.7358 9.1425-4.1789 7.4775-2.7526 7.3714 1.9775-0.14712zm-240.24-135.84c1.0234-0.79645 1.0699-1.3877 0.10916-1.3859-0.92138 0.0018-1.9527 0.49926-2.2916 1.1057-0.9419 1.6854 0.19039 1.8308 2.1824 0.28023zm3.8181-4.7057c1.36 0.76005 2.7182 0.94247 3.0183 0.40545 0.30013-0.53704 1.4165-0.48977 2.4808 0.10507 1.0644 0.59482 1.6896 1.5209 1.3895 2.0579-0.30012 0.53702 0.32513 1.4631 1.3895 2.0579 1.0644 0.59483 2.1215 0.40718 2.3493-0.41692 0.2278-0.82409 2.447-1.046 4.9314-0.49306 2.4846 0.55295 7.559 0.67498 11.276 0.27116 3.7176-0.40375 6.4963-0.26378 6.175 0.31116-0.8766 1.5686-6.7223 2.3467-13.878 1.8474-3.7096-0.25891-4.8445-0.0179-2.714 0.5762 5.17 1.4416 12.322 0.805 18.096-1.6109 2.718-1.1371 3.9302-2.0657 2.6939-2.0634-1.5297 0.0028-1.7664-0.40926-0.74094-1.2897 0.82891-0.7116 2.3241-0.83723 3.3226-0.27924 2.3902 1.3358 10.649-4.0136 11.31-7.3261 0.35932-1.7991 0.84752-2.0562 1.5932-0.83911 0.77381 1.263 1.2229 0.91087 1.6027-1.2568 0.37072-2.1165 0.98227-2.6317 2.0573-1.7337 0.91458 0.76406 2.4179 0.07405 3.7386-1.7161 3.7145-5.0346 0.12734-4.6479-6.919 0.74614-10.545 8.0721-23.71 13.792-31.102 13.513-6.0274-0.22701-7.1575-0.72216-14.518-6.3606-4.3899-3.3629-8.4274-6.7883-8.9721-7.6119-0.54475-0.82359-0.80133-0.82552-0.57006-0.0042 0.2314 0.82137-0.51837 1.8054-1.6661 2.1867-1.4431 0.47953-1.7385 1.4831-0.95748 3.2543 0.62104 1.4085 0.69542 3.4447 0.16531 4.5249-0.61401 1.2504-0.43019 1.564 0.50529 0.86294 0.80804-0.60555 2.582-0.47907 3.942 0.28097zm-3.5231-5.4286c-0.40244-1.7247 1.2422-1.2555 7.4873 2.1362 4.4019 2.3906 6 3.5006 3.5515 2.4666-2.4485-1.034-4.7278-1.3861-5.0651-0.78248-0.90101 1.6122-5.3733-1.2479-5.9737-3.8203zm-3.2919-0.25085c-0.45593-1.3581-1.0181-1.7631-1.4284-1.0289-0.87402 1.5639-0.12267 3.8023 1.1754 3.5015 0.55265-0.12808 0.66718-1.2404 0.25307-2.4726zm240.67 128.71c2.3788 1.345 2.7408 1.9581 1.17 1.9782-1.7073 0.02175-1.6446 0.60844 0.25089 2.3489 2.767 2.5408 4.9667 2.961 5.9826 1.143 0.36015-0.64443-0.0552-1.1704-0.92289-1.1688-0.86769 0.0017-1.6428-0.73667-1.7225-1.6407-0.0797-0.904-1.3874-2.4071-2.9063-3.3402-2.5933-1.5932-2.5298-1.6498 1.0434-0.9306 2.7127 0.54601 1.5332-0.31409-4.1099-2.997-6.9653-3.3115-8.2839-4.4664-10.995-9.6282-1.6943-3.226-3.6364-10.089-4.3159-15.25-0.6795-5.1617-1.5279-9.3228-1.8852-9.2468-1.7788 0.37795 0.68753 15.722 3.65 22.708 1.8541 4.3727 2.9028 8.0588 2.3305 8.1915-1.8594 0.43088-7.7027-12.673-8.208-18.407-0.61479-6.9761-1.8154-8.0455-1.4429-1.2852 0.26492 4.8061 6.5913 20.382 8.7738 21.602 0.58677 0.32792 1.6428 0.10166 2.3469-0.5027 0.8157-0.70035 1.9986-0.25321 3.2614 1.2329 1.294 1.5228 1.3126 2.2082 0.0536 1.9756-1.0603-0.19593-1.8686 0.315-1.7963 1.1353 0.0723 0.82034 1.451 1.1858 3.0638 0.81207 1.6128-0.37374 4.4828 0.1976 6.3779 1.2696zm-219.07-123.99c-0.0784-0.88953-2.6199-2.8978-5.6476-4.4629l-5.5052-2.8457 5.3474 4.0642c2.9411 2.2353 5.4826 4.2437 5.6478 4.463 0.1652 0.21934 0.23587-0.32918 0.15773-1.2185zm11.089 1.3737c6.9331-1.1441 19.36-6.9361 18.754-8.7411-0.19144-0.57024-2.3258 0.17106-4.7431 1.6473-5.3753 3.2827-17.527 6.946-18.034 5.4366-0.20274-0.60421-0.70329-0.49998-1.1121 0.23158-0.42434 0.7593-1.4852 0.4942-2.4721-0.61775-1.1623-1.3098-1.674-1.328-1.5618-0.05578 0.25618 2.907 1.9387 3.2922 9.1687 2.0992zm126.48 65.152c0.6988-1.9468-0.21068-0.9077-2.0212 2.309-1.8139 3.2148-2.3821 4.8096-1.2706 3.5396 1.1116-1.27 2.5929-3.9018 3.2912-5.8489zm91.73 57.868c0.15881-0.28418-0.10972-1.167-0.59667-1.9618-0.48695-0.79481-1.1975-0.88676-1.5789-0.2043-0.3814 0.68246-0.11287 1.5653 0.59667 1.9618 0.70952 0.39652 1.42 0.48848 1.5789 0.2043zm-137.54-99.251c0.36015-0.64443 1.694-0.64554 2.9642-0.0025 1.2702 0.64304 1.7613 0.52776 1.0914-0.25632-0.66997-0.78408-3.2983-1.5341-5.8407-1.6667-4.315-0.22504-4.4312-0.13005-1.7462 1.428 1.5821 0.91809 3.1712 1.1419 3.5313 0.49746zm18.062 10.094c0.36015-0.64444-2.2479-2.7939-5.7957-4.7766-3.5478-1.9827-6.7452-3.0777-7.1053-2.4333-0.36014 0.64442 2.2479 2.7939 5.7957 4.7766 3.5478 1.9827 6.7452 3.0777 7.1054 2.4333zm16.771 9.3728c0.36015-0.64443-1.9919-2.6508-5.2268-4.4586-3.5926-2.0078-5.8262-2.6576-5.7392-1.6698 0.0784 0.88951 2.4304 2.8959 5.2269 4.4587 2.7963 1.5628 5.3789 2.3141 5.739 1.6697zm17.28 9.2725c1.0613-0.82433-0.27127-1.9338-5.0758-4.2259-3.5833-1.7095-6.7812-2.6318-7.1066-2.0495-0.92455 1.6543 10.533 7.5565 12.182 6.2754zm6.818 3.4748c-2.0008-4.0458-3.7386-5.0828-2.832-1.69 0.38844 1.4535 1.5317 3.1303 2.5405 3.7262 1.2898 0.76203 1.3764 0.15762 0.29143-2.0362zm-116.77-66.923c1.0233-0.79651 1.0699-1.3877 0.10916-1.3859-0.92151 0.0017-1.9527 0.49926-2.2916 1.1057-0.9419 1.6854 0.19039 1.8308 2.1824 0.28023zm168.13 89.161c-0.19344-3.2252-0.98555-2.6702-1.3873 0.97197-0.14281 1.2944 0.15016 2.2585 0.65091 2.1425 0.50075-0.11606 0.83112-1.5181 0.73639-3.1145zm-65.495-92.085c13.614-24.31 28.519-50.398 33.123-57.973 14.036-23.096 171.41-304.87 171.25-306.63-0.41061-4.6591-5.32 2.4932-26.439 38.516-12.697 21.658-32.896 55.691-44.888 75.629-22.27 37.029-116.09 194.42-151.25 253.75l-19.512 32.918 12.965 7.9889 24.753-44.199zm25.056-6.7423c18.001-33.282 35.691-66.469 39.311-73.748 3.6201-7.2796 17.774-33.966 31.454-59.303 35.817-66.34 92.949-173.57 102.9-193.13 4.6898-9.2188 9.9195-19.27 11.621-22.336 1.6975-3.0684 2.6072-5.8467 2.012-6.1794-1.4763-0.82505-200.27 349.21-231.18 407.05-0.5164 0.96748 1.2784 2.6365 5.1812 4.8176l5.9719 3.3374zm-43.61 44.918c0.11044-1.1649-0.35037-1.0581-1.175 0.27231-0.74693 1.2035-0.8282 2.0662-0.18194 1.9165 0.64625-0.14977 1.2569-1.1347 1.3566-2.189zm-68.716-41.201c-0.079-0.89631 1.3423-1.974 3.1582-2.3948 2.1548-0.49933 2.8773-1.2054 2.0798-2.0325-0.67208-0.69701-0.50779-1.6245 0.36532-2.061 0.87297-0.43656 3.4592-3.8075 5.7472-7.4909 2.288-3.6835 5.1854-7.038 6.4387-7.4544 2.49-0.82731 10.223-15.145 8.6627-16.038-0.52921-0.30274-0.17632-1.9566 0.78407-3.6751 0.96037-1.7185 1.344-3.0314 0.85281-2.9175-0.49138 0.11385-5.6325 7.8888-11.425 17.278-5.7924 9.3888-12.221 18.876-14.286 21.083-3.4771 3.7166-4.4579 6.0911-2.8798 6.973 0.35469 0.19823 0.58041-0.37287 0.50134-1.2693zm154.54 84.551c0.11057-1.1648-0.35036-1.0581-1.175 0.27232-0.74569 1.2042-0.8282 2.0662-0.18181 1.9165 0.64626-0.14977 1.2568-1.1348 1.3566-2.189zm3.1736-9.4005c1.1767-3.2646 1.7418-5.8434 1.2556-5.7307-0.48624 0.11268-1.8469 2.8759-3.0238 6.1404-1.1767 3.2646-1.7418 5.8434-1.2556 5.7307 0.48621-0.11268 1.8469-2.8759 3.0238-6.1404zm-39.3-46.955c2.1972-4.5158 0.16218-1.3572-4.5219 7.0191-4.6819 8.3776-6.4816 12.071-3.9946 8.2105 2.4871-3.8605 6.3196-10.714 8.5125-15.232zm35.835 45.718c0.36014-0.64442 0.39888-1.3147 0.086-1.4896-0.31291-0.17487-1.2224 0.00878-2.0211 0.40811-0.79858 0.39941-0.83731 1.0697-0.0858 1.4897 0.75147 0.41996 1.6609 0.23625 2.021-0.40819zm-86.464-70.279c1.2492-2.8706-0.37759-0.47216-3.6149 5.3299-3.2413 5.7999-4.2594 8.1507-2.2712 5.2193 1.9882-2.9315 4.637-7.6786 5.8801-10.553zm89.486 60.82c0.0923-1.0055-0.56889-0.51012-1.4692 1.1009-0.90036 1.6111-0.97583 2.4338-0.16777 1.8283 0.80803-0.60554 1.5447-1.9237 1.637-2.9292zm7.5609-7.3068c0.69477-1.9374-0.35738-0.62258-2.3382 2.9218-1.9808 3.5444-2.5493 5.1295-1.2633 3.5225 1.286-1.607 2.9067-4.5069 3.6014-6.4443zm-54.369-51.075c2.3813-4.8375 0.20278-1.4147-4.8413 7.6061-5.042 9.022-6.9924 12.979-4.3295 8.7955 2.6627-4.1834 6.7896-11.564 9.1673-16.404zm13.508 35.606c0.76613-0.38315 1.2597-2.1269 1.0974-3.8747-0.23819-2.5605 0.29839-3.3934 2.7609-4.2857 2.8376-1.028 2.8167-1.0808-0.29076-0.73497-3.8666 0.43038-8.8479 3.9505-8.657 6.1176 0.17139 1.9438 3.3203 3.6624 5.0894 2.7778zm6.2589-37.696c1.0722-2.5722-0.26053-0.72221-2.9616 4.111-2.7011 4.8332-3.5783 6.9377-1.9494 4.6767 1.6289-2.261 3.8389-6.2155 4.9111-8.7877zm46.048 32.654c0.50283-1.6218-0.41175-0.57607-2.0324 2.3238-1.6207 2.8999-2.0321 4.2269-0.91425 2.9487 1.1178-1.2781 2.4438-3.6508 2.9466-5.2726zm-142.75-93.434c2.2688-9.4891 2.609-15.908 1.1774-22.206-0.918-4.0388-1.005-4.1166-1.0513-0.94017-0.0278 1.9048-0.64579 3.7608-1.3732 4.1246-0.7276 0.36375-0.68566 1.9297 0.0931 3.48 0.77877 1.5502 0.88386 4.251 0.2335 6.0018-0.6505 1.7507-1.1608 4.2333-1.134 5.5168 0.0268 1.2835-0.96591 5.1476-2.2058 8.5871-1.7172 4.7633-1.7143 5.9521 0.0121 4.9888 1.4752-0.82314 2.9583-4.1581 4.2481-9.5524zm142.72 87.362c0.11058-1.1648-0.35036-1.0581-1.175 0.27232-0.74693 1.2035-0.82821 2.0662-0.18182 1.9165 0.64626-0.14977 1.2568-1.1348 1.3566-2.189zm-82.289-70.732c1.2492-2.8706-0.37759-0.47215-3.6149 5.3299-3.2413 5.7999-4.2594 8.1507-2.2712 5.2193s4.637-7.6786 5.8801-10.553zm98.801 61.248c6.1254-4.1393 17.102-6.8074 20.407-4.9604 0.73301 0.40965 2.5743 0.33235 4.0917-0.17177 2.4891-0.82707 2.1564-1.0058-3.4035-1.8287-9.8895-1.4636-18.595 1.3507-26.671 8.6222-4.2701 3.8449-1.2335 2.9402 5.5758-1.6613zm1.3555-6.3817c1.4798-0.8644 2.4002-1.7339 2.0455-1.9321-0.35483-0.1983-1.8558 0.34672-3.3356 1.2111-1.4798 0.86439-2.4002 1.7339-2.0454 1.9322 0.3547 0.19823 1.8557-0.3468 3.3355-1.2112zm-162.59-93.804c0.32802-0.58695-1.391-3.698-3.8199-6.9134-3.4809-4.6079-5.7342-6.3639-10.637-8.2898-3.4215-1.3439-6.1637-1.7944-6.0938-1.0011 0.0708 0.80342 1.6347 1.7217 3.5303 2.0729 3.4512 0.63932 10.653 6.815 14.057 12.054 2.177 3.3507 2.2309 3.3885 2.9639 2.077zm171.35 90.244c2.5669-0.6797 4.3768-1.3981 4.022-1.5964-0.3547-0.19823-2.7451 0.19569-5.3121 0.87539-2.5668 0.67976-4.3766 1.3982-4.022 1.5964 0.35483 0.1983 2.7453-0.19563 5.3121-0.87539zm-170.32-95.129c0.16741-0.29954-0.68054-1.8495-1.8844-3.4444-2.1019-2.7846-2.1298-2.7718-0.70284 0.32192 1.5618 3.3862 2.0862 4.0191 2.5872 3.1225zm194.52 106.35c2.9062-1.6976 2.1676-2.7002-1.9254-2.6137-2.2843 0.04831-2.3571 0.1785-0.65481 1.1717 1.7023 0.9932 1.6295 1.1234-0.6548 1.1717-1.6144 0.03415-1.991 0.38663-1.0127 0.94815 0.85681 0.49095 2.7679 0.18654 4.2477-0.67786zm-208.11-119.62c0.97904-0.48948 0.93644-0.83684-0.10252-0.83495-0.97852 2e-3 -1.6741-0.94943-1.5454-2.1145 0.12841-1.1648 0.96286-2.1192 1.8543-2.1209 0.89155-2e-3 1.2597 0.64325 0.81824 1.4331-1.9982 3.5755 2.0927 0.329 5.3549-4.2497 2.835-3.9788 3.179-5.1936 1.5642-5.5212-1.3156-0.2669-2.7352 1.0796-3.8944 3.6938-1.0032 2.2626-2.0303 3.4998-2.2821 2.7495-0.25187-0.75037-1.9425-0.27481-3.7569 1.0568-3.2341 2.3733-3.2257 2.8598 0.11292 6.5263 0.11007 0.12104 0.95478-0.15717 1.8768-0.61827zm193.85 107.33c-0.19555-0.58271-1.4378-0.80449-2.7604-0.49282-1.9114 0.45042-1.8384 0.66782 0.35564 1.0595 1.5182 0.27104 2.6003 0.01602 2.4048-0.56669zm13.498 5.3245c-0.25105-1.1974-0.3367-3.1481-0.19061-4.335 0.15146-1.23-0.55233-0.79671-1.6367 1.0074-1.3156 2.1901-1.2576 3.5257 0.19048 4.3349 1.4944 0.83514 1.9626 0.54696 1.6368-1.0073zm3.9943-1.4965c-0.1933-3.2251-0.98554-2.6702-1.3872 0.97204-0.14282 1.2944 0.15003 2.2585 0.6509 2.1425 0.50075-0.11605 0.83113-1.5181 0.73626-3.1145zm-81.53-79.443c2.197-4.5158 0.16216-1.3572-4.5221 7.019-4.6819 8.3776-6.4816 12.071-3.9945 8.2106 2.487-3.8606 6.3195-10.714 8.5125-15.232zm97.586 56.395c15.272-15.685 24.63-28.304 30.635-41.31 5.3591-11.608 7.6061-19.396 5.4519-18.897-0.54128 0.1254-1.7698 3.1674-2.73 6.7601-3.9992 14.962-16.295 32.79-37.289 54.064-4.6514 4.7134-7.8265 8.9763-8.0868 10.857-0.38758 2.8018-0.20515 2.7822 1.9172-0.2055 1.2901-1.8161 5.8361-6.8868 10.102-11.268zm-215.84-109.11c-0.19963-2.2645-3.4942-1.1763-5.145 1.6992-0.81657 1.421-0.45542 1.5834 2.1689 0.97528 1.734-0.40188 3.0706-1.6029 2.9761-2.6745zm91.875 30.219c1.4449-3.2096-0.17222-0.82664-3.5936 5.2954-3.4214 6.1221-4.6036 8.7481-2.6271 5.8356 1.9764-2.9126 4.7757-7.9215 6.2207-11.131zm-90.811-35.782c0.60173-2.5781-0.43706-6.1423-1.3264-4.551-0.55681 0.99633-0.38839 6.692 0.20761 7.025 0.26346 0.14724 0.76692-0.96605 1.1187-2.474zm100.62 54.429c0.11043-1.1649-0.35038-1.0581-1.175 0.27231-0.74693 1.2035-0.82822 2.0662-0.18196 1.9165 0.64627-0.14976 1.2569-1.1347 1.3566-2.189zm-98.049-61.976c-1.2975-2.2975-0.67431-7.3148 1.5435-12.426 0.9825-2.2646 0.86714-2.3647-1.3563-1.1767-1.7511 0.9355-2.4194 2.6535-2.3916 6.1468 0.0214 2.6667-0.79436 5.6739-1.8124 6.6829-1.5906 1.5761-1.3808 1.8613 1.4904 2.0257 1.8379 0.10519 2.9749-0.45825 2.5265-1.2523zm104.97 49.63c0.31011-1.3228-0.34179-0.83532-1.4485 1.0833-1.1068 1.9186-1.3604 3.0009-0.5637 2.4051 0.79671-0.59577 1.7022-2.1655 2.0118-3.4886zm112.55 59.12c0.11043-1.1649-0.35037-1.0581-1.1752 0.27223-0.74693 1.2035-0.82807 2.0663-0.18182 1.9165 0.64626-0.14978 1.2569-1.1347 1.3566-2.189zm-123.44-75.973c0.30997-1.3228-0.34192-0.8354-1.4486 1.0832-1.1068 1.9186-1.3604 3.0009-0.5637 2.4051 0.79672-0.59578 1.7022-2.1656 2.0118-3.4886zm-90.643-52.992c0.0923-1.0055-0.56887-0.51011-1.4692 1.101-0.90037 1.6111-0.97584 2.4338-0.1678 1.8283 0.80804-0.60553 1.5447-1.9237 1.637-2.9292zm148.44-13.912c7.808-14.453 1.0838-2.8155-14.943 25.862-16.026 28.677-22.415 40.502-14.196 26.279 8.2185-14.224 21.331-37.687 29.139-52.14zm75.439 131.34c0.0923-1.0055-0.56888-0.51013-1.4692 1.1009-0.90037 1.6111-0.97584 2.4338-0.16778 1.8283 0.80803-0.60553 1.5447-1.9237 1.637-2.9292zm-221.89-125.52c-0.47139-1.4045-0.89491-1.0408-1.423 1.2217-0.4292 1.8393-0.14123 2.6972 0.67132 1.9998 0.78267-0.6719 1.1214-2.1212 0.7517-3.2214zm5.9576-12.057c0.50597-1.6299-0.27049-0.86104-1.7253 1.7087-1.4551 2.5696-1.8689 3.9033-0.91988 2.9635 0.94883-0.93983 2.1392-3.0423 2.6456-4.672zm224.94 122.78 0.8887-4.6621-2.7765 5.3676c-3.0946 5.9823-3.5827 9.7885-0.80141 6.2485 0.99035-1.2606 2.2005-4.3899 2.6892-6.9541zm-119.28-87.58c1.4448-3.2096-0.17223-0.82663-3.5936 5.2954-3.4214 6.1221-4.6036 8.7481-2.6271 5.8356 1.9764-2.9126 4.7757-7.9215 6.2207-11.131zm-96.109-48.586c2.1625-3.5274-0.62494-2.0205-3.5976 1.9448-2.1215 2.83-2.1724 3.2544-0.23254 1.937 1.3664-0.92777 3.0899-2.6747 3.8301-3.8819zm130.71 50.303c2.0124-4.1941 0.12088-1.2997-4.2035 6.432-4.3217 7.7332-5.9708 11.163-3.6588 7.6257 2.3119-3.5376 5.85-9.8636 7.8577-14.06zm-126.71-55.11c0.34925-1.4962 1.116-2.4516 1.7041-2.1229s2.8636-0.9944 5.0567-2.9401c2.193-1.9458 6.0717-4.6748 8.6192-6.0645 4.4856-2.4471 6.0339-5.5689 2.7588-5.5628-0.88305 2e-3 -1.5501 0.63045-1.4825 1.3974 0.10963 1.244-7.9436 7.4497-10.409 8.021-4.4989 1.0425-6.5826 2.6757-7.3345 5.7486-0.47264 1.931-0.56421 3.6758-0.20358 3.8774 0.36063 0.20154 0.9414-0.85777 1.2911-2.3537zm220.99 114.77c-0.19331-3.2251-0.98554-2.6702-1.3872 0.97207-0.14281 1.2944 0.15002 2.2585 0.65091 2.1425 0.50074-0.11604 0.83112-1.5181 0.73626-3.1145zm3.6593-0.34834c-0.47139-1.4045-0.89503-1.0409-1.423 1.2216-0.42921 1.8393-0.14123 2.6973 0.67118 1.9997 0.78267-0.67189 1.1214-2.1213 0.75183-3.2213zm1.1858-11.882c0.12275-3.83-0.23054-7.2172-0.78487-7.527-0.55448-0.30987-0.93448 2.8887-0.84467 7.1077 0.20296 9.5358 1.3282 9.8253 1.6295 0.41924zm-3.7418 1.1739c-0.63226-1.8606-0.85556-1.8088-1.0888 0.25231-0.16134 1.4263 0.19664 2.4797 0.79541 2.3409 0.59891-0.13873 0.73085-1.3057 0.29334-2.5932zm-0.28634-7.4833c-0.0204-2.5733 0.46478-4.93 1.0785-5.2368 0.61363-0.30687 0.94687-1.6572 0.74008-3.0009-0.30636-1.9918-0.45326-1.9893-0.79546 0.0133-0.23085 1.351-0.56599 2.3745-0.74479 2.2746-0.17881-0.0999-2.3707-6.0638-4.8708-13.253-2.5002-7.1892-5.6224-14.508-6.9383-16.263-1.9186-2.5599-1.9228-2.2326-0.0208 1.652 4.907 10.022 8.9492 22.436 9.7936 30.075 0.98921 8.9498 1.8137 10.703 1.758 3.7394zm-173.88-118.45 9.077-1.6452-7.983 0.65199c-10.194 0.83253-14.509 1.8295-22.215 5.1329-5.582 2.3927-5.2802 2.4018 2.9081 0.0876 5.0251-1.4202 13.221-3.3225 18.213-4.2273zm70.66 31.267c1.6414-3.551 0.0349-1.1852-3.5698 5.2572-3.6014 6.4443-4.9478 9.3477-2.9845 6.4562 1.9635-2.8914 4.9129-8.1624 6.5613-11.71zm52.095-8.6097c12.9-23.4 18.63-34.68 15.36-30.241-4.6721 6.3422-37.288 66.806-36.327 67.344 0.21546 0.12041 9.6507-16.576 20.967-37.102zm-101.57-24.45c-0.30208-0.89988-10.797-0.67587-11.309 0.24138-0.14341 0.25662 2.4119 0.51388 5.6785 0.5717 3.2666 0.0578 5.8004-0.3081 5.6309-0.81308zm131.01 69.731c-1.7933-2.6227-3.8411-5.093-4.5506-5.4895-0.70966-0.3966 0.17708 1.4248 1.9706 4.0476 1.7933 2.6227 3.8411 5.093 4.5506 5.4895 0.70966 0.3966-0.17709-1.4248-1.9706-4.0476zm-119.65-67.638c2.2886 0.0704 3.5805-0.19648 2.871-0.593-0.70967-0.39661-3.1626-0.77857-5.4512-0.84897-2.2886-0.0704-3.5805 0.19648-2.871 0.59301 0.70953 0.39653 3.1626 0.77858 5.4512 0.84896zm74.418 23.563c1.2676-2.9082-0.0564-1.0716-2.9423 4.0812-2.8812 5.1554-3.9229 7.5322-2.3047 5.2876 1.6182-2.2447 3.9793-6.4606 5.2516-9.3661zm-29.839-4.3194c0.11057-1.1648-0.35038-1.0581-1.175 0.27232-0.74693 1.2035-0.82821 2.0662-0.18193 1.9165 0.64638-0.1497 1.2569-1.1347 1.3566-2.189zm-26.172-15.827c0.34884-0.6242-0.40629-1.3182-1.6778-1.542-1.2717-0.22387-2.4279-0.19983-2.5694 0.0534-0.14153 0.25326 0.61346 0.94715 1.6778 1.542 1.0642 0.59475 2.2206 0.57077 2.5694-0.0534zm5.2272 1.944c-0.21108-0.62891-1.3006-1.2924-2.4211-1.4744-1.2382-0.20114-1.0877 0.24735 0.3838 1.1435 1.3316 0.81094 2.2484 0.95984 2.0373 0.33093zm12.39 4.7782c0.97575 0.54531 2.1668 0.28836 2.647-0.57088 0.4802-0.85925 0.0279-2.0346-1.0052-2.612-1.0331-0.57736-1.815-0.32868-1.7372 0.55274 0.083 0.94176-0.77474 0.76145-2.0801-0.43722-1.2218-1.1219-3.7737-1.8809-5.671-1.6867-3.2025 0.32769-3.1086 0.47509 1.3115 2.0578 2.6187 0.93773 5.5595 2.151 6.5351 2.6963zm32.676-3.6095c1.2676-2.9082-0.0564-1.0716-2.9423 4.0811-2.8812 5.1554-3.9229 7.5322-2.3047 5.2876s3.9793-6.4606 5.2516-9.3661zm-1.112-25.264c1.6302-3.5288-0.12999-0.87991-3.9115 5.8866-3.7815 6.7665-5.1153 9.6538-2.964 6.4161 2.1514-3.2376 5.2454-8.7738 6.8755-12.303zm15.622 26.443c0.3101-1.3228-0.34179-0.83532-1.4486 1.0832-1.1068 1.9186-1.3603 3.0009-0.56355 2.4052 0.79671-0.59577 1.7022-2.1655 2.0118-3.4886zm-6.6766-15.275c0.50597-1.6299-0.2705-0.86104-1.7255 1.7086-1.4552 2.5696-1.8687 3.9034-0.91975 2.9636 0.94883-0.93984 2.1392-3.0423 2.6456-4.672zm10.237 8.8744c0.11043-1.1649-0.35038-1.0581-1.1752 0.27224-0.74692 1.2035-0.82809 2.0663-0.18182 1.9165 0.64627-0.14979 1.2569-1.1347 1.3566-2.189zm27.908-27.169c6.2722-10.449 9.6382-16.871 7.4799-14.271-3.9325 4.7367-21.033 33.913-19.63 33.493 0.41036-0.12305 5.878-8.7727 12.15-19.221zm-1.2554-23.382c1.8149-3.8485-0.0889-0.93386-4.2306 6.4771-4.1417 7.4109-5.6265 10.56-3.2997 6.9973 2.3269-3.5624 5.7155-9.6258 7.5303-13.474zm17.39-8.3485c5.9793-9.9666 8.8302-15.528 6.7382-13.148-3.4392 3.9137-20.496 33.304-18.193 31.349 0.60065-0.51002 5.7553-8.7003 11.455-18.2zm-36.438-6.1405c0.50284-1.6218-0.41174-0.57608-2.0324 2.3238-1.6206 2.8999-2.0321 4.2269-0.91424 2.9487 1.1178-1.2781 2.4438-3.6508 2.9466-5.2726zm11.218-24.111c6.5447-10.751 9.2384-15.924 6.817-13.092-4.3278 5.062-20.074 31.431-18.559 31.08 0.50689-0.11743 5.7906-8.2121 11.742-17.988zm42.262-3.2782c4.9275-8.2403 7.8167-13.891 6.4194-12.558-1.397 1.3335-6.2021 9.0272-10.678 17.097-9.9534 17.947-7.841 15.694 4.2585-4.5394zm-25.963-18.738c1.259-2.8906-0.21551-0.77394-3.2767 4.7037s-4.0914 7.8427-2.2891 5.2556c1.8022-2.587 4.3069-7.0687 5.5659-9.9593zm27.244-6.3013c2.7321-5.4501 0.10562-1.2095-5.8368 9.4235-5.9424 10.633-8.1778 15.092-4.9676 9.9093 3.2103-5.1829 8.0722-13.883 10.804-19.333zm-21.667-9.7812c0.69881-1.9468-0.21067-0.9077-2.021 2.3091-1.8139 3.2148-2.3822 4.8095-1.2706 3.5396 1.1115-1.27 2.5928-3.9019 3.2912-5.8489zm37.75 0.70234c5.1518-8.5378 8.072-14.171 6.4874-12.52-2.8088 2.9297-19.119 30.808-16.948 28.969 0.60146-0.50957 5.3088-7.9119 10.461-16.45zm-26.669-17.211c6.2464-11.344 4.6011-9.8809-3.71 3.2995-3.3494 5.3118-5.0496 8.8591-3.7797 7.8823 1.2706-0.97647 4.641-6.0082 7.4898-11.182zm18.338 12.17c0.0923-1.0055-0.56886-0.51012-1.4692 1.101-0.90036 1.6111-0.97583 2.4338-0.1678 1.8283 0.80805-0.60555 1.5447-1.9237 1.637-2.9292zm-12.843-16.403c0.0923-1.0055-0.56887-0.51013-1.4692 1.101-0.90036 1.6111-0.97583 2.4338-0.16779 1.8283 0.80805-0.60554 1.5447-1.9237 1.637-2.9292zm5.6281-9.9034c0.6988-1.9468-0.21067-0.90771-2.0212 2.309-1.8139 3.2148-2.3821 4.8096-1.2706 3.5396 1.1117-1.2699 2.5929-3.9018 3.2912-5.8489zm24.192 11.21c0.50584-1.63-0.2705-0.86105-1.7254 1.7086-1.4551 2.5696-1.8689 3.9033-0.91989 2.9635 0.94898-0.93978 2.1394-3.0423 2.6456-4.672zm-65.108-35.599c-5.0963-3.7802-5.7596-6.7142-0.90471-4.001 4.16 2.3249 7.8818 1.7162 13.306-2.176 2.759-1.9799 3.2719-3.2382 3.0631-7.514-0.22819-4.669-0.77281-5.3982-5.992-8.0215-6.4108-3.2222-14.45-3.1894-15.499 0.0631-0.37347 1.1578-1.285 1.7664-2.0256 1.3525-1.7314-0.96763-4.1726 3.3324-2.9888 5.2645 0.49493 0.80781 0.37885 1.7292-0.25796 2.0475-1.2848 0.6424 0.45688 5.6343 2.9023 8.3186 0.86572 0.95025 3.917 2.9881 6.7808 4.5286 4.2358 2.2784 4.5372 2.3042 1.6162 0.13747zm55.008 30.322c0.36015-0.64444 0.0742-1.4961-0.63528-1.8927-0.70955-0.39653-1.5848-0.19374-1.9449 0.4507-0.36014 0.64441-0.0742 1.4961 0.6353 1.8927 0.70953 0.39653 1.5848 0.19372 1.9449-0.4507zm7.7407 4.3259c0.36015-0.64444 0.0742-1.4962-0.6353-1.8927-0.70953-0.39653-1.5848-0.19374-1.9449 0.4507-0.36013 0.64442-0.0742 1.4961 0.6353 1.8927 0.70954 0.39653 1.5848 0.19372 1.9449-0.45069zm-15.435-9.555c-0.21109-0.6289-1.3006-1.2924-2.4209-1.4743-1.2382-0.20114-1.0877 0.24732 0.3838 1.1435 1.3316 0.81094 2.2482 0.95978 2.0371 0.33086zm-24.462-28.164c-0.10721-4.6886-1.6371-3.816-1.7978 1.0256-0.0729 2.1957 0.31902 3.6136 0.87081 3.1507 0.55178-0.46279 0.96889-2.3421 0.92695-4.1763zm9.0026 9.6905c-2.5803-2.0477-3.8896-3.3732-2.9097-2.9456 0.9799 0.42766 1.7175 0.0497 1.6391-0.83982-0.0783-0.88945 0.47231-1.2737 1.2238-0.85371 0.75146 0.41996 1.0715 1.2908 0.71138 1.9352-0.36015 0.64444 0.216 1.6583 1.2804 2.2532 1.0644 0.59483 2.3304 0.37421 2.8135-0.49021 0.61702-1.1041-1.1226-2.7233-5.847-5.4422-5.1434-2.96-6.0921-3.222-4.0335-1.1136 1.8059 1.8494 1.9273 2.38 0.36894 1.6119-1.2776-0.62978-2.765-0.35405-3.3052 0.61259-0.76015 1.3602 0.57008 2.5757 5.8838 5.3765l6.866 3.6189zm23.969 9.1961c0.3101-1.3228-0.34179-0.83533-1.4486 1.0832-1.1068 1.9185-1.3603 3.0009-0.56356 2.4052 0.7967-0.59579 1.7022-2.1656 2.0118-3.4886zm7.7406 4.3259c0.31009-1.3228-0.34179-0.83533-1.4486 1.0832-1.1068 1.9186-1.3603 3.0009-0.56356 2.4052 0.79671-0.59579 1.7022-2.1656 2.0118-3.4886zm1.2758-8.9264c0.48019-0.85924 0.27023-2.1875-0.46671-2.9517-0.79699-0.82651-1.9146-0.36097-2.7586 1.1492-0.84398 1.5102-0.65485 2.706 0.46672 2.9517 1.0371 0.22719 2.2784-0.28999 2.7586-1.1492zm56.655 32.453c3.3322-0.18997 3.6813 0.0398 3.4363 2.2617-0.44088 3.9973 2.8472 1.4284 5.8716-4.5874 3.4313-6.8248 3.3115-7.5643-2.2341-13.795-5.82-6.5387-10.782-8.1232-14.666-4.6836-5.0098 4.4356-5.9842 9.2473-2.8842 14.242 3.4028 5.483 5.5714 6.8412 10.477 6.5616zm-63.731-39.483c0.36015-0.64445 0.04-1.5153-0.71137-1.9352-0.75147-0.41996-1.3022-0.0358-1.2238 0.85372 0.0784 0.88952 0.39862 1.7604 0.71152 1.9353s0.8635-0.20936 1.2236-0.85378zm40.687 21.11c0.38139-0.68245 0.11475-1.2398-0.59237-1.2384-0.70724 1e-3 -3.4922-1.7608-6.1891-3.9158-3.6885-2.9475-5.2897-3.6175-6.4627-2.7044-1.1956 0.93061 0.0867 2.1339 5.4956 5.1567 4.1054 2.2944 7.345 3.424 7.7486 2.702zm-32.985-24.401c0.7504-0.37515 0.18747-1.238-1.2508-1.9175-1.4383-0.67942-2.5642-0.65857-2.5021 0.0463 0.15328 1.739 2.0881 2.7037 3.7529 1.8712zm23.346 13.563c-0.21109-0.62891-1.3006-1.2924-2.421-1.4745-1.2382-0.20113-1.0876 0.2474 0.38394 1.1436 1.3314 0.81086 2.2482 0.95977 2.0371 0.33086zm-21.155-25.886c0.30587-1.309-0.47535-0.53472-1.7359 1.7208-1.2605 2.2555-1.5106 3.3266-0.55598 2.3801 0.95476-0.94641 1.9861-2.7918 2.2918-4.1009zm2.4607 7.1413c-0.0784-0.88953 0.47231-1.2737 1.2238-0.85371 0.75134 0.41989 1.9618-0.46049 2.6899-1.9564 1.0616-2.1814 0.96686-2.3642-0.47861-0.92339-1.0753 1.072-2.4037 1.1188-3.2936 0.11599-1.1935-1.3449-1.4773-1.0654-1.421 1.3994 0.0387 1.694 0.37458 3.25 0.7463 3.4577 0.37171 0.20774 0.61165-0.35011 0.53349-1.2395zm-44.624-31.471c6.4451-0.76935 11.568-12.17 7.3723-16.406-5.953-6.0112-18.189-6.1352-21.935-0.22237-2.5205 3.9784-1.6854 10.479 1.3454 10.473 0.99619-2e-3 2.5324 1.1024 3.414 2.4539 1.6728 2.5644 5.9138 4.1659 9.8028 3.7017zm14.683 2.8042c0.60781-0.30393 0.8545-2.0281 0.54828-3.8316-0.53021-3.1217-0.64153-3.1278-2.3192-0.12592-1.6594 2.9693-0.67078 5.1784 1.7709 3.9575zm83.644 39.298c-0.21109-0.6289-1.3006-1.2924-2.421-1.4745-1.2382-0.20112-1.0877 0.24733 0.3838 1.1435 1.3316 0.81094 2.2483 0.95984 2.0372 0.33094zm5.1604 2.884c-0.21109-0.62891-1.3006-1.2924-2.421-1.4745-1.2382-0.20112-1.0877 0.24733 0.38382 1.1435 1.3316 0.81093 2.2483 0.95984 2.0372 0.33094zm-50.204-34.816c1.0053 0.56181 1.5156 1.5798 1.1342 2.2623s0.0817 1.2394 1.029 1.2377c0.94735-2e-3 1.664-0.66571 1.5926-1.4754-0.0713-0.80962 1.0939-2.1864 2.5886-3.06 1.8336-1.0712 2.2837-1.8308 1.3825-2.3344-0.73458-0.41053-0.89347-1.5372-0.35325-2.5039s0.11129-2.2442-0.95295-2.839c-1.0644-0.59483-1.6405-1.6087-1.2803-2.2532 0.36013-0.64442 0.0742-1.4962-0.63531-1.8927-1.7409-0.97293-5.7883 6.4864-4.9215 9.0696 0.49729 1.4816 0.1749 2.0585-1.1518 2.061-1.0134 2e-3 -2.1476 0.65699-2.5205 1.4558-0.48855 1.0474-0.26818 1.1453 0.79111 0.3515 0.80804-0.60554 2.2916-0.64134 3.2968-0.0796zm61.972 35.316c1.4581-0.23393 5.6717-7.6951 5.6688-10.038-4e-3 -3.2326-5.3295-8.9063-11.704-12.469-5.2167-2.9154-6.4964-2.5334-5.2851 1.578 0.59487 2.0192 0.40198 2.1293-1.038 0.59336-2.4117-2.5724-4.3676-0.69625-5.3287 5.1116-0.94009 5.6814 1.7707 8.8472 10.887 12.714 3.3872 1.4368 6.4471 2.5662 6.7996 2.5096zm-53.295-33.876c-0.45592-1.3581-1.0181-1.7632-1.4284-1.029-0.87402 1.5639-0.12265 3.8023 1.1753 3.5014 0.55277-0.12801 0.66719-1.2404 0.25319-2.4725zm18.973 10.936c-2.2181-1.8627-3.4877-3.173-2.8212-2.9119 1.7786 0.69688 0.2452-4.6783-1.6342-5.7286-1.0092-0.56403-1.9744 0.31343-2.6188 2.3805-0.92364 2.9634-0.44554 3.5759 5.0433 6.4602 5.9963 3.151 6.019 3.1488 2.0309-0.20021zm6.4896-2.5238c1.9271-0.0407 1.4404-0.68555-1.9454-2.5778-3.386-1.8923-4.1901-1.9688-3.215-0.30617 0.71526 1.2195 1.5906 2.3795 1.9455 2.5778 0.35469 0.19822 1.8015 0.33604 3.215 0.30616zm-33.018-43.412c-0.56528-1.6842-1.258-1.2368-2.9135 1.8816-2.0398 3.842-1.9944 3.9766 0.74168 2.2095 2.1541-1.3913 2.7201-2.4574 2.1721-4.0909zm30.879 16.946c0.15663-0.28026 0.47302-2.166 0.70308-4.1906 0.27412-2.4118-0.37587-3.8208-1.8851-4.0866-2.0263-0.35675-2.2483 0.0708-1.8451 3.5524 0.39876 3.4418 2.1854 6.2304 3.0269 4.7246zm-25.81-26.058c2.0469-3.0851 3.3561-5.8131 2.9104-6.0617-1.1173-0.62328-9.0691 7.5214-8.9263 9.1428 0.28722 3.2596 2.5925 2.0789 6.0159-3.0811zm33.304 19.707c1.8198-5.7773 1.6395-9.7751-0.29073-6.4456-2.4825 4.281-3.9561 10.65-2.4647 10.647 0.78802-2e-3 2.028-1.8921 2.7554-4.2013zm-42.562-20.267c0.7987-0.39933 0.83729-1.0697 0.086-1.4896-0.75147-0.41996-1.661-0.23631-2.0211 0.40811-0.36014 0.64443-0.39874 1.3148-0.0858 1.4896 0.31291 0.17488 1.2223-9e-3 2.021-0.40817zm50.082 21.838c0.34911-1.4963 0.41231-2.8448 0.14029-2.9969s-1.0839 0.77809-1.8042 2.067c-0.72029 1.2889-0.7835 2.6374-0.14029 2.9969 0.64308 0.35939 1.455-0.57074 1.8042-2.067zm-31.413-25.475 3.8299-5.0108-4.6384-0.84103c-4.3508-0.78885-4.5114-0.68292-2.5926 1.7088 1.408 1.7548 1.4304 3.6508 0.0722 6.0811-2.7414 4.9053-1.2288 4.0246 3.3288-1.938zm-14.095-3.0325c0.36014-0.64443 0.0401-1.5152-0.71137-1.9352s-1.3022-0.0358-1.2238 0.85372c0.0784 0.88953 0.39861 1.7604 0.71151 1.9353s0.86349-0.20936 1.2236-0.85379zm5.8734-1.4212c0.79772-1.4274-5.2638-4.8315-7.0303-3.9482-0.74159 0.37081-0.14334 1.6056 1.3294 2.7438 3.099 2.3953 4.8309 2.7611 5.7009 1.2043zm33.034 14.642c0.13565-1.2292-0.1706-2.1383-0.68034-2.0202-0.50985 0.11812-0.85856 0.99099-0.77496 1.9397 0.22732 2.5803 1.1738 2.6327 1.4553 0.0805zm-23.339-18.358c0.7987-0.39932 0.83729-1.0697 0.086-1.4896-0.75146-0.41996-1.661-0.23631-2.0211 0.4081-0.36015 0.64443-0.39875 1.3148-0.0858 1.4897 0.3129 0.17487 1.2223-9e-3 2.021-0.40819zm-4.1815 25.981c0.15564-1.4105 0.74326-1.7851 1.5265-0.97282 1.6022 1.6616 1.1758 4.918-0.51992 3.9703-0.69279-0.38717-1.1458-1.736-1.0066-2.9975zm5.4849 1.9117c1.6314-1.7874 1.9953-2.8842 0.95603-2.8823-3.0554 6e-3 -2.0757-6.0502 1.5254-9.428l3.3469-3.1396-2.6604 5.4326-2.6605 5.4325 3.2423-3.5698c2.6787-2.9494 3.003-3.0354 1.8658-0.49491-1.2893 2.8798-1.2161 2.9694 1.1538 1.4136 1.8324-1.2029 1.538-0.34778-1.0667 3.1002-1.9783 2.6188-4.6634 5.2698-5.9667 5.8912-1.8115 0.86376-1.7493 0.45024 0.26414-1.7555zm-11.235-5.5772c0.31604-0.56552 1.9449-1.2121 3.6197-1.4368 2.7611-0.37049 2.7635-0.24337 0.0251 1.3634-3.1234 1.8325-4.645 1.8631-3.6448 0.0734zm20.412-25.165c1.0687 0.17069 2.52 0.9818 3.2253 1.8025 0.70537 0.82075-0.16902 0.68111-1.9429-0.31025-1.7739-0.99136-2.3509-1.6628-1.2824-1.4922z" stroke-width="1.4084"/> </g> </svg>