<?xml version="1.0" encoding="UTF-8"?>
<svg enable-background="new 0 0 221.04 72" viewBox="0 0 221.04 72" xmlns="http://www.w3.org/2000/svg">
 <path d="m119.52,12.24h.96c.102.501-.164.635-.24.96-.632.072-.787-.332-.72-.96z" fill-rule="evenodd"/>
 <path d="m121.44,12.72c.422.058.547.413.48.96-.419-.217-.924-.537-.48-.96z" fill-rule="evenodd"/>
 <path d="m122.64,12.72c.903.057.936.984 1.2,1.68-.911-.049-.831-1.089-1.2-1.68z" fill-rule="evenodd"/>
 <path d="m126,12.96c1.084.755.961,2.718 1.68,3.84-1.176-.664-1.413-2.267-1.68-3.84z" fill-rule="evenodd"/>
 <path d="m124.56,13.2c.979.22 1.059,1.341 1.2,2.4-.746-.454-.928-1.471-1.2-2.4z" fill-rule="evenodd"/>
 <path d="m200.64,16.32c-.982.811-1.886-.505-2.64-.72 .424-.934 1.889.466 2.64.72z" fill-rule="evenodd"/>
 <path d="m196.8,16.56c.006-.233.294-.187.479-.24 1.677.803 3.618,1.342 4.8,2.64-1.957-.602-3.413-1.706-5.279-2.4z" fill-rule="evenodd"/>
 <path d="m196.32,17.52c.538.263 1.203.397 1.681.72-.181.319-1.868.122-1.681-.72z" fill-rule="evenodd"/>
 <path d="m198.24,18.72c1.485-.123 3.739,1.059 4.8,2.16-1.864-.456-3.106-1.534-4.8-2.16z" fill-rule="evenodd"/>
 <path d="m196.32,19.44c.783-.983 1.729.369 2.4.72 1.435.75 4.165.938 4.319,2.64-1.883-1.476-4.425-2.293-6.719-3.36z" fill-rule="evenodd"/>
 <path d="m196.32,20.88c1.222-.153 2.765.628 4.08,1.2 1.285.558 2.883,1.169 3.601,2.16-2.751-.931-5.163-2.199-7.681-3.36z" fill-rule="evenodd"/>
 <path d="m196.32,22.08c3.016.745 5.475,2.045 7.92,3.36-1.052.797-2.547-.858-3.84-1.44-1.465-.66-3.383-.67-4.08-1.92z" fill-rule="evenodd"/>
 <path d="m126.24,24c.092-.457.306.153.24.48-.092.457-.306-.153-.24-.48z" fill-rule="evenodd"/>
 <path d="m135.12,28.08c.97.401.121,1.673 1.44.72 .269,1.069-.737.863-1.2,1.2 .216.904.299,1.941.72,2.64-.213-.187-.542-.258-.96-.24-.237-2.029.118-2.99 0-4.32z" fill-rule="evenodd"/>
 <path d="m134.16,28.56c.276-.776.272.645.24.96-.276.776-.272-.645-.24-.96z" fill-rule="evenodd"/>
 <path d="m194.64,28.32h.479v.48h-.479v-.48z" fill-rule="evenodd"/>
 <path d="m195.6,28.32h.479v.48h-.479v-.48z" fill-rule="evenodd"/>
 <path d="m11.76,30c.062-.562 1.054-.138 1.2,0-.204.704-.604-.312-1.2,0z" fill-rule="evenodd"/>
 <path d="m178.08,32.64c.17.894.556,3-.479,3.12-.143-1.341.549-1.85.479-3.12z" fill-rule="evenodd"/>
 <path d="m179.52,32.88c.196.212.084,2.153-.24,2.64-.939-.129.303-1.829.24-2.64z" fill-rule="evenodd"/>
 <path d="m176.64,33.12c.664.209.178,2.711-.48,3.12-.234-1.433.565-1.835.48-3.12z" fill-rule="evenodd"/>
 <path d="m130.56,33.6c.176-.427.437-.035.72,0 .518,2.123 2.055,3.225 2.4,5.52-.848-.498-1.24-1.756-1.68-2.64-.472-.95-.947-1.953-1.44-2.88z" fill-rule="evenodd"/>
 <path d="m137.04,33.36c1.379,1.022 1.949,2.851 2.4,4.8-.918-1.482-1.814-2.986-2.4-4.8z" fill-rule="evenodd"/>
 <path d="m129.36 33.84c1.271 1.529 2.347 3.253 2.88 5.521-1.216-1.585-2.266-3.335-2.88-5.521z" fill-rule="evenodd"/>
 <path d="m132.72,33.84c1.277,1.068 2.328,3.557 2.399,5.04-.878-1.601-1.967-2.992-2.399-5.04z" fill-rule="evenodd"/>
 <path d="m195.36,34.08c.537.104.098,1.183.24,1.68-1.271-.007-.229-.934-.24-1.68z" fill-rule="evenodd"/>
 <path d="m192,34.32v.96c-.948.166-.786-1.01 0-.96z" fill-rule="evenodd"/>
 <path d="m12.48,34.56c1.136-.332 1.452.877.96,1.44-1.02.22-1.025-.575-.96-1.44z" fill-rule="evenodd"/>
 <path d="m184.32,34.56c.102.501-.164.635-.24.96-.696-.043-.579-1.141.24-.96z" fill-rule="evenodd"/>
 <path d="m188.88,34.56h.479v.48h-.479v-.48z" fill-rule="evenodd"/>
 <path d="m126.72 35.28c1.383 1.017 1.915 2.885 2.64 4.56-1.304-1.097-1.706-3.094-2.64-4.56z" fill-rule="evenodd"/>
 <path d="m128.88,35.28c.538.262.422,1.178.96,1.44-.42.558-1.121-.623-.96-1.44z" fill-rule="evenodd"/>
 <path d="m125.76,36c.836,1.403 1.786,2.694 1.92,4.8-.925-1.187-1.888-3.509-1.92-4.8z" fill-rule="evenodd"/>
 <path d="m124.08,36.24c1.186,1.295 1.746,3.214 2.4,5.04-.949-.371-1.018-1.735-1.44-2.641-.388-.829-1.412-1.562-.96-2.399z" fill-rule="evenodd"/>
 <path d="m141.6,36.24c.75-.11.768.513.72,1.2-.421-.219-.834-.446-.72-1.2z" fill-rule="evenodd"/>
 <path d="m122.4,36.72c1.03,1.129 1.63,2.69 2.16,4.32-1.063-.97-2.306-2.93-2.16-4.32z" fill-rule="evenodd"/>
 <path d="m200.64,42.48c-1.769-1.673-3.185-3.695-5.28-5.04 .569-.834 1.491.586 2.16,1.199 1.112,1.023 2.658,2.101 3.12,3.841z" fill-rule="evenodd"/>
 <path d="m120.96,37.44c1.312.207.937,2.103 1.439,3.119-.811-.707-1.236-1.801-1.439-3.119z" fill-rule="evenodd"/>
 <path d="m119.76,37.68c.885,1.305 2.019,3.542 1.92,5.04-.877-1.313-1.779-3.781-1.92-5.04z" fill-rule="evenodd"/>
 <path d="m113.52 37.92c1.84 1.521 2.383 4.338 3.6 6.48-1.82-1.541-2.419-4.3-3.6-6.48z" fill-rule="evenodd"/>
 <path d="m106.8,38.16c.848,2.111 1.933,3.987 2.88,6-1.456-1.505-2.657-3.263-2.88-6z" fill-rule="evenodd"/>
 <path d="m108.48,38.16c.322.158.447.513.48.96-.422-.058-.547-.413-.48-.96z" fill-rule="evenodd"/>
 <path d="m111.84,38.16c.868,1.691 1.797,3.322 2.399,5.28-1.587-.836-2.21-3.836-2.399-5.28z" fill-rule="evenodd"/>
 <path d="m117.6,38.16c.388-.067.413.227.72.24 .139,2.021 1.664,2.655 1.92,4.56-1.33-1.149-1.843-3.117-2.64-4.8z" fill-rule="evenodd"/>
 <path d="m194.88,38.16c1.085.35 1.823,1.529 2.64,2.399 .769.819 2.03,1.648 1.92,2.641-.725-.517-1.069-1.302-1.68-1.92-.861-.872-2.172-1.8-2.88-3.12z" fill-rule="evenodd"/>
 <path d="m104.88,38.4c.77.271.68,1.399.96,2.159-.77-.27-.68-1.399-.96-2.159z" fill-rule="evenodd"/>
 <path d="m130.08,38.64c.098-.598.931-.014.721.48-.533.132-.343-.458-.721-.48z" fill-rule="evenodd"/>
 <path d="m142.56,38.4c.663.141 1.002,1.327.72,1.68-.581-.219-.636-.965-.72-1.68z" fill-rule="evenodd"/>
 <path d="m101.28,38.64c1.203.717 1.061,2.78 1.68,4.08-1.122-.679-1.454-3.29-1.68-4.08z" fill-rule="evenodd"/>
 <path d="m103.44,38.64c.929.432.314,2.406.96,3.12-.782.374-.598-2.276-.96-3.12z" fill-rule="evenodd"/>
 <path d="m139.44,38.64c.304.416.812.629.72,1.44-1.058.338-.65-.79-.72-1.44z" fill-rule="evenodd"/>
 <path d="m197.28,42.24c-1.334-.108-2.315-2.642-4.08-3.12 1.047-.98 3.121,2.065 4.08,3.12z" fill-rule="evenodd"/>
 <path d="m162,39.12c.902.057.936.984 1.199,1.68-.596-.362-1.096-.822-1.199-1.68z" fill-rule="evenodd"/>
 <path d="m193.2,40.08c1.868,1.492 3.676,3.045 4.801,5.28-1.423-.658-1.99-2.171-2.881-3.36-.93-.351-1.834-.726-1.92-1.92z" fill-rule="evenodd"/>
 <path d="m200.88,40.08c.314.085.377.423.72.479 .044.204-.094.227-.24.24h-.479c-.001-.239-.001-.479-.001-.719z" fill-rule="evenodd"/>
 <path d="m100.08,40.32c.632-.072.788.332.72.96-.627.067-1.032-.088-.96-.721 .204.045.226-.092.24-.239z" fill-rule="evenodd"/>
 <path d="m122.4,40.8c.51.24 1.163.969.72,1.44-.743.023-.715-.724-.72-1.44z" fill-rule="evenodd"/>
 <path d="m18.72,41.04c-.422.908-2.037.493-2.16.479-1.306-.137 1.563-.236 2.16-.479z" fill-rule="evenodd"/>
 <path d="m152.4,41.28c.593-.577.982,1.085 1.2,1.68-.781-.179-.729-1.19-1.2-1.68z" fill-rule="evenodd"/>
 <path d="m13.44,41.52c.181-.318 2.346-.602 2.16.24-.929.129-1.172-.428-2.16-.24z" fill-rule="evenodd"/>
 <path d="m151.2,41.76c.695.345.99,1.091 1.2,1.92-.911-.128-1.058-1.023-1.2-1.92z" fill-rule="evenodd"/>
 <path d="m154.32,41.76c.475.166.64.641.72,1.2-.474-.166-.64-.64-.72-1.2z" fill-rule="evenodd"/>
 <path d="m191.28,42.48c-.32.683-1.067-.186-1.439-.24 .328-1.041.988.019 1.439.24z" fill-rule="evenodd"/>
 <path d="m192.48,41.76c.396.323.826.613.96,1.2-.528-.191-.958-.481-.96-1.2z" fill-rule="evenodd"/>
 <path d="m101.52,42c.403,1.139-1.381,1.323-1.2.24 .279-.201.643-.316 1.2-.24z" fill-rule="evenodd"/>
 <path d="m189.12,42.96c1.531.309 1.956,1.725 2.881,2.64-.998.112-2.276-1.561-2.881-2.64z" fill-rule="evenodd"/>
 <path d="m153.36,43.2c.817-.178.396.884.96.96-.402.691-.972-.445-.96-.96z" fill-rule="evenodd"/>
 <path d="m191.76,43.2c1.061.858 2.074,1.765 2.64,3.12-.924-.996-2.308-1.532-2.64-3.12z" fill-rule="evenodd"/>
 <path d="m197.76,43.44c.632-.073.787.332.72.96-.352-.209-.761-.359-.72-.96z" fill-rule="evenodd"/>
 <path d="m104.88,43.92c-.095-.466 1.093-.351.72.24h-.48c.044-.204-.094-.226-.24-.24z" fill-rule="evenodd"/>
 <path d="m185.52,43.68c1.614.627 2.733,1.746 3.36,3.36-1.309-.931-2.646-1.833-3.36-3.36z" fill-rule="evenodd"/>
 <path d="m187.68,43.68c1.613.627 2.733,1.746 3.359,3.36-1.466-.772-2.163-2.316-3.359-3.36z" fill-rule="evenodd"/>
 <path d="m111.6,44.16c-.566.772-.97-.844 0,0z" fill-rule="evenodd"/>
 <path d="m183.84,43.92c1.505.458 2.63,1.826 3.6,2.88 .96,1.043 2.267,2.31 2.64,3.84-1.149.053-1.189-1.08-1.68-1.68-1.441-1.764-3.27-3.131-4.56-5.04z" fill-rule="evenodd"/>
 <path d="m168.96,44.4c1.365.759 2.351,2.272 3.359,3.6 .938,1.234 2.178,2.541 2.4,3.84-2.401-1.997-3.787-5.012-5.759-7.44z" fill-rule="evenodd"/>
 <path d="m182.64,44.4c2.02,1.82 3.779,3.9 5.04,6.479-2.321-1.039-2.537-4.183-4.8-5.28 .119-.752-.828-.633-.24-1.199z" fill-rule="evenodd"/>
 <path d="m171.12 44.64c2.484 2.076 4.206 4.914 6 7.681-2.383-2.178-4.362-4.759-6-7.681z" fill-rule="evenodd"/>
 <path d="m181.68,48c-.865.298-1.594-1.601-2.4-2.16-.272,2.354 2.757,3.482 3.12,6-2.062-1.777-3.41-4.27-4.8-6.72 .654-.175.483.477.96.479 1.604-1.906 1.857,1.794 3.12,2.401z" fill-rule="evenodd"/>
 <path d="m181.44,45.12c1.315.489 2.407,2.315 3.36,3.6 .771,1.04 1.534,1.945 1.92,3.12-1.71-.54-2.101-2.557-3.12-3.84-.701-.882-1.711-1.436-2.16-2.88z" fill-rule="evenodd"/>
 <path d="m174,45.36c.387-.068.413.227.72.239 .573,1.122 1.658,2.185 2.399,3.36 .714,1.133 1.518,2.35 1.681,3.36-1.09-.431-.991-2.05-2.16-2.4-.384-2.016-2.19-2.608-2.64-4.559z" fill-rule="evenodd"/>
 <path d="m161.76,46.08c1.919.641 2.74,2.38 3.359,4.32-1.186-.335-1.297-1.744-1.92-2.641-.165-.872-1.578-.5-1.439-1.679z" fill-rule="evenodd"/>
 <path d="m176.88,46.56c1.398,1.722 2.899,3.341 3.84,5.521-1.002-.542-1.467-1.929-2.16-2.88-.667-.915-1.879-1.629-1.68-2.641z" fill-rule="evenodd"/>
 <path d="m195.12,47.28c.296.104.493.307.48.72-.296-.104-.493-.307-.48-.72z" fill-rule="evenodd"/>
 <path d="m164.88,47.52c.975.673 2.24,2.176 1.92,3.36-1.104-.656-1.531-1.989-1.92-3.36z" fill-rule="evenodd"/>
 <path d="m192,47.52c.841.199 1.123.957 1.439,1.681-.907-.133-1.388-.693-1.439-1.681z" fill-rule="evenodd"/>
 <path d="m160.32,47.76c.687.063 1.051,1.081.72,1.44-.728.008-.598-.842-.72-1.44z" fill-rule="evenodd"/>
 <path d="m92.4,49.2c.742-.022.715.725.72,1.439-.728.008-.598-.841-.72-1.439z" fill-rule="evenodd"/>
 <path d="m180.96,60.96c1.002.16.111,1.49-.48.72 .085-.315.423-.377.48-.72z" fill-rule="evenodd"/>
 <path d="m207.84,37.68c-.772,1.029 1.008,2.44-.24,3.36 .682.686.346-.873 1.439-.48 .182,4.4-1.854,9.586-3.84,13.2-1.362,2.479-2.409,4.901-4.56,6.721-1.027.869-2.487,1.574-3.601,2.399-5.285,3.92-13.795,6.122-22.319,4.32-3.469-.733-6.399-2.044-9.601-3.36-.906-.373-1.927-.955-2.88-1.2-2.599-.668-5.279.269-7.68,0-.378-.716-.811-1.642-.48-2.399-1.26-4.169-7.267-7.162-12.239-8.4-4.827-1.201-12.497-.665-15.12,3.36 1.223,2.863-2.168,3.885-3.601,2.16-6.364-1.29-14.618,3.472-22.56,1.439-1.216-.311-3.086-1.225-4.56-1.92-4.35-2.052-8.206-5.876-9.6-11.04-.213-.788-.091-1.633-.24-2.399-.175-.899-.787-2.465-.48-4.32-.446-.834-1.594-.967-2.4-1.44v-2.16c-.503-1.737-1.45-3.03-2.64-4.08-6.955-.2-18.562-.48-28.08-.48-2.865,0-6.046-.477-7.68,0-2.322.678-1.893,3.81-3.12,5.52h-4.8c-.729-.359-.132-.722-.48-1.2-1.514,1.277-.238,7.217-3.84,5.28 .054-.346.716-.083.72-.479-1.155-.846-1.629-2.371-1.44-4.56 .605-1.075 2.253-1.107 2.64-2.4-.257-.973-1.184-.742-.96-1.68-2.501.253-.269-.567.96-.72 2.081-.259 5.926.614 6.48,0-1.151-1.693-3.885-1.088-6.24-.96-1.04-.657.363-1.184-.24-1.92-1.172.373-.607,1.281-.96,2.16-7.676.724-11.74,5.06-17.52,7.68 4.337.097 6.759-3.8 11.04-4.56-.236.324-.641.479-.96.72-.043.524.196.764.72.72-.708.154-1.017,1.503-.48,2.16 1.352.429.851-.945 2.16,0 .603-.597-.153-2.554.72-2.88-.849-.729-1.192.584-1.92.72-.226-1.091.795-2.838 2.64-2.64 .156.956-1.416.184-1.2,1.2 1.312,1.31 3.966-.846 4.32,0 .194.464.073,1.309-1.68,1.2-.305.895-.984,1.417-.72,2.88-2.747.053-4.577,1.023-6,2.399 1.009.567.446,1.258.48,2.641 .932.12.924-1.939.48-2.4 .867-.399 1.262,2.535.72,3.601-3.396,2.056-5.292-1.33-6.96-3.12-5.834,1.455-12.026-.513-11.28-7.2 1.032-.692 2.497-2.083 3.84-1.68-.349,1.171-2.069.971-2.64,1.92-.771,3.095 2.066,4.598 4.32,4.32 3.647-.449 3.887-6.186.24-6.959 .332-.388.849-.591.72-1.44-.77-.47-2.643-.562-3.84-.48-.978.067-2.523.22-2.64.96 .585.647 1.564-.341 2.64,0-.47.856-1.315.585-1.92.96-2.151,1.333-2.074,4.311-1.44,6.48-1.896-2.464-.371-5.89.48-8.64 .846-.881 1.751-1.27 3.36-1.92 .922-.373 1.271-.912 1.92-.96 2.4-.18 4.635,1.507 5.52,3.6 1.479-2.087 5.266-5.77 7.2-1.92 1.366-.554 2.442-1.398 4.08-1.68 .323-1.764-.72-2.16-1.2-3.12-.136-4.155 4.979-2.401 5.76-.24 .074.875-.038,1.562-.24,2.16 .644.526 2.442-.828 3.36,0 1.416.084-.121.719.48,1.2 .278-.202.643-.317 1.2-.24 1.089-.298-.415-.698.24-1.2 3.626-.89 8.403-1.06 12-.72 4.646-1.455 11.802-1.256 17.52-1.68 6.534-.484 12.235-1.177 18.96-1.44 1.056-.784 1.274-2.405 1.44-4.08-.742,1.098-1.06,2.621-1.68,3.84-1.07-1.794 1.662-3.718 1.68-6 .975-.553 1.039-1.674 1.68-2.4 3.006-3.405 10.037-5.89 15.6-6.48 3.234-.343 6.288.224 9.121.72 3.831.671 7.969,2.082 11.04,1.68 1.324-.173 2.293-1.197 3.6-.96 1.044.673.266,1.894.72,2.88 2.769,5.293 15.117,5.247 22.08,2.64 2.812-1.053 4.608-2.997 5.76-4.56-.021-1.026-.48-1.758 0-2.64 5.114,1.001 11.741-.042 16.801-1.68 .557-.077.921.039 1.199.24 5.828-1.769 14.53-.901 19.44,1.44 .68.324 1.228,1.024 1.92,1.44 2.596,1.559 4.035,2.579 6.24,5.52 2.556,3.409 3.805,6.801 4.08,12 .126,2.38.571,5.081-.24,7.2-.863.743-.606-1.171-1.92-.72 .187,1.094 1.188,1.372 1.68,2.16v-.96c.575.632.931,2.74.72,3.36 .354.825 1.306.76 1.681,1.68 1.415,3.472-3.164,4.537-2.88.956zm-172.8-5.04c.407-.233.617-.664.48-1.44-.561.079-.992.288-1.44.48 .029.611.349.931.96.96zm-9.12-3.6c.789-1.735 3.547-.586 4.08-2.88-1.788.375-4.376,1.221-4.08,2.88zm174-19.92c-.223-.418.008-1.288-.721-1.2-5.685-4.073-12.294-5.163-20.16-4.08-.409.057-.793.401-1.199.48-3.477.676-7.262,1.406-10.561,1.92-2.756.429-4.778.187-6.96-.24-.541,1.458-1.143,2.857-1.92,4.08-2.839,2.266-7.085,4.007-12,4.32-.966.062-1.929-.101-2.88,0-1.929.206-2.617.178-4.32,0-.697-.073-1.591.12-2.16,0-1.636-.343-2.993-1.724-4.56-1.68-.893-1.507-2.438-2.362-2.16-5.04-2.144.282-3.98.881-6,.72-1.732-.138-3.546-1.336-5.04-.24 4.108,1.188 6.845,1.378 10.32.72-.613.939-.111,1.884.479,2.64 .563.72 2.242,1.711 3.601,2.4 2.695,1.367 4.816,1.625 7.92,1.68 1.297.023 2.921.142 4.08,0 3.046-.373 5.661-2.157 8.16-1.92 1.027-1.538 3.192-1.318 4.56-2.4 .243-.192.373-.811.72-1.2 .899-1.01 1.663-1.49 1.92-2.88 4.419,1.297 8.771-.645 11.761-1.44 2.368-.63 5.133-.875 7.68-1.2 7.894-1.009 13.906,1.375 19.2,4.56 1.834,1.605 3.163,3.717 5.04,5.28-1.386-1.975-2.322-4.398-4.8-5.28zm-2.16,15.84c.087-1.207-2.101-.14-1.681-1.68 2.57,1.271 5.809,1.872 7.681,3.84-1.575-.322-4.227-2.472-5.28-1.68 1.512.648 3.238,1.082 4.08,2.4 1.841-.081 2.796.724 4.08,1.2 .142-1.904.165-3.849 0-6-.545-7.097-5.373-12.44-10.8-15.12-2.738-1.352-6.032-2.403-9.84-2.64-9.363-.582-15.217,3.256-24,2.88-4.402,9.023-27.86,11.552-33.601,2.16-6.149.378-13.113-2.217-18.24-2.4-5.516-.197-11.193,1.491-14.16,3.6-2.907,2.066-5.141,4.864-6.24,8.64 11.857-.424 26.416-1.546 39.12-2.64-.266-1.578-1.766-3.19-1.2-4.8 .873,1.527.626,4.173 2.399,4.8 .092-1.139-1.351-1.999-.479-3.12 .257,1.183.891,1.989 1.2,3.12 .894.254.774-.505 1.2-.72 .192.688.797.459 1.199.48 5.327.277 12.583-1.627 18-.72 .564-.396.847-1.074 1.681-1.2 1.217,1.831 4.11,1.215 5.76,2.16 .312-.595-.535-1.165 0-1.2 .086.634.576.864 1.439.72 .449-.876.283-.504 1.2-.24-.054-1.085 2.311-.602 2.641-1.92 .172-.688.112-2.176-1.44-2.16-.019,1.115-.074,3.025-2.16,2.4-.452-.136-.88-.625-.96-1.2-.404-2.921 4.145-3.003 5.28-1.2 2.032,3.227-1.651,3.916-2.88,5.76 2.887.633 5.867,1.173 8.399,2.16 .102-.993-.92-1.375 0-1.92 4.55,1.691 8.438,4.042 13.92,4.8 3.8,1.721 9.283,3.037 13.681,3.36-.225-.256-.886-.075-.721-.72 1.645.156 2.715,2.03 4.32,1.44-.463-.653-1.438-1.288-2.399-1.68-1.123-.458-3.169-.214-3.36-1.68 1.052-.091 1.235.686 2.161.72zm-99.6-16.56c-2.867,1.201-6.03,2.883-6.48,5.28 .63-1.094 2.409-1.918 3.36-2.64 .421-.32.802-.727 1.2-.96 1.274-.747 2.646-1.118 4.08-1.44 .543-.122.949-.625 1.44-.72 2.625-.505 6.648-.79 9.12-.72 2.058.058 4.123,1.329 6,.48 .01,1.05 1.737.319 2.159,0-6.083-2.425-15.596-1.492-20.879.72zm-7.92,6.96h.72c-.033-.447-.158-.802-.48-.96-.076.325-.342.458-.24.96zm116.4,4.08c-.368-1.872-.817-3.663-1.92-4.8 .352,1.888 1.18,3.3 1.92,4.8zm-54.72-.96c.33-.459 1.8-1.703.239-1.92 .045.623-.766,1.607-.239,1.92zm-8.88,0c-1.275-.028-.192-.045-.239-.72-2.816-.157-3.627.518-6.24.24-.168.739-.168.461 0,1.2 2.691-.088 4.52-.447 6.479-.72zm1.68.72c.022-.617.937-.343.96-.96-1.119.395-1.062-.142-1.92-.48-.242,1.042.531,1.07.96,1.44zm-10.32-.48c-1.051-.991-2.008-.158-2.16.72 1.943.194 2.135-.672 3.84-.24 .392-1.263-1.496-1.183-1.68-.48zm-5.28.96c.927.478 1.473-1.274.48-1.2 .179.739-.659.461-.48,1.2zm1.44-.24c.668.385.664-1.037.24-.96-.076.325-.342.458-.24.96zm-3.6.48c.759.354 1.153-1.379.239-1.2-.2.279-.316.643-.239,1.2zm1.2-.24c.633.072.788-.333.721-.96-.647.016-1.155.549-.721.96zm40.56,1.44c-3.27-.88-7.283-2.466-9.84-2.16-.011.331.112.527.239.72 2.947.855 5.702,1.324 8.641,1.92 1.035.21 2.224,1.083 2.88.24-.115-.78-1.265-.544-1.92-.72zm-42.72-1.44c.699.353.699-1.073 0-.72v.72zm32.4-.48c-.809-.729-.728.887 0,0zm-37.68.96c.931-.029 2.211.291 1.92-.96-1.17.088-.806.626-1.68,0-.076.324-.341.458-.24.96zm2.16-.24h.72v-.72h-.48c-.013.307-.308.332-.24.72zm2.16,0c.7.353.7-1.073 0-.72v.72zm23.52-.24c-.024.745.755.685.479,1.68 .916-.301 1.156.212 1.921-.24-.308-1.126-1.229-2.546-2.4-1.44zm1.92,0c.307.013.332.308.72.24 .013-.413-.185-.615-.479-.72 0,.241-.195.286-.241.48zm1.44,1.2c.397-.242.26-1.019.479-1.44-.915-.416-1.452,1.495-.479,1.44zm4.32-.96h.48c.373-.59-.815-.706-.72-.24 .146.013.284.036.24.24zm-42,.72c.633.072.788-.333.721-.96h-.721c.021.655-.4.483 0,.96zm1.2-.24h.48c-.001-.241.194-.286.239-.48-.307-.013-.332-.308-.72-.24 .001.24.001.48.001.72zm27.6-.48c-.173.733.246.875.24,1.44 1.01-.29 1.053.388 1.681.48 .379-.939-.624-.497-.721-.96 .277-.36.843-1.011 0-1.2 .041.52-.851.109-1.2.24zm-30.24.48c.356.378 1.072.268.96-.48-.547-.067-.902.058-.96.48zm23.04-.24c-.239,2.523 3.222,1.06 4.8,1.2-.288-2.447-2.895-.523-4.8-1.2zm6.72.96c-.08-.56-.246-1.034-.72-1.2-.506.502.316.902.72,1.2zm11.04,0c5.909,1.291 11.907,2.493 17.76,3.84v-1.44c-5.664-1.397-12.293-2.767-17.76-3.6v1.2zm-44.4-.24c.013-.146.036-.284.24-.24-.027-.293-.072-.568-.48-.48 .038.282-.041.681.24.72zm.96,0c.014-.146.036-.284.24-.24-.027-.293-.072-.568-.48-.48 .038.282-.041.681.24.72zm24.24.96c.769-.032 1.056-.544.96-1.44-.578.098-.521-.438-1.2-.24-.481.478.076,1.143.24,1.68zm7.44-.24c-.02-.781-.308-1.293-.96-1.44 .283.948-.359,1.428.96,1.44zm-38.88-.96c.88,1.078 3.544.559 4.56-.24-1.541-.141-2.552.665-3.6,0-.067.557-.641.552-.96.24zm28.8,1.44c.967.007 1.851-.069 2.16-.72-.376-.584-.956-.964-1.92-.96-.331.309-.238,1.042-.24,1.68zm-31.44-1.2c-.242.722.535.425.96.48v-.72c-.418-.018-.746.053-.96.24zm1.2.48h.72v-.72h-.479c-.014.307-.309.332-.241.72zm24.48-.24c-2.09-.396-2.797.317-4.561-.24-.201.519-.621.819-.479,1.68 3.77-.334 7.011-.055 9.6-.48-.195-.83.448-1.013 0-1.44-.771-.211-.329.791-.96.72-.023-.377.032-.832-.48-.72-.616.023-.343.937-.96.96v-.96c-.974.818-1.285-.438-2.16.48zm81.36,2.16c.519-.693-.146-1.808-.479-2.4-.035.994.065,1.854.479,2.4zm-115.68-1.44c.744.024 1.331-.108 1.68-.48-.932.107-1.506-.601-1.68.48zm2.16-.24c.627.005 2.382.508 2.88-.48-.726.509-2.449-.688-2.88.48zm22.8.72c.679.381 2.682.381 3.36,0v-1.2c-1.649.375-2.748-.212-3.36,1.2zm-27.84-.48c.646.412 2.472.343 2.64-.48-.664.568-2.218-.643-2.64.48zm21.84-.24c-.753,1.282-1.592-.268-2.64.72-.038-.282.042-.681-.24-.72-.409.151-.395.725-.72.96 .043-.523-.196-.764-.72-.72 .018.418-.053.747-.24.96 2.992.73 6.253-.29 9.6,0v-1.44c-.895-.254-.775.505-1.2.72 .044-.523-.196-.764-.72-.72-1.057.62-2.173.754-3.12.24zm-25.2.48c.651-.149 1.905.305 2.16-.24-.72-.178-1.712-.518-2.16.24zm-4.08,0c.034.962 1.628-.155 2.64.24 .001-.927-2.244-.461-2.64-.24zm-.96.48c.413.013.615-.185.72-.48-.413-.013-.615.185-.72.48zm19.2.72h.96c.035-.595.044-1.165-.48-1.2-.102.458-.686.434-.48,1.2zm1.2,0c1.039.366 1.295-1.096.48-1.2-.103.457-.517.603-.48,1.2zm1.92-.24c.067-.547-.058-.902-.48-.96 .055.425-.242,1.202.48.96zm.48,0c.668.384.664-1.037.24-.96-.075.324-.342.459-.24.96zm.72,0h1.92v-.96c-.907-.348-.46.659-1.2.48-.054-.186-.007-.474-.24-.48 .175.655-.477.483-.48.96zm40.8-.72c-4.005.433-7.582.563-11.76.48-.415.146.018,1.139-.48,1.2 .067-.547-.058-.902-.479-.96-.328.472-.229,1.371-.48,1.92 1.006-.561.742-.184 1.92,0 .133-.427.123-.997.48-1.2v.96c.893.252.47-.81.96-.96-.036.596-.045,1.165.479,1.2 .465-.255.335-1.105.72-1.44-.076.557.039.921.24,1.2 5.678.117 9.049-.669 14.4.24-.237-1.163.655-2.049 0-2.88-2.418-.038-4.345,1.54-6,.24zm27.84,0c-.324-.075-.458-.341-.96-.24-.181.818.917.936.96.24zm-142.56,1.44c1.546-.346 1.852.548 2.88.72-.902-.938-1.809-1.871-3.36-2.16-.19.83.267,1.013.48,1.44zm44.16-.96c.729-.15 2.067.308 2.4-.24-.756-.354-1.81-.218-2.4.24zm20.16.72c1.283-.317 4.007.807 3.84-.96-.829.684-.922-.374-1.92.48 .144-.624-.096-.864-.72-.72 .033,1.053-1.544-.459-1.2,1.2zm-24-.72c-.808-.729-.728.888 0,0zm19.92.24v.72c1.859.007 2.095-.133 3.84-.24v-.96c-1.041.75-1.381-.439-2.16.72 .013-.413-.185-.615-.48-.72-.262,1.238-.607-.008-1.2.48zm8.4.48h.48v-.96h-.48v.96zm-9.6-.24c-.224-.146-.885-.558-.72.24 .382.52 2.124.379 1.68-.72h-.72c-.054.186-.007.473-.24.48zm65.28,1.68c.383-.177-.055-1.175.72-.96 .055.454-.271.529-.239.96 .874.154.296-1.143.96-1.2v1.2c.821-.392.721.029 1.2.48 .334-.306.104-1.176.72-1.2v1.2c.761.359 2.119.121 2.88.48 .414-.146-.019-1.138.479-1.2 .453.373-.344.935.24,1.44 3.266.254 6.097.943 9.12,1.44-.013.307-.308.333-.24.72 1.66.087 1.076-1.71.48-2.4-3.774-.305-6.591-1.57-10.32-1.92 .035.595.045,1.165-.479,1.2v-1.44c-2.409-.299-3.329-.643-5.761-.96 .041.422-.426,2.024.24,2.16zm21.12-1.68c.385-.668-1.036-.664-.96-.24 .418-.018.746.054.96.24zm22.08,4.56c-3.442-.618-6.602-.98-9.6-1.44-.962-.147-1.359-.807-2.4-1.2-.352-.133-.843.117-1.2,0-.295-.097-.632-.6-.96-.72-.526-.192-1.284-.043-1.92-.24-.88-.272-1.704-1.104-2.16-1.2-.75-.158-2.075-.509-2.64.48 .217.658.884-.468.96.48 .132.957.132.723 0,1.68-.918-.537-1.963-.909-3.6-.48-.055-.425.241-1.202-.48-.96-.72.029-.77,1.362-.48,1.68 1.402-.236 3.51.13 4.561.96-.651,1.51 1.114,2.634.72,3.84 3.115-.121 9.044.669 11.521,0 .27-.073 1.819.198.96-.48-.382.366-1.963-.105-2.16-.72 2.248-1.001 3.467,1.147 5.28.72-.036-.596.124-.996.479-1.2 2.451,1.4 7.052,1.894 10.08,1.92 .101-.981-.79-.97-.479-2.16-1.011-.37-.039,1.242-.721,1.2-.445-.955-1.125-.269-1.439-1.44-.041.359.085.886-.24.96-.663.103-.226-.895-.72-.96-.333.147-.036.924-.48.96 .035-.595.045-1.165-.479-1.2-.589.32.432.725-.24.96-.54-.1.036-1.316-.72-1.2-.21.351-.191.929-.96.72-.811-.217-.031-.537-.483-.96zm-117.84-4.56c.021.655-.4.483 0,.96 1.057-.343 1.412.018 2.64-.24 .03-.601.458-.751-.24-.96-.704.532-1.465.564-2.4.24zm3.12.72c1.965-.473 3.744.705 4.08-.96-1.798.173-2.114.316-3.84,0-.076.324-.342.459-.24.96zm4.8-.24c.035-.283.427-.544 0-.72-.035.284-.427.544 0,.72zm36.72-.24c-1.178.065-3.507-.752-2.16.96 .934-1.311-.126,1.1.721.96 .28-.359.298-.981.72-1.2 .055.425-.242,1.202.479.96 .025-.615.137-1.145.48-1.44 .22.421.082,1.198.479,1.44 .22-.421.083-1.198.48-1.44-.031.592-.036,1.157.24,1.44 .825-.194 1.221.135 1.68-.72 .123,1.472 1.642.006 2.64.72 .361-.389.361-1.771 0-2.16-1.996-.022-3.922.377-5.759.48zm-63.12.24h.48v-.48h-.48v.48zm17.04.48c.751.111 1.072-.209.96-.96h-.72c.054.454-.271.53-.24.96zm42.24-.72c.301.916-.212,1.156.24,1.92 .964.004.667-1.253.72-2.16-.454-.054-.529.27-.96.24zm-46.32.96c.889-.071 2.056.136 1.92-.96-.894.646-.599.177-1.68,0-.075.325-.341.459-.24.96zm3.12-.24h.72c.043-.524-.196-.764-.72-.72v.72zm36.48-.48c-7.511-.156-16.146.389-24,.96-2.584.188-5.165-.111-7.44.72 .28.041.261.379.24.72 1.212-1.184 2.68.551 3.84-.96-.067.547.058.902.48.96 .117-.284.256-.544.48-.72 .956,1.821 2.27-.821 3.36.48 .636-.654.106-.264.48,0 .525.372.521-.51 1.2-.48-.029-.001.168.434.48.48 .936.139 2.176-.43 3.12,0 .18-1.05.868-.201 1.44-.96 .131.349-.28,1.24.24,1.2 .24-.32.396-.725.72-.96 .104,1.199.424-.187.96,0 .409.723 1.432-.126 2.4.72 .9-.968 1.442-.059 2.4-.72v.72c2.042-.119 4.778.458 5.28-1.2v.96c2.314-.07 3.037-.294 5.521,0 .109-.614-.01-1.213.72-1.68-.556-.792-1.261-.226-1.921-.24zm2.88,0c-.077.557.038.922.24,1.2 1.361.002 2.372-.348 2.64-1.44-.951.088-2.3-.22-2.88.24zm-61.2.48c.596.036.996-.124 1.2-.48-.453.106-1.447-.326-1.2.48zm13.44.24c1.24-.28 3.625.585 4.08-.48-1.084.021-3.252-.531-4.08.48zm4.8,0c.034-.284.427-.544 0-.72-.034.283-.428.544 0,.72zm-20.88-.48c-.497.143-1.577-.297-1.68.24 .914-.263 1.498.635 1.68-.24zm13.68.72c.547.067.902-.058.96-.48-.281-.303-.997-.192-.96.48zm1.2-.24c.377-.023.832.032.72-.48h-.48c.001.241-.194.286-.24.48zm-35.76,1.92v-.96c-.786-.051-.947,1.126 0,.96zm-.24-1.2c-.029-.611-.35-.931-.96-.96 .054.454-.271.529-.24.96 .315.308.885.308 1.2,0zm9.36-.24h1.2v-.48c-.057-.419-1.354-.102-1.2.48zm3.84-.24c.534.505 1.157-.253 2.16,0-.043-1.025-1.745-.142-2.16,0zm5.04-.48c-.729.15-2.067-.308-2.4.24 .73-.15 2.067.307 2.4-.24zm9.36.72c.327.388 1.659-.248 2.64,0-.569-1.002-2.187-.576-2.64,0zm4.56-.24h.48c.374-.591-.815-.706-.72-.24 .147.014.284.036.24.24zm.96,0c.454-.106 1.447.326 1.2-.48h-1.2v.48zm142.08,5.28c1.474-.824.889-4.011.479-5.52-.284,1.138-.037,3.857-.479,5.52zm-150.72-4.8c.726-.075 1.866.266 1.92-.48-.726.074-1.867-.266-1.92.48zm-20.16,0c-.37.724 1.242.631 1.2.24-.753.119-.634-.827-1.2-.24zm10.8.48c2.962-.078 6.376.295 8.4-.72-2.977.011-6.252-.041-8.4.72zm23.28,0c-1.394-.226-4.133.151-6.24,0v1.2c2.673-.474 3.104-.256 5.76,0 .103-.457.517-.603.48-1.2zm.48,1.2c.756.116.18-1.1.72-1.2 .106.454-.326,1.446.48,1.2 .396-.003.134-.666.479-.72-.123,1.37 4.631.624 4.56-.24 .256.224.075.885.72.72 .471-1.092 1.873.545 3.84,0-.173-.733.246-.875.24-1.44-4.378-.531-6.731.548-11.28.24 .228.598-.856,1.448.241,1.44zm-38.16-1.44c-.013.413.185.615.48.72 .097-.543 1.407.126.96-.96-.731.359-.933-.079-1.44.24zm1.92.24h.48v-.48h-.48v.48zm5.28.96c1.312-.484 2.169-.177 3.36-.96-1.099-.385-3.129-.255-3.36.96zm6.48-.48c.014-.146.036-.284.24-.24-.027-.293-.072-.568-.48-.48 .037.283-.041.681.24.72zm16.8.72c.882.231.954-1.179.24-1.2-.202.278-.317.643-.24,1.2zm109.92,5.76c-.866.094-1.609.311-2.4.48-.809-1.309.615-2.192.48-3.6-3.062-1.268-8.043-1.866-11.521-1.92 .235,1.085.383,2.955-.72,3.36-.182-1.461.526-2.034.479-3.36-1.069.463-2.039-1.49-3.119-.24 .125-.859-1.596-1.106-1.921-.72 .283.357.603.677.96.96-1.433-.313-.839,1.401-.96,2.4-.387,1.228-4.439,1.327-2.64-.48 .617.023.343.937.96.96 .276-.284.271-.848.24-1.44-.349-.131-1.24.28-1.2-.24 .3-.504 1.1-1.229.48-1.92-.82-.18-.306.975-1.2.72-.251-.549-.152-1.448-.48-1.92-3.91.158-7.815.31-12.96.24-.558.163-.35,1.09-.96,1.2-.055-.425.242-1.202-.479-.96-.559.871-.181-.146-1.2,0-.106.454.326,1.446-.48,1.2 .186-.164.625-1.43-.239-1.2-1.021-.221-.017,1.584-.96,1.44-.175-.734.414-.706.239-1.44-.751.049-1.762-.162-2.16.24-.274.995.505.935.48,1.68-.082.877-.025,1.895-.96,1.92-.074.726.267,1.867-.48,1.92-.243-.99.883-2.105-.479-2.16 .045,1.28.479,2.242-.72,2.64-.191-1.231.505-1.575.479-2.64h-.96c-.074.726.267,1.867-.479,1.92-.604-.601.275-.943.239-1.68-1.405-.206-.097,2.303-1.439,2.16-.142-1.022.173-1.587.24-2.4h-.96c-.129.832.355,2.277-.48,2.4-.26-.76.931-2.017-.24-2.16-.742.058.375,1.975-.72,1.68-.188-.592.872-1.662-.24-1.68-.536.584-.048,2.192-.96,2.4-.054-1.014.37-1.55.48-2.4-1.766-.198-.127,1.591-1.2,2.16-.359-.666-.981.417-1.2-.24-.186-.935.888-1.244.24-1.92-1.477-.277.036,2.437-1.44,2.16-.062-.986.976-1.572 0-2.16-.557.403.23,2.15-.96,1.92-.117-.757.433-.848.24-1.68-1.254-.214-.265,1.815-1.44,1.68-.01-.746 1.032-1.673-.239-1.68-.619.181.175,1.775-.721,1.68-.175-.545.433-1.872-.479-1.68-.528.271-.017,1.583-.72,1.68-.523-.502.119-.685 0-1.44-1.031-.231-.422,1.179-1.2,1.2 .066-.547-.058-.902-.48-.96-.283.356-.207,1.072-.96.96 .104-.534.552-1.302-.24-1.44-.332.387-.202,1.237-.72,1.44-.716-.344.631-1.251-.479-1.2-.541.1.035,1.316-.72,1.2-.338-.688.745-1.31-.24-1.2-.728-.007-.232,1.208-.96,1.2-.263-.612.82-1.235-.24-1.2-.668-.108.188,1.308-.48,1.2-.532-.188.045-1.486-.96-1.2-.003.636.133,1.413-.479,1.44-.131-.349.28-1.24-.24-1.2-.281.359-.298.981-.72,1.2v-1.44c-1.049-.169-.511,1.249-1.2,1.44-.263-.612.82-1.235-.24-1.2-.489.15-.067,1.212-.96.96 .327-.306.371-1.176-.24-1.2-.541.339-.472,1.288-1.2,1.44v-.96c-.771-.21-.498.623-.96.72-.333-.147-.036-.924-.48-.96-.411.229-.483.796-.96.96-.033-.447-.158-.802-.48-.96-.241.319-.227.893-.72.96 .044-.524-.196-.764-.72-.72-.241.319-.227.893-.72.96v-.96c-1.062-.342-.628.812-1.44.72 .421-1.452-1.656.822-2.4-.48-.284.356-.208,1.072-.96.96-.041-.359.085-.886-.24-.96 .013.413-.185.615-.48.72-.083-1.188-.63.2-1.2,0v-.72c-.987,1.058-2.061-.059-3.84.72 .153,13.621 10.26,17.883 22.56,15.84 4.86-.807 9.842-2.152 13.44,0 .331-.309.237-1.042.24-1.68 4.132-5.987 17.893-5.255 24.72-2.16v.72c1.341.04 1.763.385 2.641.96 2.512,1.648 4.46,3.978 5.52,6.48 1.98-.92 4.093-.747 5.521-.48 1.733.325 2.916.428 4.319.96 1.059.402 2.002,1.471 3.12,1.921 1.61.647 2.885,1.318 4.32,1.68 6.909,1.736 14.312-.147 18.479-2.16 4.354-2.104 7.88-4.717 10.08-8.64 1.231-2.196 1.646-4.478 2.4-6.96 .021-.067.454-.143.479-.24 .338-1.268.286-2.228.48-3.36-1.119-.111-1.542.473-2.4,0-.409.151-.395.725-.72.96-.891-.309-.892-1.509-2.16-1.44 .156,1.604 1.78,1.74 2.16,3.121-1.592-.968-2.455-2.665-4.32-3.36 .937,2.024 3.136,2.784 4.08,4.8-1.971-1.148-2.823-3.417-5.28-4.08 .198,2.044 3.059,2.698 2.881,4.32-1.255-1.306-2.71-2.411-3.841-3.84 .847-.114.789-1.131.96-1.92-.912-.321-1.33.107-2.399-.24-.415.544.093,2.012-.72,2.16-.135-.969 1.084-2.2 0-2.64-.854.347-.012,2.388-1.2,2.4 .067-.812.382-1.378.24-2.4-1.259.475-.548.177-1.681-.24-.753.527-.31,2.25-.96,2.88-1.119-.559.596-1.58.24-2.88-1.034-.313-.759.681-1.2.96-.055-.425.242-1.202-.479-.96-.978.383.211,2.931-1.2,2.88-.223-1.167 1.166-2.514 0-3.12-.747.854.177,3.376-1.44,3.36-.111-1.391.869-1.691.721-3.12-1.975-.214-.204,3.316-1.921,3.36-.227-1.587.776-1.944.48-3.6-1.293-.413-.672,1.088-1.2,1.44-.146-.495.388-1.667-.479-1.44-1.182.418-.019,3.182-1.44,3.36-.042-1.322.73-1.83.48-3.36-1.824.31-.365,2.464-1.681,3.12-.222-1.167 1.166-2.514 0-3.12-.593.767-.177,2.543-.96,3.12-.511-.809.436-1.866.24-3.12-1.073.369-2.447-.362-3.36,0-.194.077.13.655-.239.72-.091.016-.801-1.055-.96-.48-.267,1.254-.577,2.464-.48,4.08-.67.305-1.186.591-1.92.24-.297.583-.487,1.273-1.44,1.2-.026-1.901 1.383-3.523.716-5.282zm.48,3.36c-.111-1.472.518-2.203.721-3.36-1.149-.042-1.09,3.46-.721,3.36zm-152.64-7.92c.42.066 1.197-.676 1.44,0-.086,1.303-1.299,1.436-.72,2.88 1.066.106 1.307-.614 1.2-1.68 1.139-.461 1.768-1.432 1.92-2.88-1.389-1.168-2.985.801-3.84,1.68zm9.84-2.16c-.253,1.393 1.04.1 0,0zm21.6.24c-.054.186-.007.473-.24.48-.567-.6-1.96-.307-2.64.48 4.563.499 7.927-.019 10.56-.96-2.73-.269-5.318.337-7.68,0zm8.64.72c.759-.33.802-.052 1.68,0-.021-.655.4-.483 0-.96-.827.451-.612.451-1.44,0-.076.325-.342.458-.24.96zm62.16.72c.802-.062 1.173-.322 1.92,0 .188-.167.534-1.339 0-1.44-.135.346-.375.585-.721.72-.158-1.279-1.871-.596-1.199.72zm3.36-.96c.139,1.512 1.731.2 2.641.72 .035-.595.044-1.165-.48-1.2-.682.889-1.117.243-2.161.48zm3.84-.48h-.72c-1.24,1.74 1.961,1.74.72,0zm-114.24.72c-.667-.221-2.467-1.018-2.88,0 .392-.175 1.044.477.48.48-1.653.027-3.402-.042-4.08.96 1.649.092 4.414-.507 6,.72 .125-.355.355-.605.48-.96-.319-.588-.893.264-.96-.24 .282-.359.997-.283.96-.96zm28.8.48h1.44c-.041-.359.085-.886-.24-.96-.36.857-1.201-.257-1.2.96zm2.4,0c.757.118.848-.432 1.68-.24-.042-.758-.95-.651-1.68-.72v.96zm72.96,0c.038-.167-.084-1.396-.24-.72-.211.914.129,1.202.24.72zm-77.28,0v-.72h-.72c-.043.524.196.763.72.72zm59.52-.24c-.075.324-.341.458-.24.96 1.602-.21 1.782-.301 3.6-.24 .035-.595.044-1.165-.48-1.2-1.25.299-2.223,1.156-2.88.48zm7.2,0c-.241,0-.286-.194-.48-.24-.013.307-.308.333-.24.72 .413.013.615-.185.72-.48zm0,.72c1.349-.222 4.014.503 5.521-.72v.72c.896-.021.684-.269 1.439,0 .201-.278.316-.643.24-1.2-.411-.636-.394.75-.72.72-.044-.004.048-.7 0-.72-.935-.38-2.951.468-3.12.48-.015.001-.297-.476-.48-.48-.055-.001-.531.484-.72.48-.004,0-.19-.479-.24-.48-.602-.022-1.058.778-1.44,0-.103.457-.517.603-.48,1.2zm8.4,0c.725.37.631-1.242.239-1.2-.201.278-.316.643-.239,1.2zm3.6-.48c1.189-.319.375-1.133 0,0zm-24.48.24c.317.002.219.42.48.48 1.095-.381 1.645-.169 3.12,0 .327-.306.371-1.176-.24-1.2-.174.96-1.413.32-2.16,0-.167,1.01-1.093-.23-1.2.72zm4.08.24c.668.385.664-1.036.24-.96-.075.325-.342.458-.24.96zm5.76.24c.882.231.954-1.179.24-1.2-.202.279-.316.643-.24,1.2zm.96-.24c.668.385.664-1.036.24-.96-.076.325-.342.458-.24.96zm-18.72.48c.929.266.854-.848 1.44-.24-.104-.536-.424-.856-.96-.96-.103.457-.517.603-.48,1.2zm5.04,0c.974-.775 1.454.723 1.68-.96-.7.213-.828.307-1.2-.24-.102.458-.685.434-.48,1.2zm11.76-.48h.48c.269-.346.259-.585-.24-.72-.013.307-.308.332-.24.72zm-26.88.72c.888.167 1.06-.38.96-1.2-.675.045-1.023.417-.96,1.2zm2.16-.24c.706.304 1.314-.603 2.16,0 .07-.147.597-.924 0-.96-.204.891-1.968-.744-2.16.96zm2.64-.72c.101.459.087,1.033.72.96-.131-.349.28-1.241-.24-1.2-.053.187-.201.279-.48.24zm3.12.96c.759.354 1.154-1.379.24-1.2-.202.279-.317.643-.24,1.2zm1.2-.24c.632.073.788-.332.72-.96-.633-.072-.788.332-.72.96zm4.56,0c.172-1.025 1.307.887 1.2-.96-.597.026-.743.45-1.2,0-.07.147-.597.924 0,.96zm-20.16.48c.035-.595.045-1.165-.48-1.2-.155.585-.485,1.234.48,1.2zm1.68,0c.564-.431 1.702.229 1.68-1.2-1.057-.024-.983.803-1.68,0-.138.146-.562,1.138 0,1.2zm3.84-.24c.633.073.619-.501.72-.96-.633-.072-.788.332-.72.96zm2.88-.24c.013-.413-.185-.615-.48-.72-.343.351-.353.929.48.72zm-28.8.72c.249-.227.219-1.236-.48-1.2-.035.596-.045,1.165.48,1.2zm5.04-.96c-.067.547.058.902.48.96 .3-.931 1.405.336 1.68-.72-1.017-.189-1.222-.384-2.16-.24zm6.48.72h.72c-.055-.425.242-1.202-.48-.96-.075.325-.341.458-.24.96zm4.8-.24v-.48c-.443-.797-1.17.72 0,.48zm.24,0c.644.258 1.947.555 1.68-.72-.704.169-.707.806-1.2,0-.058.343-.395.405-.48.72zm4.32-.72c-.729.808.887.728 0,0zm-34.56.72c.914-.263 1.498.635 1.68-.24-.715.064-1.461-.672-1.68.24zm7.2.72c.413.293 1.917.14 2.16-.48-.838.038-1.018-.582-1.68-.72 .347.907-.66.461-.48,1.2zm5.52-.24c.296-.776-.777-.184-.48-.96-.742-.314-1.362.681-.72.96 .062-.337.526-.273.72-.48 .051.269.266.374.48.48zm4.8-.24h.72v-.72h-.48c-.013.307-.307.333-.24.72zm5.52,0h.72c-.038-.282.041-.681-.24-.72-.022.378-.612.188-.48.72zm1.2,0c.7.353.7-1.073 0-.72v.72zm2.4,0c.674.247 1.669-.374.96-.72 .077.636-1.344-.225-.96.72zm-47.52,1.2c.433-.503-.33-1.266-1.2-1.2-.055.855.345,1.255 1.2,1.2zm8.88.72c1.484.119 2.753-1.24 2.64-1.92-.706.814-2.279.762-2.64,1.92zm3.12-.24c.8-.16 1.303-.617 1.2-1.68-1.276-.182-1.476.976-1.2,1.68zm141.84.48c.678.229 1.186-1.561.24-1.44 .174.734-.414.706-.24,1.44zm-148.08-.24c.42.349 1.367-.229 1.44-.96-.566.234-1.522.077-1.44.96zm18.96,0v-.96h-.72c-.068.628.088,1.032.72.96zm-22.56,2.64c.003-.396.666-.134.72-.48-.303-.617-1.458.162-.72.48zm1.2-2.64c-.807-.119-1.995-.709-2.4-.48 .078.882-.205,2.125.24,2.64 1.283-.156 1.694-1.187 2.16-2.16zm101.52.48c.139-.146.562-1.139 0-1.2-.138.146-.562,1.139 0,1.2zm-97.68.24c.747.245 1.713-.497 1.2-.72-.153.487-1.122.158-1.2.72zm-2.4.72c.076-.325.342-.458.24-.96h-.72c-.067.547.058.902.48.96zm13.68,1.92c1.293-.744 1.148,1.195 1.92,1.68 .138-.422-.29-1.41.24-1.44 .679-.039-.2,1.479.48,1.44 .167-.881.414-1.824 0-2.64-.632.062-.788.494-.72-.48-.853-.374-.145.815-.72.72v-1.2c-.693-.087-.567-.223-1.2-.72-.416.817.185,1.408 0,2.64zm50.64-1.44c-.682.042.29-1.57-.72-1.2-.536.618-.019,2.029.72,1.2zm-65.52.24c.003-.477.655-.305.48-.96-.607-.253-1.064.809-.48.96zm153.36,1.2c.054-.45.619-1.591 0-1.92-.253.25-.496,1.714 0,1.92zm-133.2-.96c.065-.327-.148-.937-.24-.48-.065.327.148.937.24.48zm133.92.72c-.001,1.603.342-3.435 0,0zm-154.56.24c1.301-.059 2.188-.531 2.64-1.44-1.373-.013-2.019.701-2.64,1.44zm183.84.24c.93-.11 1.459-.621 1.44-1.68-.625.367-1.908.978-1.44,1.68zm-82.56,15.6c.189,1.483 1.816-.145 0,0zm-33.6-6.96c2.165,1.481 3.124,3.728 5.28,4.8 .564.281 1.47.245 2.16.48 .656.223 1.313.803 1.92.96 5.555,1.435 11.193-.062 17.04-.48 1.604-.114 3.455-.231 5.04,0 2.06.302 3.464,1.995 5.52,1.2-.925-3.943 1.98-5.401 5.28-6.24 5.124-1.301 13.267-.078 17.28,1.44 .12-1.252-1.509-1.335-2.641-1.68-4.294-1.312-10.301-1.669-14.399-.721-2.995.693-5.271,1.703-6.48,3.36-.473.567.067,2.146-.479,2.64-6.596-3.332-14.245.435-20.88.24-1.811-.053-4.239-.919-5.28-1.2-.835-.226-1.615-.029-2.16-.24-.958-.369-2.138-1.394-3.12-2.159-2.467-1.924-3.413-3.123-4.8-5.761 .437-1.358-.687-2.349-.96-3.359-.259-.956.321-2.199-.72-2.88-.386,3.44 1.492,6.656 2.399,9.6zm-71.52-8.4c.512.516 1.307.089 1.44-.48-.738.179-.461-.659-1.2-.48 .054.454-.27.529-.24.96zm181.2-.96c-.213-.185-.686.147-.721.24-.343.917 1.196.173.721-.24zm-43.44,19.92c-.396-.003-.135-.665-.48-.72 .256.978-.173,1.396.24,2.4 .904-.185 1.147.293 1.92.24 .536-.036-.312-.605 0-1.2 1.985-1.192 6.028-1.381 7.681.24 4.946.957 9.445,3.856 14.88,4.319 3.418.291 6.875-.593 10.56-1.2 .739-.179.461.659 1.2.48 .616-.904 2.012-1.028 2.88-1.68-.499-.135-.509-.375-.24-.721 2.29-.978 4.494-2.453 6.24-4.08 3.035-2.827 5.526-6.417 6.48-11.279 .893.252.47-.81.96-.96-.356-1.645.784-4.785-.721-5.28 .248,2.799-.787,3.86-1.199,5.76-.552,2.535-.843,3.324-1.921,5.28-4.31,7.821-14.179,13.764-25.92,12-1.104-.166-2.164.066-3.119-.24-.684-.219-1.41-.973-2.16-1.2-.359-.108-.853.136-1.2,0-3.217-1.251-6.313-3.274-9.601-3.6-1.518-.15-2.975.051-4.56.479-.42.46-.282,1.479-1.2,1.44 .281-4.176-3.487-6.232-6.24-8.16 2.033,2.21 5.566,4.194 5.52,7.682zm53.28-16.8c.008-1.048.088-2.168-.48-2.64 .149.891-.39,2.47.48,2.64zm-173.28,1.2c.015-.465.066-3.648-1.2-2.88 .966.328.846,2.016 0,1.68 .954-.154.344,1.256 1.2,1.2zm-11.28,0c.477.003.305.655.96.48 .083-.878.808-1.113.72-2.16h-.96c-.139.661-.598,1.002-.72,1.68zm-.72-1.2c-1.838.788.77-.33 0,0zm186.72,1.2c.36-.559.587-.366 1.2-.24-.149-.73-.533-1.227-1.44-1.2 .138.422-.29,1.41.24,1.44zm-191.04,1.2c.454.026.167.793.72.72 .445-.695 1.602-2.058.72-2.64-.117,1.003-1.091,1.15-1.44,1.92zm5.04,4.08c-1.089-1.32-2.466-3.521-.72-5.04-3.135-.553-1.835,5.151.72,5.04zm-6.24-3.36c.7.353.7-1.072 0-.72v.72zm120.72,4.32h.479v-.48h-.479v.48zm4.56,0c-.497.143-1.576-.297-1.68.24 .524.127 1.552.58 1.68-.24zm-52.08,4.32c-.106-1.174.348-2.908-.72-3.12-.196.626-.14,2.78.72,3.12zm49.2-2.88c-.748.771.061,1.099 0,2.4-.523.153-.764-.681-.72.24 .753,1.061 2.01.682 3.359.96 .471.097.729.551 1.2.72 2.354.844 5.096,1.045 6.96,2.4 .338-1.374-.041-2.213-.96-2.88 .754-.121.98.565 1.2-.24-3.255-1.846-6.236-3.912-11.039-3.6zm-3.6.72h.479v-.48h-.479v.48zm-44.64,3.6c.077-.406.35-3.062-.48-3.36 .035.736-.232,3.029.48,3.36zm40.32-2.4h.48c.268-.345.258-.585-.24-.72-.013.306-.307.333-.24.72zm4.32.24h.72c-.055-.425.242-1.201-.48-.96-.076.325-.341.459-.24.96zm-36.96,7.68c2.609.401.61-2.327 2.16-2.881-.175-.785-.862-1.058-1.44-1.439-.397.302.692,3.838-.72,2.399v1.921zm-1.44-.72c1.112-.075.797-.999 1.92-1.439 .039-.759.009-1.449-.48-1.681-.131.35.281,1.241-.24,1.2-.286-.973-.41-1.022-1.2-.479v-1.92c-2.002-.718-4.165-1.275-5.52-2.641-.753.78.514,2.101-.24,2.88 1.293,1.212 3.732,4.216 5.76,4.08zm108.72-4.8c-.106-.453.327-1.446-.479-1.2-.036.595-.046,1.165.479,1.2zm-68.64-.48c-.892.238-.628.512-1.68.239-.144.506 1.782.845 1.68-.239zm-5.28,1.2c.638-.162 1.223-.378 1.681-.72-.858-.472-1.318.075-1.681.72zm-29.76,0c-.135-.756-2.354-.671-2.64-.479 .632.407 2.056.023 2.64.479zm20.88.24c.839.476 2.475.004 2.88-.72-1.033.166-2.43-.03-2.88.72zm5.52-.24c-.183,1.098-1.327,1.233-1.92,1.92 1.785.058 3.266-1.491 5.04-2.159-1.343-.596-1.548.457-3.12.239zm-11.28,1.92c.539-.678.073,1.671.96,1.44-.283-1.673.403-2.827-.72-3.6 .042.698-.843,1.696-.24,2.16zm2.4.72c.008-1.049.088-2.169-.48-2.641 .059.983-.233,2.315.48,2.641zm85.2-1.92c.7.353.7-1.073 0-.721v.721zm-109.44,3.84c-.921-2.119-3.814-2.267-4.8-4.32-.282.038-.681-.041-.72.24 1.76,1.44 3.451,2.948 5.52,4.08zm6.24-3.36v-.479c-.443-.799-1.17.719 0,.479zm1.2,0c.013-.413-.185-.615-.48-.72-.344.351-.353.93.48.72zm18.24,2.64c.01-.51.352-3.159-.72-3.36-.121,1.481.11,2.61.72,3.36zm31.2-2.16c.22-.876-1.169-1.37-1.44-.96 .651.15.597,1.002 1.44.96zm-30,2.64c1.194-.176.524-2.956-.24-3.36-.505.868.485,1.986.24,3.36zm-21.12-2.16h.72c.044-.523-.196-.764-.72-.72v.72zm23.28,2.64c.628-.801-.342-2.05 0-3.36h-.721c-.22.722-.229,3.037.721,3.36zm27.36-2.16c-.621-.259-.892-.868-1.68-.96 .187.546 1.121,1.58 1.68.96zm-47.76,1.44c-.173-.733.246-.874.24-1.439-1.371-.496-1.702,1.791-.24,1.439zm45.12-.96h.72c.031-.431-.238-.562-.72-.479v.479zm-41.76.24c-.165.805.402.877.96.96-.275-.755.376-.583.48-.96-.561-.074-.992-.47-1.44,0zm42.72.24c.307.013.332.308.72.24 .013-.413-.185-.615-.479-.721 0,.242-.195.287-.241.481zm-43.68.48c.073-.632-.332-.787-.96-.72-.196.859.511,1.191.96.72zm44.4.24c.319.312.894.316.96-.24-.319-.312-.893-.317-.96.24zm-53.04,1.2c-.175-.785-1.342-.578-1.92-.96 .279.682.975.946 1.92.96zm19.68,0c.605-.627 2.207.632 2.399-.72-.354-.304-3.136-.038-2.399.72zm35.04.24h.72c.031-.432-.238-.562-.72-.48v.48zm-42.24.96c.062-.499 1.055-.065 1.2-.48 .092-1.561-1.969.027-1.2.48zm13.44-.96c-.205.766.378.742.48,1.199 .897-.143 1.704-.375 1.68-1.439-.598.202-1.285.315-2.16.24zm-15.12,0c-1.215-.256-1.21.709-1.92.96v-.721c-1.391.914-2.466-.69-3.12.96 1.167-.371 4.197.977 5.04-1.199zm.24.72h.96c.189-.924-1.149-.924-.96,0zm46.8,3.36c.411-.9.47-3.505-.24-4.08h-.721c.188,1.494-.297,3.659.961,4.08zm-53.28-3.12c.413.013.615-.186.72-.48-.377.023-.832-.032-.72.48zm-1.2.48c-.904-.216-1.679-.561-2.64-.72 .178.827 2.283,1.587 2.64.72zm66.24,0c.088.809-1.01.432-.96,1.2 .945.015 1.642.278 1.92.96-.734.174-.706-.414-1.44-.24-.28,1.24 1.669.252 1.681,1.2-.716.064-1.462-.672-1.681.24 .407.473 1.67.09 1.681.96-.561-.073-1.034-.513-1.2.24 1.452.308 2.477,1.043 4.08,1.199-.097-1.189-.601-3.231 0-4.319 1.228.132.896,1.823.96,3.12 .97.47 2.898-.019 2.88,1.439-.634.767-1.986-.592-2.641.24 3.477.793 7.144,1.384 9.601.72-.695-1.265-.368-2.724-.24-4.319-5.374.559-10.183-2.276-14.641-2.64zm11.28,1.2c-1.538-.277-.527.733 0,0zm18.72,1.68c.761.183 1.439-.935.96-1.2-.162.558-1.26.181-.96,1.2zm-13.68.24h.96c.189-.924-1.149-.924-.96,0zm-25.68,0c.377-.022.832.032.72-.479h-.479c0,.24-.195.285-.241.479zm1.2.48c.677.037.602-.679.96-.96-.806-.104-1.417.507-.96.96zm.96,0c.812.091 1.024-.416 1.44-.721-.548-.519-1.498-.086-1.44.721zm23.04-.72c-.324-.075-.459-.342-.96-.239-.181.818.917.935.96.239zm13.92,1.2c.035-.596.045-1.165-.48-1.2-.493.386-.65,1.297.48,1.2zm-42.96-.24c.302.099.49.31.479.721 .806.005 1.601,0 1.44-.96-.834.732-1.39-.983-1.919.239zm8.16.24c.628.067 1.032-.088.96-.72-.6-.041-.752.368-.96.72zm20.88.96c-.004-.636.133-1.413-.48-1.439-.37.365-.427,1.645.48,1.439zm1.44-1.2c-.081-.193-.637-.289-.72,0-.159.556.937.519.72,0zm-21.12.72c.494.21 1.077-.623.479-.721-.021.38-.611.189-.479.721zm2.88.24c-.651-.094-.897-.1-1.44-.72-.021.378-.612.188-.479.72 1.14-.249 1.314.98 1.919,0zm5.04,2.64c.377-.023.832.032.72-.48h-.48c.001.241-.195.286-.24.48zm1.68-.24c-1.234.58.826.62 0,0zm12.48,1.2c1.108-.971 2.433.771 2.88-1.2-.989.27-.901.531-1.681,0-.359.44-1,.599-1.199,1.2zm-3.12.48c.702.062.737-.542 1.439-.479-.038-1.373-1.485-.331-1.439.479zm-1.2.24c.239-.32.648-.472.72-.96-.741-.313-1.361.681-.72.96z" fill-rule="evenodd"/>
 <path d="m131.76,27.6c1.428.667-.04,3.495-.24,4.8-.632-1.398 1.131-3.06.24-4.8z" fill-rule="evenodd"/>
 <path d="m133.44,32.16c1.106.146-.143-2.062 1.2-1.68 .142,1.022-.173,1.587-.24,2.4-.744.024-1.146-.293-1.68-.48 .591-1.344-.226-2.735.479-4.08 .167-.458.374.259 0,.24-.143,1.423.422,2.139.241,3.6z" fill-rule="evenodd"/>
 <path d="m14.16,32.64c-.719.158.229.513 0,.96-1.371-1.174-3.663,1.239-2.4,2.64-.521.884-.534-.719-1.2-.48-.505-2.265.685-2.834 2.4-2.88 .444-.036.147-.812.48-.96 1.232.048 1.611.949 2.4,1.44-.152.888-.651,1.429-.48,2.64-.691.108-.75.849-1.68.72 1.045-1.141.327-2.833 1.44-3.6-.158-.322-.513-.447-.96-.48z" fill-rule="evenodd"/>
 <path d="m146.4,37.92c1.26.141 1.817-.423 3.12-.24 .446-1.349-1.178-2.212-1.68-3.36 1.739-.695 1.241,2.916 2.88,3.121 1.286-.999-1.817-2.499-1.2-3.601 1.661.499 1.35,2.97 2.64,3.84 .388.068.413-.227.721-.239 .228-1.508-1.188-1.373-.96-2.88 1.297.382 1.21,2.149 1.68,3.36 .557.076.921-.038 1.2-.24-.142-1.378-1.271-1.769-1.44-3.12 2.202.438.771,4.51 3.84,4.08-.055-1.291-1.613-2.135-1.199-3.12 1.126.634 1.56,1.959 1.68,3.6 1.664,1.216 2.83,2.93 3.84,4.8 .541,4.317-6.229,5.751-6.96,2.16-.239-1.175.643-1.427.479-2.88 .421.587 1.448.566 2.16.24 .817.832.389,1.968.96,2.64 .172.651-1.132-.172-.96.479 .685.669 1.972-.096 2.16-.72-.529-1.87-1.511-3.289-2.399-4.8-2.057-.264-3.385-1.256-6-.96-.705.204.312.604 0,1.2-.501-.38-.471-1.29-1.44-1.2-.75,1.079.898,1.813.96,2.88-1.289-.311-1.061-2.14-2.16-2.64-1.263.41.769,1.521 0,2.16-.483-.637-.894-1.347-1.2-2.16-.349-.132-1.24.28-1.199-.24-.908.149.259,1.003-.96.96-1.387-2.854-2.675-5.806-4.08-8.64 1.405-.206.642,1.758 1.92,1.68 .874-.5-.129-1.394.72-1.92 2.452.269 4.346.697 3.84,4.08-.339-.363-1.166-.758-1.68-.24 .03.847.684,1.073.717,1.92zm-2.64-1.92c.513.767 1.225,1.335 2.16,1.68 .195-1.326-1.568-2.67-2.16-1.68zm15.36,8.16c-.005-.716.022-1.463-.72-1.44-.012.732.218,1.222.72,1.44z" fill-rule="evenodd"/>
 <path d="m140.4,34.32c-1.175,1.636 2.104,3.834 1.44,5.76-1.287-1.314-1.797-4.481-2.88-6.24 .264-.616.923-.836 1.439-1.2 .304.656.38,1.54.72,2.16-.24.741-.395-.521-.719-.48z" fill-rule="evenodd"/>
 <path d="m134.4,34.08c1.354.023 1.894,3.545 2.88,4.8-1.188.156-1.504-3.758-2.88-4.8z" fill-rule="evenodd"/>
 <path d="m136.56,35.04c1.178-.293 1.123,2.713 2.16,3.36-1.252.367-1.045-2.792-2.16-3.36z" fill-rule="evenodd"/>
 <path d="m160.08,38.64c-.804,1.372 1.126,2.069 1.2,3.36-1.264-1.296-2.175-2.944-2.88-4.8 1.056.089.877,1.781 2.16.96 .439,1.161 1.118,2.081 1.68,3.12-1.198-.403-1.32-1.881-2.16-2.64z" fill-rule="evenodd"/>
 <path d="m110.16,38.16c.895.219.709,1.482.96,2.16 .613,1.657 1.678,3.088 1.919,4.319-.692.05-.47-.522-.72-.96-.933-1.636-1.906-4.111-2.159-5.519z" fill-rule="evenodd"/>
 <path d="m115.44,38.16c1.192.24 1.216,1.941 1.68,2.88 .551,1.112 1.635,1.948 1.44,2.88-.971-.594-1.188-1.94-1.68-2.88-.488-.931-1.293-1.808-1.44-2.88z" fill-rule="evenodd"/>
 <path d="m8.88,39.6c1.094-.368 2.196,1.32 3.6,1.44-1.216.49-2.471-1.045-3.6-1.44z" fill-rule="evenodd"/>
 <path d="m108.96,40.08c.835-.188 1.046,2.309 1.68,3.12-.94-.66-.944-2.256-1.68-3.12z" fill-rule="evenodd"/>
 <path d="m163.68,40.56c1.187.124.83,1.219 1.2,1.921 .85,1.614 2.069,3.338 3.12,4.8 .946,1.317 2.599,2.29 2.64,3.84-1.196-.28-1.353-1.559-1.92-2.4-1.453-2.153-3.317-3.856-4.08-6.72-.401-.399-.972-.629-.96-1.441z" fill-rule="evenodd"/>
 <path d="m106.08,41.76c.669-.261 1.073,1.801 1.92,2.16-1.096.686-1.338-1.535-1.92-2.16z" fill-rule="evenodd"/>
 <path d="m162.24,42c1.969.731 3.991,4.756 5.521,7.2 .379.605 1.446.912.96,1.68-1.069-.206-1.026-1.477-1.44-2.16-.816-1.349-2.015-2.415-2.64-3.84-.938-.822-1.659-1.862-2.401-2.88z" fill-rule="evenodd"/>
 <path d="m166.32,42.48c.837.282.609,1.63 1.681,1.68 .528,2.211 2.83,3.862 3.119,5.52-1.514-2.487-3.764-4.237-4.8-7.2z" fill-rule="evenodd"/>
 <path d="m162,43.2c1.235.764 1.482,2.517 2.64,3.359-.734-.309-2.366-1.789-2.64-3.359z" fill-rule="evenodd"/>
 <path d="m194.64,44.16c.788.972 1.823,1.696 2.399,2.88-1.438-.321-1.841-1.678-2.399-2.88z" fill-rule="evenodd"/>
 <path d="m192.48,46.32c.789.491 1.249,1.311 1.68,2.16-.609-.671-1.442-1.119-1.68-2.16z" fill-rule="evenodd"/>
 <path d="m181.68,48.96c1.013-.048 2.282,1.714 2.88,2.88-1.734-.186-1.793-2.047-2.88-2.88z" fill-rule="evenodd"/>
</svg>
