<?xml version="1.0" encoding="utf-8"?>
<svg version="1.1" id="Layer_1" xmlns="http://www.w3.org/2000/svg" xmlns:xlink="http://www.w3.org/1999/xlink" x="0px" y="0px"
	 viewBox="0 0 5120 1525.467" enable-background="new 0 0 5120 1525.467" xml:space="preserve">
<path d="M0,463.19c0,198.789,0,400.16,0,598.949c61.96-54.215,121.339-100.685,193.626-147.156
	c5.163-2.582,5.163-7.745,10.327-10.327c51.634-33.562,98.104-61.96,149.737-92.94c46.47-25.817,92.94-46.47,139.411-72.287
	c113.594-54.215,227.188-95.522,351.108-126.502c237.514-59.379,467.283-74.869,712.543-30.98
	c193.626,36.143,361.435,95.522,529.244,201.371c7.745,5.163,12.908,5.163,20.654,10.327
	c100.685,67.124,185.881,134.247,276.239,211.698c12.908,10.327,28.398,20.653,41.307,30.98c2.582,2.582,5.163,7.745,7.745,10.327
	c30.98,25.817,61.96,49.052,95.522,74.869c80.032,59.379,157.482,111.012,242.678,157.482
	c25.817,12.908,49.052,25.817,74.869,38.725c410.487,206.534,862.28,255.586,1321.819,162.646
	c178.136-36.143,338.2-87.777,500.845-160.064c59.378-28.398,118.757-54.215,178.136-87.777
	c90.358-51.634,172.972-98.104,258.167-162.646c5.164-2.582,12.909-5.163,12.909-7.745c-2.582-198.789,5.163-400.16,2.582-598.949
	c-23.235,12.908-38.725,33.562-59.378,49.052c-25.817,18.072-46.47,33.562-72.287,54.215
	c-49.052,36.143-95.522,64.542-147.156,100.685c-30.98,20.653-59.378,33.562-87.777,49.052
	c-482.773,278.821-1066.233,343.363-1572.241,105.849c-10.327-5.163-20.653-12.908-30.98-18.072
	c-157.482-74.869-289.148-180.717-423.395-294.311c-85.195-69.705-162.646-134.247-258.168-193.626
	c-98.104-61.96-193.626-111.012-296.893-157.482c-56.797-25.817-113.594-43.889-172.972-64.542
	c-51.634-15.49-100.685-28.398-152.319-41.307c-25.817-5.163-46.47-7.745-72.287-15.49
	c-59.379-12.908-113.594-18.072-172.972-25.817c-54.215-5.163-108.43-7.745-162.646-10.327c-59.379-2.582-121.339,0-180.717,2.582
	c-67.124,5.163-131.666,12.908-198.789,20.653C991.364,34.631,929.404,47.54,862.28,63.03
	c-95.522,23.235-183.299,54.215-276.239,85.195c-20.653,7.745-38.725,15.49-59.379,23.235
	c-30.98,12.908-59.379,25.817-90.359,38.725C281.403,282.472,136.829,365.086,0,463.19z M12.908,600.018
	c41.307-30.98,82.614-59.379,126.502-87.777c2.582,10.327,7.745,23.235,2.582,33.562c-23.235,49.052-54.215,92.94-72.287,144.574
	c-20.653,15.49-38.725,30.98-59.379,43.889C10.327,690.377,10.327,643.907,12.908,600.018z M1394.106,184.368
	c0,23.235,28.398,30.98,49.052,30.98c23.235-2.582,51.634-12.908,51.634-38.725c2.582-25.817-30.98-33.562-51.634-30.98
	c-12.908,2.582-25.817,7.745-36.143,15.49c28.398-33.562,72.287-15.49,108.43-15.49c25.817,12.908,33.562,46.47,25.817,72.287
	c-2.582,5.163-5.163,10.327-7.745,18.072c-7.745,12.908-15.49,25.817-28.398,36.143c-111.012-12.908-222.024-7.745-333.036-2.582
	c2.582-41.307,12.908-80.032,12.908-121.339c-5.163,2.582-7.745,5.163-12.908,5.163c-61.96,10.327-118.757,30.98-178.136,46.47
	c-12.908,5.163-25.817,7.745-38.725,15.49c0,28.398-5.163,59.379-5.163,87.777c-67.124,10.327-131.666,30.98-196.207,46.47
	c30.98-41.307,36.143-92.94,56.797-136.829c198.789-51.634,402.742-80.032,606.694-72.287c-15.49,10.327-23.235,28.398-23.235,46.47
	V184.368z M1595.476,153.388c116.175,12.908,232.351,38.725,343.363,74.869c-15.49,33.562-36.143,64.542-54.215,98.104
	c-23.235-23.235-61.96-18.072-90.359-5.163c-85.195-20.653-170.391-38.725-258.168-46.47
	C1572.241,246.329,1618.711,202.44,1595.476,153.388z M1817.5,328.942c18.072-7.745,51.634-7.745,59.379,15.49
	c-7.745,0-15.49-5.163-23.235-7.745C1840.736,334.106,1830.409,331.524,1817.5,328.942z M1861.389,357.341
	c-20.653,12.908-49.052,15.49-72.287,5.163c-10.327-5.163-7.745-20.653,0-20.653
	C1814.919,339.269,1838.154,352.177,1861.389,357.341z M1755.54,321.197c0,2.582-2.582,7.745-2.582,10.327
	c7.745,2.582,18.072,2.582,25.817,5.163c-10.327,10.327-10.327,28.398,2.582,36.143c30.98,15.49,67.124,10.327,92.94-12.908
	c10.327,5.163,20.653,7.745,30.98,10.327l2.582-5.163c41.307,15.49,82.614,28.398,121.339,46.47
	c-25.817,5.163-51.633,12.908-72.287,33.562c-18.072,20.653-23.235,49.052-20.653,77.45c-23.235-12.908-46.47-18.072-69.705-25.817
	c-7.745-2.582-15.49-7.745-23.235-10.327c-183.299-56.797-369.18-87.777-557.642-82.614
	c72.287-23.235,136.829-51.634,203.953-95.522c12.908-7.745,25.817-12.908,36.143-25.817
	C1603.221,292.799,1680.672,303.126,1755.54,321.197z M2297.692,411.556c-15.49,12.908-30.98,28.398-46.47,41.307
	c-15.49-5.163-25.817-18.072-38.725-25.817c-10.327,10.327-20.653,20.653-30.98,30.98c12.908,7.745,25.817,18.072,38.725,25.817
	c-2.582,2.582-7.745,5.163-10.327,5.163c-41.307-18.072-77.45-43.889-118.757-59.379c12.908-18.072,25.817-36.143,38.725-56.797
	c-2.582,0-7.745-2.582-10.327-2.582c-25.817,18.072-51.634,25.817-77.45,36.143c-51.634-23.235-103.267-41.307-157.482-59.379
	c10.327-12.908,15.49-28.398,25.817-41.307c12.908-25.817,25.817-49.052,38.725-74.869c46.47,15.49,95.522,33.562,141.992,51.634
	c7.745,2.582,15.49,10.327,23.235,12.908c54.215,23.235,108.43,46.47,157.482,77.45c-5.163,5.163-7.745,7.745-12.908,12.908
	C2274.457,390.903,2284.784,403.811,2297.692,411.556z M2284.784,530.313l-2.582,2.582c-18.072-7.745-30.98-20.653-49.052-28.398
	c2.582-2.582,5.163-7.745,7.745-7.745C2256.386,507.078,2269.294,519.986,2284.784,530.313z M2271.876,468.353
	c15.49-12.908,30.98-28.398,46.47-41.307c18.072,7.745,30.98,23.235,46.47,33.562c-18.072,12.908-30.98,30.98-49.052,41.307
	C2302.856,489.006,2287.366,478.68,2271.876,468.353z M2274.457,540.64c-18.072,15.49-33.562,33.562-54.215,46.47
	c7.745,5.163,12.908,10.327,20.653,15.49c18.072-15.49,36.144-33.562,54.215-49.052c41.307,28.398,82.614,56.797,123.92,87.777
	c12.908,10.327,25.817,23.235,38.725,33.562c-23.235,0-43.888,25.817-33.562,46.47c18.072,33.562,72.287,43.888,98.104,12.908
	c59.379,54.215,113.594,111.012,178.136,160.064c-33.562,28.398-64.542,61.96-100.686,90.359
	c-33.562-20.653-59.378-49.052-90.359-74.869c-7.745-10.327-18.072-18.072-28.398-25.817c-2.582-2.582-5.163-7.745-7.745-10.327
	c-7.745-5.163-12.908-10.327-20.654-15.49c-64.542-64.542-134.247-116.175-209.116-172.972
	c-49.052-33.562-95.522-61.96-147.156-90.359c-30.98-15.49-59.378-28.398-90.359-43.888c28.398-36.143,54.215-74.869,80.032-113.594
	c41.307,15.49,77.45,38.725,116.176,59.379c-12.908,15.49-30.98,30.98-46.47,43.888c7.745,5.163,12.908,10.327,20.653,15.49
	c15.49-15.49,33.562-28.398,49.052-46.47C2240.896,522.568,2258.967,527.731,2274.457,540.64z M2336.418,517.405
	c18.072-12.908,33.562-25.817,49.052-41.307c15.49,12.908,30.98,25.817,46.47,38.725c7.745-10.327,18.072-15.49,28.398-23.235
	c51.634,41.307,103.267,82.614,152.319,126.502c-28.398,33.562-56.797,67.124-87.777,98.104
	c2.582-10.327-5.164-18.072-10.327-25.817c-10.327-10.327-25.817-18.072-41.307-15.49c-38.725-36.143-80.032-64.542-121.339-95.522
	c10.327-7.745,20.653-15.49,30.98-23.235C2367.398,543.221,2351.908,530.313,2336.418,517.405z M2315.764,556.13
	c-2.582-5.163-7.745-7.745-12.908-10.327C2310.601,545.803,2310.601,553.548,2315.764,556.13z M2656.546,705.867
	c-15.49,30.98-46.47,43.888-77.45,49.052c43.888,0,98.104-23.235,100.685-74.869c129.084,118.757,271.076,219.443,431.14,291.729
	c-10.327,15.49-15.49,33.562-23.235,49.052c-36.144,10.327-74.869,20.653-105.849,41.307
	c-41.307-23.235-85.195-46.47-126.502-72.287c12.908-15.49,28.398-28.398,41.307-43.888c-23.235-10.327-41.307-23.235-64.542-38.725
	c-28.398-20.653-54.215-38.725-80.032-59.379c-12.908,12.908-30.98,25.817-43.888,38.725c-20.654-15.49-38.725-30.98-59.379-46.47
	c-2.582-2.582-5.163-7.745-7.745-10.327c-41.307-30.98-72.287-69.705-111.012-103.267c30.98-33.562,61.96-64.542,90.359-100.685
	c10.327,10.327,23.235,15.49,30.98,28.398C2659.127,669.724,2664.291,687.795,2656.546,705.867z M2666.872,667.142
	c2.582,2.582,10.327-2.582,0,12.908C2666.872,674.887,2666.872,672.305,2666.872,667.142z M3317.455,1100.864
	c-10.327,10.327-7.745,28.398,2.582,38.725c12.908,12.908,33.562,15.49,51.634,12.908c18.072-5.163,36.143-18.072,36.143-38.725
	c-5.163-33.562-49.052-41.307-74.869-28.398c20.654-12.908,46.47-18.072,72.287-10.327c23.235,7.745,38.725,25.817,43.888,49.052
	c5.163,33.562-12.908,64.542-33.562,87.777c-51.634-10.327-103.267-20.653-152.319-38.725c-7.745-2.582-18.072-2.582-25.817-5.163
	c-59.379-23.235-121.339-41.307-178.136-69.705c7.745-12.908,10.327-28.398,18.072-41.307c15.49,0,30.98-10.327,46.47-18.072
	c18.072-10.327,33.562-23.235,43.888-43.888c30.98,12.908,61.96,25.817,92.94,36.143c30.98,10.327,61.96,20.653,95.522,28.398
	C3340.69,1069.884,3322.618,1080.21,3317.455,1100.864z M3493.009,1090.537c72.287,18.072,147.156,20.653,222.024,28.398
	c-18.072,38.725-36.143,77.45-51.633,118.757c-10.327-5.163-23.235-7.745-36.144-5.163c-10.327,2.582-20.654,7.745-30.98,7.745
	c-51.634-2.582-100.685-12.908-149.737-20.653C3482.682,1191.222,3526.571,1137.007,3493.009,1090.537z M3436.212,1227.366
	c49.052,7.745,95.522,18.072,144.574,20.653c-15.49,10.327-36.144,20.653-28.398,41.307c5.163,10.327,20.653,12.908,33.562,12.908
	c30.98-2.582,61.96-18.072,80.032-46.47c72.287,5.163,147.156,2.582,219.443,2.582c-18.072,38.725-30.98,82.614-46.47,123.92
	c-211.698,10.327-425.977-18.072-629.929-77.45C3289.056,1299.653,3369.088,1276.418,3436.212,1227.366z M3725.36,1118.935
	c18.072,0,38.725-2.582,56.797,2.582c12.908,43.889-28.398,80.032-54.215,111.012c36.144-25.817,72.287-64.542,67.124-111.012
	c61.96,0,123.921-5.163,185.881-7.745c7.745,0,18.072-5.163,25.817-5.163c82.614-7.745,162.646-20.653,242.678-41.307
	c-20.654,46.47-36.144,92.94-54.215,139.411c-95.522,18.072-191.044,33.562-286.566,38.725c0-10.327-5.163-18.072,0-25.817
	c0,15.49-7.745,0-10.327,2.582c-7.745,7.745-7.745,18.072-10.327,25.817c-72.287,2.582-147.156,5.163-219.442-2.582
	c15.49-30.98,28.398-61.96,41.307-92.94C3715.033,1142.171,3720.197,1129.262,3725.36,1118.935z M3743.432,1077.629
	c12.908,10.327,28.398,18.072,36.143,33.562c-15.49,0-33.562-5.163-49.052-2.582
	C3733.105,1098.282,3738.268,1087.955,3743.432,1077.629z M4719.305,1010.505c-25.816,2.582-43.888,23.235-59.378,41.307
	c-28.398,12.908-59.378,23.235-87.777,38.725c10.327-49.052,25.817-95.522,36.144-144.574
	c33.562-18.072,69.705-33.562,103.267-49.052C4711.561,935.636,4716.724,971.78,4719.305,1010.505z M4716.724,847.859
	c20.653-15.49,43.889-30.98,67.124-46.47c38.725-30.98,77.451-59.379,113.594-90.359c0,20.653,5.164,41.307,7.745,61.96
	c-59.378,38.725-121.339,77.45-185.881,108.43C4719.305,871.094,4721.887,858.186,4716.724,847.859z M4649.6,1064.72
	c-10.327,10.327-18.072,28.398-7.745,41.307c10.327,7.745,23.235,0,30.98-5.163c28.398-18.072,51.633-43.889,59.378-74.869
	c38.725-20.653,77.45-43.889,118.757-64.542c28.398-15.49,51.634-36.143,80.032-49.052c30.98-18.072,59.378-41.307,90.359-59.379
	c0,38.725,0,77.45,0,116.175c-5.164,0-12.909,0-18.072,2.582c-25.817,18.072-51.634,36.143-64.542,64.542
	c-18.072,12.908-36.144,20.653-54.215,30.98c-121.339,72.287-240.096,131.666-369.18,175.554
	c30.98-41.307,38.725-92.94,51.633-141.992C4595.385,1090.537,4621.202,1075.047,4649.6,1064.72z M5016.198,1005.342
	c-15.49,25.817-33.562,51.634-59.378,61.96c-7.745,2.582-12.909,12.908-20.654,5.163c-2.582-5.163,0-12.908,2.582-15.49
	C4964.565,1038.903,4990.381,1023.413,5016.198,1005.342z M4949.075,1038.903c2.582,0,2.582-2.582,5.163-2.582
	C4951.656,1036.322,4951.656,1038.903,4949.075,1038.903z M4967.146,1018.25c15.49-15.49,30.98-36.143,54.215-36.143
	C5003.29,992.433,4985.218,1007.923,4967.146,1018.25z M4559.241,1095.7c-56.797,18.072-111.012,41.307-167.809,59.379
	c10.327-30.98,20.653-64.542,30.98-95.522c56.797-15.49,108.43-38.725,162.646-61.96
	C4577.313,1031.158,4566.986,1062.139,4559.241,1095.7z M4556.66,1106.027c-12.908,30.98-15.49,61.96-28.398,92.94
	c-5.163-7.745-12.908-2.582-18.072-2.582c-41.307,12.908-74.869,43.889-95.522,82.614c-28.398,10.327-56.797,20.653-87.777,25.817
	c7.745-12.908,20.653-20.653,23.235-38.725c0-2.582,5.164-2.582,5.164-5.163c7.745-33.562,23.235-61.96,30.98-95.522
	C4445.647,1149.916,4499.863,1124.099,4556.66,1106.027z M3949.966,1309.98c-15.49-15.49-28.398-33.562-38.725-54.215
	c92.94-5.163,185.881-20.653,278.821-38.725c-10.327,30.98-23.235,59.379-36.144,90.359c0-2.582-2.582-5.163-2.582-5.163
	c-46.47-2.582-90.359,28.398-116.175,64.542c-25.817,0-51.634,7.745-77.45,7.745
	C3970.619,1353.868,3968.037,1328.051,3949.966,1309.98z M3947.384,1356.45c0,7.745,0,12.908-2.582,20.653
	c-30.98,0-61.96,5.163-92.94,5.163c7.745-25.817,18.072-51.634,25.817-77.45c10.327,10.327,25.817,15.49,38.725,20.653
	c5.163,5.163,12.908,5.163,18.072,10.327C3942.221,1340.96,3942.221,1348.705,3947.384,1356.45z M3903.496,1302.234
	c15.49-2.582,28.398,5.163,41.307,15.49c2.582,2.582,5.163,10.327,0,15.49C3937.057,1317.725,3918.986,1307.398,3903.496,1302.234z
	 M4151.336,1330.633c25.817-33.562,36.144-77.45,51.634-116.175c56.797-12.908,113.594-28.398,170.391-43.889
	c-10.327,30.98-18.072,61.96-30.98,90.359c-15.49-7.745-30.98,0-43.888,5.163c-28.398,15.49-56.797,33.562-72.287,64.542
	c-28.398,5.163-59.378,10.327-87.777,18.072C4143.591,1343.541,4148.755,1338.378,4151.336,1330.633z M4378.524,1160.242
	c-56.797,12.908-113.594,30.98-170.391,43.889c12.909-30.98,23.235-61.96,36.144-92.94c54.215-15.49,111.012-28.398,165.228-46.47
	C4399.177,1095.7,4386.269,1126.681,4378.524,1160.242z M2723.669,889.166c41.307,30.98,82.614,61.96,126.502,90.359
	c-2.582,2.582-5.163,5.163-5.163,5.163c-46.47-28.398-85.196-59.379-126.502-90.359
	C2721.087,891.748,2721.087,891.748,2723.669,889.166z M2731.414,881.421c2.582-2.582,5.164-5.163,5.164-5.163
	c28.398,18.072,49.052,38.725,77.45,54.215c5.163,5.163,10.327,12.908,18.072,15.49c10.327,5.163,18.072,15.49,30.98,18.072
	c-2.582,2.582-5.163,5.163-5.163,5.163C2811.446,945.963,2772.721,909.82,2731.414,881.421z M2837.263,989.852
	c-33.562,33.562-64.542,64.542-98.104,98.104c-43.888-30.98-87.777-59.379-129.084-95.522c18.072-15.49,33.562-33.562,54.215-49.052
	c10.327-7.745,15.49-18.072,25.817-25.817c7.745-5.163,12.908-10.327,20.653-15.49
	C2752.068,933.055,2793.375,964.035,2837.263,989.852z M2847.59,997.597c41.307,25.817,80.032,49.052,123.92,69.705
	c-10.327,10.327-20.653,18.072-28.398,28.398c-12.908,23.235-20.653,46.47-12.908,72.287c10.327,28.398,41.307,49.052,72.287,51.634
	c0,2.582-2.582,7.745-2.582,7.745c-18.072-5.163-33.562-15.49-49.052-23.235c-7.745-5.163-18.072-5.163-25.817-10.327
	c-59.379-33.562-118.757-64.542-175.554-100.685C2783.048,1062.139,2811.446,1025.995,2847.59,997.597z M2989.582,1186.059
	c-5.163-15.49-5.163-38.725,10.327-46.47c10.327-7.745,25.817-18.072,38.725-10.327c-7.745,28.398-25.817,56.797-33.562,85.195
	c-30.98-5.163-64.542-23.235-67.124-56.797c0-33.562,25.817-64.542,56.797-77.45c15.49,10.327,33.562,15.49,51.634,23.235
	c-33.562-2.582-72.287,15.49-72.287,51.634C2976.674,1165.406,2981.837,1178.314,2989.582,1186.059z M3046.379,1129.262
	c12.908,5.163,20.654,15.49,23.235,28.398c5.163,30.98-25.817,56.797-56.797,56.797
	C3020.562,1186.059,3036.052,1157.661,3046.379,1129.262z M3087.686,1121.517c15.49,7.745,30.98,15.49,46.47,20.653
	c41.307,12.908,80.032,28.398,121.339,41.307c49.052,15.49,100.685,23.235,149.737,38.725
	c-54.215,46.47-123.921,64.542-196.208,77.45c-7.745,0-18.072,0-25.817-2.582c-61.96-20.653-118.757-41.307-178.135-67.124
	c2.582-2.582,2.582-7.745,5.163-7.745c28.398,2.582,54.215-7.745,72.287-28.398S3105.757,1144.752,3087.686,1121.517z
	 M3165.136,982.107c-12.908-5.163-25.817-10.327-38.725-15.49c15.49-12.908,30.98-30.98,54.215-30.98
	c2.582,0,7.745,5.163,7.745,7.745C3185.789,958.872,3178.044,971.78,3165.136,982.107z M3154.809,989.852
	c-18.072,10.327-38.725,23.235-59.378,28.398c2.582-18.072,18.072-28.398,25.817-43.888
	C3131.574,982.107,3144.482,984.688,3154.809,989.852z M3069.614,1059.557c-5.163,12.908-10.327,23.235-15.49,36.143
	c-15.49-5.163-28.398-12.908-43.888-20.653C3030.889,1072.465,3048.96,1064.72,3069.614,1059.557z M2666.872,651.652
	c-5.163-10.327-5.163-23.235-12.908-30.98c12.908,7.745,18.072,23.235,18.072,38.725
	C2669.454,656.815,2669.454,654.234,2666.872,651.652z M2643.637,633.58c-5.163-5.163-12.908-10.327-15.49-15.49
	c0-5.163,5.163-10.327,10.327-12.908C2635.892,615.508,2641.055,623.253,2643.637,633.58z M2073.087,437.373
	c-25.817,36.143-51.634,72.287-74.869,111.012c-20.653-7.745-38.725-18.072-59.379-25.817c2.582-30.98,12.908-61.96,41.307-72.287
	C2008.545,437.373,2042.106,439.954,2073.087,437.373z M950.057,427.046c2.582-38.725,5.163-80.032,10.327-118.757
	c67.124-12.908,131.666-20.653,198.789-28.398c2.582,10.327-5.163,20.653-2.582,30.98c-20.653-5.163-38.725,0-56.797,12.908
	c-15.49,12.908-36.143,28.398-36.143,51.634c0,10.327,12.908,12.908,20.653,12.908c23.235-2.582,43.889-15.49,61.96-30.98
	c20.653-20.653,20.653-49.052,23.235-77.45c108.43-7.745,219.443-7.745,327.873,0c-61.96,56.797-144.574,87.777-219.443,123.921
	c-111.012,0-222.024,12.908-330.455,36.143C950.057,434.791,950.057,432.209,950.057,427.046z M149.737,726.521
	c-10.327-2.582-18.072-10.327-18.072-20.653c0-23.235,12.908-46.47,30.98-61.96c5.163,28.398,7.745,56.797,12.908,85.195
	c-20.653,20.653-56.797,49.052-85.195,28.398c-10.327-20.653-15.49-49.052,0-69.705c10.327-12.908,28.398-18.072,41.307-28.398
	c-10.327,15.49-18.072,33.562-15.49,51.634S136.829,726.521,149.737,726.521z M167.809,641.325
	c10.327-10.327,28.398-18.072,36.143-5.163c20.653,28.398-2.582,61.96-20.653,85.195
	C175.554,695.54,175.554,667.142,167.809,641.325z M222.024,600.018c23.235-12.908,46.47-28.398,69.705-41.307
	c-5.163,7.745-2.582,15.49,2.582,20.653c5.163,2.582,10.327,2.582,15.49,0c30.98-15.49,54.215-41.307,74.869-69.705
	c28.398-15.49,54.215-28.398,82.614-41.307c0,5.163,0,10.327,0,15.49c2.582,7.745,12.908,5.163,20.653,5.163
	c33.562-10.327,54.215-36.143,74.869-61.96c28.398-12.908,56.797-20.653,85.195-33.562c0,7.745-2.582,20.653,5.163,20.653
	c36.143,5.163,67.124-25.817,90.359-51.634c69.705-18.072,136.829-38.725,206.534-51.634c-5.163,33.562-7.745,67.124-7.745,100.685
	c-7.745-5.163-18.072,0-25.817,2.582c-20.653,5.163-38.725,23.235-56.797,43.889c-5.163,5.163-15.49,2.582-25.817,5.163
	c-25.817,7.745-54.215,15.49-80.032,23.235c-7.745,2.582-18.072,7.745-25.817,10.327c-5.163,2.582-10.327,0-15.49,2.582
	c-126.502,41.307-242.678,92.94-358.853,154.901c-56.797,33.562-113.594,64.542-167.809,103.267
	c2.582-10.327-7.745-20.653-2.582-28.398c18.072-18.072,28.398-38.725,41.307-59.379
	C234.933,649.07,237.514,620.672,222.024,600.018z M570.551,414.138c18.072-23.235,23.235-51.634,30.98-80.032
	c7.745-20.653,12.908-41.307,20.653-61.96c56.797-23.235,116.175-36.143,172.972-56.797c-7.745,33.562-20.653,67.124-33.562,98.104
	c-10.327-7.745-23.235,0-33.562,2.582c-30.98,15.49-56.797,38.725-74.869,67.124C624.766,393.484,598.949,403.811,570.551,414.138z
	 M962.966,251.492c67.124-23.235,136.829-41.307,206.534-59.379c0,25.817-7.745,54.215-7.745,80.032
	c-67.124,5.163-134.247,15.49-201.371,28.398C960.384,285.054,965.547,266.982,962.966,251.492z M650.583,171.46
	c0-2.582,0-7.745,2.582-7.745c59.379-23.235,118.757-38.725,180.717-54.215c0,2.582-2.582,7.745-2.582,7.745
	C769.34,132.735,709.961,150.807,650.583,171.46z M648.001,181.787c59.379-20.653,121.339-38.725,180.717-56.797
	c-7.745,28.398-20.653,54.215-28.398,82.614c-59.379,12.908-118.757,33.562-175.554,54.215
	C632.511,236.002,642.838,210.185,648.001,181.787z M637.674,174.042c-61.96,20.653-121.339,46.47-180.717,72.287
	c0-2.582,0-5.163,2.582-7.745c51.634-23.235,100.685-41.307,152.319-61.96c10.327-2.582,18.072-2.582,28.398-7.745
	C640.256,171.46,637.674,171.46,637.674,174.042z M456.957,256.655c56.797-28.398,118.757-49.052,178.136-69.705
	c-7.745,25.817-15.49,54.215-23.235,80.032c-59.379,20.653-116.175,49.052-175.554,72.287
	C444.048,310.871,451.793,285.054,456.957,256.655z M609.276,277.309c-7.745,10.327-7.745,23.235-12.908,36.143
	c-5.163,20.653-10.327,43.889-18.072,64.542c-7.745-5.163-18.072-2.582-25.817,0c-33.562,18.072-61.96,46.47-80.032,80.032
	c-28.398,10.327-54.215,23.235-80.032,38.725c7.745-12.908,12.908-28.398,15.49-43.889c10.327-36.143,20.653-67.124,25.817-103.267
	c43.889-15.49,85.195-41.307,131.666-54.215c5.163-2.582,7.745-5.163,12.908-7.745C588.622,282.472,598.949,279.89,609.276,277.309z
	 M397.578,458.026c-25.817-2.582-46.47,15.49-64.542,33.562c-15.49,18.072-28.398,36.143-38.725,56.797
	c-28.398,15.49-56.797,30.98-82.614,49.052c-15.49-5.163-36.143,5.163-46.47,20.653c-5.163-15.49-10.327-30.98-5.163-43.888
	c10.327-33.562,36.143-64.542,43.889-100.685c43.889-25.817,87.777-51.634,134.247-77.45c5.163-2.582,10.327-2.582,15.49-5.163
	c23.235-12.908,43.889-23.235,67.124-33.562C415.65,390.903,402.742,424.464,397.578,458.026z M188.462,473.516
	c-12.908,7.745-25.817,15.49-38.725,23.235c2.582-30.98,12.908-61.96,41.307-80.032c2.582,0,5.163,0,5.163,0
	C209.116,434.791,193.626,455.444,188.462,473.516z M180.717,486.425c-7.745,18.072-18.072,36.143-30.98,51.634
	c2.582-10.327-2.582-20.653-2.582-30.98C160.064,504.496,170.391,494.17,180.717,486.425z M152.319,581.947
	c-2.582,15.49,10.327,28.398,2.582,41.307c-10.327,23.235-38.725,33.562-59.379,49.052
	C108.43,638.744,131.666,610.345,152.319,581.947z M10.327,744.592c20.653-10.327,36.143-28.398,56.797-41.307
	c-2.582,25.817-2.582,56.797,20.653,67.124c33.562,15.49,61.96-12.908,87.777-33.562c2.582,10.327,10.327,20.653-7.745,33.562
	c-56.797,33.562-103.267,77.45-157.482,113.594C10.327,837.533,10.327,791.063,10.327,744.592z M3699.543,1498.442
	c2.582,10.327,12.908,10.327,20.654,15.49c-265.913-2.582-529.244-54.215-774.503-160.064
	c-30.98-12.908-59.379-25.817-90.359-41.307c-25.817-12.908-49.052-25.817-74.869-38.725c-23.235-15.49-46.47-28.398-72.287-41.307
	c-59.379-38.725-111.012-74.869-170.391-116.176c-87.777-64.542-157.482-129.084-242.677-196.207
	c-2.582-2.582-5.163-7.745-7.745-10.327c-118.757-92.94-234.933-170.391-369.18-229.769c-5.163-2.582-7.745,0-12.908-2.582
	C1267.603,393.484,518.917,602.6,10.327,1041.485c0-49.052,0-95.522,0-144.574c54.215-46.47,111.012-85.195,170.391-126.502
	c0,23.235,5.163,43.889-7.745,64.542c-2.582,2.582-5.163,7.745-7.745,12.908c-10.327,12.908-20.653,30.98-41.307,28.398
	c-5.163-2.582-2.582-7.745-2.582-10.327c12.908-12.908,23.235-23.235,25.817-41.307c0-10.327-5.163-15.49-15.49-12.908
	c-23.235,12.908-36.143,38.725-36.143,64.542c0,7.745,5.163,10.327,10.327,12.908c10.327,2.582,18.072-2.582,28.398-5.163
	c5.163-2.582,12.908-7.745,18.072-12.908c15.49-15.49,28.398-30.98,33.562-51.634c5.163-18.072,2.582-36.143,2.582-54.215
	c203.952-134.247,431.14-237.514,668.654-296.893c0,7.745-7.745,15.49,2.582,25.817c33.562,2.582,59.379-20.653,80.032-43.888
	c67.124-15.49,134.247-23.235,201.371-30.98c54.215-5.163,105.849-7.745,160.064-5.163c56.797,0,113.594,0,170.391,5.163
	c90.359,7.745,175.554,23.235,265.913,49.052c69.705,18.072,136.829,36.143,201.371,67.124c2.582,2.582,2.582,5.163,2.582,7.745
	c0-2.582,0-5.163,0-7.745c2.582,0,7.745,0,10.327,2.582c12.908,7.745,25.817,12.908,38.725,18.072
	c-2.582,7.745-7.745,15.49-12.908,20.653c-15.49-25.817-51.634-28.398-77.45-15.49c-20.653,10.327-41.307,30.98-25.817,54.215
	c10.327,12.908,28.398,15.49,43.888,15.49c20.653-2.582,38.725-10.327,51.634-23.235c12.908-15.49,20.653-30.98,30.98-46.47
	c193.626,82.614,353.69,216.861,511.172,364.016c18.072,15.49,33.562,25.817,51.634,41.307c7.745,10.327,20.653,15.49,25.817,25.817
	c2.582,5.163-5.163,10.327-10.327,12.908c-2.582,2.582-2.582,5.163-5.163,7.745c-10.327-41.307-67.124-49.052-100.685-30.98
	c-10.327,7.745-15.49,18.072-12.908,30.98c10.327,25.817,41.307,33.562,67.124,33.562c30.98-2.582,54.215-25.817,74.869-46.47
	c43.888,30.98,82.614,67.124,131.666,92.94c-7.745,7.745-12.908,12.908-20.653,20.653c0-12.908-12.908-20.653-23.235-25.817
	c-23.235-10.327-51.634-12.908-74.869-2.582c-12.908,5.163-23.235,20.653-18.072,33.562c2.582,2.582,5.163,7.745,7.745,12.908
	c43.888,36.143,105.849,12.908,136.829-30.98c82.614,49.052,165.227,98.104,253.004,134.247
	c-5.163,20.653-12.908,41.307-28.398,56.797c-12.908,10.327-30.98,12.908-46.47,7.745c-10.327-5.163-25.817-15.49-18.072-28.398
	c15.49,7.745,43.888,2.582,41.307-20.653c-5.163-20.653-25.817-20.653-41.307-18.072c-12.908,5.163-23.235,18.072-20.654,28.398
	c0,33.562,41.307,56.797,74.869,46.47c12.908-5.163,20.654-12.908,28.398-23.235v-5.163c10.327-10.327,10.327-25.817,18.072-38.725
	c56.797,20.653,111.012,46.47,167.809,61.96c-5.163,0-10.327,0-15.49,2.582c7.745,0,15.49-2.582,23.235,0
	c214.279,69.705,436.303,92.94,658.328,87.777c-7.745,18.072-12.908,38.725-20.653,56.797c-23.235-18.072-51.634-5.163-74.869,2.582
	C3722.778,1459.717,3696.961,1475.207,3699.543,1498.442z M5106.557,1059.557c-59.379,43.889-121.339,82.614-185.881,118.757
	c-5.164,2.582-7.745,7.745-12.909,10.327c-206.534,118.757-410.486,203.953-642.837,260.749c-10.327,2.582-20.653,2.582-30.98,5.163
	c-162.646,41.307-320.128,54.215-482.774,59.379c25.817-5.163,51.634-15.49,67.124-38.725c12.908-25.817,18.072-56.797,30.98-82.614
	c30.98-5.163,59.379-2.582,90.359-7.745c-10.327,20.653-28.398,38.725-46.47,51.634c20.654-12.908,43.889-30.98,56.797-51.634
	c28.398-5.163,54.215-2.582,82.614-10.327c-2.582,7.745,2.582,18.072,10.327,18.072c28.398,2.582,54.215-10.327,74.869-28.398
	c36.143-7.745,69.705-20.653,105.849-20.653c0,0-2.582,10.327,5.163,12.908c7.745,2.582,15.49,2.582,23.235,0
	c5.163-2.582,10.327-5.163,18.072-7.745c15.49-7.745,30.98-18.072,43.888-30.98c33.562-7.745,64.542-18.072,98.104-28.398
	c0,2.582,0,7.745,2.582,10.327c15.49,7.745,33.562,0,46.47-7.745c20.653-12.908,36.144-30.98,56.797-41.307
	c20.653-7.745,38.725-12.908,59.378-20.653c5.164-2.582,7.745-5.163,12.909-7.745c118.757-46.47,232.351-105.849,340.781-172.972
	c-10.327,7.745-23.235,12.908-33.562,23.235c0,2.582,0,7.745,0,10.327c10.327-5.163,18.072-12.908,28.398-18.072
	c0,7.745,0,18.072,5.164,18.072c46.47,0,80.032-46.47,98.104-85.195c7.745-12.908,23.235-15.49,33.562-25.817
	c0-2.582,0-5.163,0-7.745c15.49-10.327,28.398-20.653,43.889-30.98C5106.557,974.362,5106.557,1018.25,5106.557,1059.557z
	 M5106.557,922.728c-7.745,5.163-15.49,10.327-23.235,18.072c-18.072,12.908-33.562,23.235-51.633,33.562
	c0-43.888,0-85.195,0-129.084c25.816-20.653,51.633-36.143,74.869-56.797C5106.557,832.369,5106.557,878.84,5106.557,922.728z
	 M5109.139,778.154c-25.817,18.072-51.634,38.725-77.45,56.797c0-38.725,0-77.45,0-116.175c-2.582,2.582-7.745,5.163-10.327,7.745
	c-2.582,38.725,0,77.45,0,116.175c-69.706,46.47-136.829,87.777-209.116,131.666c-5.163,2.582-10.327,2.582-15.49,5.163
	c-23.235,12.908-43.889,25.817-67.124,36.143c0-41.307-7.745-82.614-7.745-123.92c61.96-36.143,123.92-67.124,183.299-108.43
	c5.164,15.49,2.582,30.98,7.745,46.47c-12.908,2.582-23.235,7.745-33.562,18.072c-18.071,18.072-33.562,36.143-41.307,61.96
	c0,7.745-7.745,18.072,2.582,23.235c5.164,5.163,12.909,5.163,20.654,0c23.235-15.49,38.725-33.562,54.215-56.797
	c7.745-10.327,7.745-25.817,7.745-36.143c0-20.653-2.582-41.307-7.745-61.96c25.817-15.49,49.052-33.562,74.869-49.052
	c5.164-2.582,5.164-7.745,10.327-10.327c41.307-23.235,72.287-54.215,108.431-80.032
	C5109.139,685.214,5109.139,731.684,5109.139,778.154z M5109.139,628.417c-20.653,15.49-38.725,30.98-59.378,46.47
	c-46.47,33.562-87.777,64.542-134.248,92.94c-7.745-36.143-7.745-72.287-15.49-108.43
	c-59.379,56.797-129.084,103.267-193.626,152.319c-2.582,25.817,5.164,49.052,2.582,74.869
	c-82.613,43.889-165.227,77.45-253.004,111.012c-5.163,2.582-10.327,0-15.49,2.582c-108.431,43.889-219.442,67.124-338.2,87.777
	c-105.849,15.49-206.534,25.817-309.801,23.235c-18.072-33.562-28.398-72.287-25.817-111.012
	c-12.908,28.398-25.817,56.797-38.725,85.195c-2.582,7.745-2.582,15.49-7.745,23.235c-80.032-5.163-157.482-15.49-237.514-28.398
	c-28.398-25.817-69.705-33.562-108.43-25.817c-67.124-20.653-134.247-38.725-198.789-67.124
	c18.072-23.235,33.562-51.634,30.98-82.614c-2.582-2.582-5.163-7.745-10.327-7.745c-36.143,7.745-59.378,36.143-80.032,64.542
	c-160.064-72.287-304.638-175.554-433.722-294.311c-5.163-30.98-2.582-61.96,0-92.94c0-12.908,0-25.817,7.745-38.725
	c2.582-5.163-5.163-5.163-7.745-7.745c-18.072,28.398-41.307,54.215-61.96,82.614c-10.327-7.745-20.654-15.49-28.398-25.817
	c-15.49-15.49-33.562-25.817-49.052-41.307c-41.307-33.562-82.614-64.542-126.502-92.94c20.653-18.072,41.307-36.143,61.96-54.215
	c-7.745-7.745-12.908-12.908-20.654-20.653c-18.072,20.653-41.307,38.725-61.96,56.797c-18.072-7.745-30.98-23.235-46.47-33.562
	c20.654-18.072,43.889-33.562,59.379-56.797c-5.163-7.745-12.908-10.327-20.654-15.49c-20.653,18.072-41.307,36.143-59.378,56.797
	c-12.908-10.327-25.817-20.653-38.725-25.817c-2.582-2.582-7.745,7.745-10.327,5.163
	c-105.849-54.215-211.698-103.267-325.291-139.411c15.49-33.562,36.143-67.124,51.634-100.685c-2.582,0-7.745-2.582-10.327-2.582
	c-20.653,33.562-36.143,67.124-51.634,100.685c-7.745-2.582-18.072-7.745-25.817-10.327c-7.745-2.582-18.072-2.582-25.817-5.163
	c-100.685-30.98-203.952-49.052-307.219-61.96c-41.307-36.143-105.849-36.143-154.901-12.908c-74.869-2.582-152.319,0-227.188,5.163
	c-54.215,2.582-105.849,10.327-160.064,18.072c-80.032,12.908-154.901,30.98-229.769,49.052
	c15.49-41.307,28.398-85.195,43.889-126.502c-95.522,23.235-191.044,54.215-283.984,87.777c-5.163,2.582-7.745,5.163-12.908,7.745
	c-36.143,10.327-69.705,25.817-103.267,41.307c0,7.745-5.163,15.49-7.745,23.235c-5.163,20.653-7.745,41.307-12.908,61.96
	c-5.163,18.072-10.327,30.98-12.908,49.052c-23.235,10.327-43.889,20.653-67.124,33.562c-5.163,2.582-10.327,2.582-15.49,5.163
	c-23.235,12.908-43.888,25.817-67.124,36.143c-23.235,12.908-46.47,23.235-67.124,41.307c5.163-25.817,7.745-54.215-7.745-77.45
	c-5.163-5.163-15.49-2.582-20.653,2.582c-30.98,30.98-41.307,74.869-38.725,116.175c-43.889,28.398-87.777,54.215-126.502,87.777
	c0-43.888,0-85.195,0-129.084c59.379-43.889,121.339-82.614,185.881-118.757c5.163-2.582,7.745-7.745,12.908-10.327
	c118.757-67.124,232.351-121.339,356.271-170.391c74.869-28.398,149.737-51.634,227.188-74.869
	c240.096-67.124,480.192-90.359,725.451-74.869c325.291,23.235,632.511,111.012,916.495,296.893
	c5.163,2.582,7.745,2.582,12.908,5.163c157.482,100.685,278.821,214.279,425.977,330.455
	c201.371,157.482,418.232,255.586,668.654,302.056c25.817,5.163,49.052,7.745,74.869,12.908
	c547.316,74.869,1081.723-134.247,1489.628-480.192C5109.139,530.313,5109.139,579.365,5109.139,628.417z"/>
</svg>
