<?xml version="1.0" encoding="utf-8"?>
<svg version="1.1" id="Layer_1" xmlns="http://www.w3.org/2000/svg" xmlns:xlink="http://www.w3.org/1999/xlink" x="0px" y="0px"
	 viewBox="0 0 5130.352 2351.454" enable-background="new 0 0 5130.352 2351.454" xml:space="preserve">
<g>
	<path id="path9280_7_" d="M5010.46,1905.065c-21.145,42.439-42.955,40.344-48.761-4.747c-2.267-17.784-1.661-39.45,1.08-61.986
		c23.893-4.224,47.799-8.228,71.717-11.994C5029.445,1855.247,5021.061,1883.731,5010.46,1905.065z M4989.505,1740.985
		c21.158-42.954,42.992-40.939,48.791,4.472c1.165,9.074,1.393,19.422,1.178,30.151c-22.199,3.567-44.388,7.359-66.563,11.362
		C4977.497,1770.033,4982.996,1754.188,4989.505,1740.985z M5078.71,1769.609c-9.925,1.491-19.848,3.029-29.768,4.612
		c0-1.966,0.068-3.984,0.056-5.877c0.072-0.003,0.144-0.005,0.215-0.008c-2.792-356.735-5.584-713.347-8.376-1069.829
		c-3.616,0.819-7.23,1.656-10.843,2.51c2.563,326.604,5.126,653.327,7.689,980.165c-13.364-41.026-35.909-42.776-56.479,2.028
		c-12.431,27.087-21.692,66.005-26.81,107.109c-9.893,1.836-19.782,3.714-29.669,5.631c0.126,16.441,0.253,32.883,0.38,49.326
		c8.479-1.569,16.96-3.112,25.442-4.628c-0.993,26.723-0.266,52.841,2.915,75.976c10.213,73.582,39.026,89.169,64.513,34.402
		c14.384-31.199,24.425-78.097,28.688-126.591c10.814-1.671,21.631-3.293,32.45-4.865
		C5078.979,1802.917,5078.845,1786.263,5078.71,1769.609"/>
	<path id="path9280_6_" d="M1733.575,1911.419c-21.243,9.269-42.988-0.612-48.761-23.39c-2.272-9.046-1.668-18.542,1.08-27.398
		c23.885,9.473,47.787,18.778,71.717,27.871C1752.539,1898.409,1744.154,1906.78,1733.575,1911.419z M1712.62,1830.543
		c21.059-8.084,42.967,4.046,48.791,25.872c1.164,4.341,1.393,8.764,1.178,13.139c-22.21-8.815-44.395-17.825-66.563-26.994
		C1700.598,1837.3,1706.101,1833.041,1712.62,1830.543z M1801.826,1884.931c-9.928-3.819-19.85-7.681-29.768-11.583
		c0-0.813,0.068-1.615,0.056-2.404c0.072,0.032,0.143,0.064,0.215,0.096c-2.799-149.109-5.591-298.968-8.376-449.578
		c-3.616-2.9-7.231-5.811-10.843-8.732c2.557,139.482,5.12,278.326,7.689,416.533c-13.482-24.078-36.019-37.182-56.48-28.451
		c-12.473,5.329-21.718,18.033-26.81,34.03c-9.893-4.133-19.783-8.296-29.67-12.484c0.127,7.748,0.254,15.494,0.38,23.239
		c8.479,3.428,16.959,6.839,25.442,10.229c-0.994,11.702-0.275,23.94,2.915,35.895c10.117,37.593,38.848,55.621,64.513,42.457
		c14.33-7.472,24.407-22.788,28.688-41.074c10.811,4.071,21.628,8.097,32.45,12.074
		C1802.094,1898.431,1801.96,1891.682,1801.826,1884.931"/>
	<path id="path9392_7_" d="M3485.9,1668.148c3.472-40.066-14.024-65.219-39.142-55.893c-25.103,9.366-48.266,47.138-51.788,84.176
		c-3.465,36.844,14.007,61.172,39.142,54.853C3459.198,1744.936,3482.386,1707.92,3485.9,1668.148z M3394.514,1723.565
		c0,0-10.047-90.857,63.388-142.438c81.39-56.871,205.745,247.406-101.315,554.734c0,0,169.41-123.825,219.401-424.411
		c60.829-368.465-216.836-178.197-181.477,12.115"/>
	<path id="path9392_6_" d="M1356.018,1454.965c3.45-45.477-14.148-105.73-39.142-135.506
		c-25.227-29.995-48.284-15.579-51.788,33.097c-3.482,48.967,13.945,110.871,39.142,137.656
		C1329.255,1516.75,1352.482,1500.587,1356.018,1454.965z M1264.632,1391.861c0,0-10.821-154.524,63.388-95.095
		c80.252,64.67,142.472,444.985-101.315,681.443c0,0,164.988-58.811,219.401-351.033c55.257-299.266-218.986-591.726-181.477-235.32
		"/>
	<path d="M3853.61,1308.248c-3.617-20.863-8.553-39.002-14.727-54.328c-6.376-15.812-13.537-29.34-20.347-43.712
		c-12.378-26.131-23.25-55.748-32.673-88.417c-4.291-15.001-8.281-30.563-12.009-46.561c-0.127-0.54-0.282-1.024-0.396-1.582
		c-0.53-2.612-1.1-5.146-1.708-7.6c-0.209-0.845-0.414-1.703-0.639-2.51c-0.227-0.811-0.487-1.578-0.685-2.449
		c-0.269-0.962-0.574-1.877-0.789-2.943c-0.019-0.096-0.14-0.962-0.168-0.944c-0.089,0.257-0.067,0.625-0.071,1.343
		c-0.004,0.915-0.009,1.829-0.013,2.744c-0.062,13.994-0.021,27.887-0.021,41.819c0,116.671,0,233.341,0,350.012
		c-0.013,61.472,0.029,122.917-0.021,184.414c-4.814-3.281-11.164-1.911-16.539-0.012c-5.961,2.11-11.997,6.307-17.864,12.412
		c-18.802,19.596-36.18,59.985-45.041,101.734c-1.804,8.51-3.114,17.231-4.17,25.965c-2.087,17.265-2.687,34.731,2.919,45.613
		c4.84,9.366,12.107,11.538,18.934,11.438c12.581-0.199,26.135-9.6,37.705-26.872c16.383-24.494,28.012-64.9,32.263-107.46
		c2.538-25.487,2.019-50.187,2.013-74.869c-0.006-25.86,0.003-51.73,0.002-77.593c-0.002-104.921,0-209.845-0.002-314.759
		c0.003,0.529,2.622,0.563,2.931,0.626c16.497,3.409,32.808,11.677,45.129,34.044c4.454,8.095,8.357,17.912,11.49,29.486
		c3.24,11.985,5.622,25.784,7.065,40.895c3.501,36.75,2.246,78.89-1.59,120.593c-3.821,41.483-10.131,82.515-16.853,122.779
		c17.396-57.146,29.291-128.054,30.584-193.321c0.434-22.151,0.252-45.082-2.301-64.234
		C3855.295,1318.587,3854.492,1313.338,3853.61,1308.248z"/>
	<path fill="#020202" d="M4280.85,930.025c-9.376,267.318-18.792,532.238-28.254,794.737
		c-12.262-44.038-41.718-25.132-66.762,40.943c-24.809,65.577-35.535,153.278-23.611,198.173
		c12.139,45.461,42.343,31.938,67.191-32.429c13.819-35.866,22.145-80.754,26.825-120.255c4.767-40.294,7.669-87.292,7.669-87.292
		c7.605-210.395,15.181-422.334,22.731-635.807c51.443-31.203,103.112-60.787,155.135-88.233
		c-7.512,225.692-15.043,450.067-22.599,673.11c-12.232-48.776-41.783-30.49-66.84,39.778
		c-24.852,69.822-35.548,164.862-23.612,214.278c12.126,49.935,42.298,36.328,67.192-32.322
		c13.805-38.142,22.143-86.188,26.824-128.56c4.765-43.186,7.669-93.675,7.669-93.675c7.6-225.342,15.176-452.017,22.731-680.007
		c51.03-28.284,102.356-54.554,154.035-78.296c-7.275,238.742-14.565,476.454-21.873,713.12
		c-12.583-49.641-41.624-31.745-66.235,40.387c-24.897,73.142-35.561,174.506-23.611,228.053
		c12.113,53.994,42.25,40.629,67.192-31.426c13.79-39.915,22.141-90.531,26.824-135.272c4.763-45.561,7.889-100.254,7.889-100.254
		c8.726-300.22,17.427-601.986,26.109-905.266C4507.277,779.858,4393.503,850.806,4280.85,930.025z"/>
	<path fill="#020202" d="M405.254,151.573c-9.441,303.53-18.857,608.499-28.254,914.866c-12.361-61.641-42.13-59.874-66.763,5.928
		c-25.226,67.556-35.634,174.864-23.611,238.508c12.04,63.419,41.915,59.263,67.192-8.034
		c13.689-36.526,22.129-85.925,26.824-130.52c4.75-45.178,7.669-99.24,7.669-99.24c7.563-243.82,15.139-486.726,22.731-728.697
		c52.254,26.433,103.957,56.696,155.135,90.036c-7.553,228.166-15.085,457.514-22.599,688.028
		c-12.329-60.822-42.207-62.923-66.84-2.463c-25.282,62.211-35.647,164.669-23.612,227.245c12.027,62.227,41.859,60.88,67.193-1.336
		c13.673-33.652,22.127-80.06,26.824-122.204c4.748-42.657,7.669-93.969,7.669-93.969c7.558-230.981,15.134-460.765,22.731-689.334
		c51.865,32.568,103.156,68.332,154.035,106.598c-7.314,213.91-14.604,429.194-21.873,645.837
		c-12.682-56.024-42.042-60.453-66.235-6.918c-25.337,56.246-35.66,152.548-23.611,213.112
		c12.014,60.102,41.805,61.348,67.193,4.834c13.657-30.47,22.124-73.359,26.824-112.557c4.746-39.638,7.889-88.635,7.889-88.635
		c8.67-272.49,17.372-542.906,26.109-811.223C636.211,296.266,522.487,213.442,405.254,151.573z M566.642,392.468
		c-51.46-33.392-103.475-63.566-156.052-89.737c0.42-8.765,0.841-17.527,1.261-26.288c52.589,26.589,104.602,57.221,156.052,91.102
		C567.483,375.85,567.063,384.158,566.642,392.468z M576.727,399.059c0.42-8.278,0.841-16.553,1.261-24.826
		c52.574,35.109,104.526,73.527,156.052,114.519c-0.421,7.728-0.841,15.458-1.261,23.192
		C681.246,471.521,629.292,433.65,576.727,399.059z"/>
	<path d="M2767.118,1986.623c-9.379,86.392-18.802,172.087-28.254,257.131c-12.308-15.188-41.87-11.065-66.764,8.663
		c-24.981,19.839-35.616,48.293-23.611,64.193c12.061,15.892,42.195,13.212,67.192-6.615c13.779-10.951,22.142-25.176,26.824-37.811
		c4.765-12.876,7.669-28.039,7.669-28.039c7.6-68.12,15.179-136.675,22.731-205.69c51.835-7.029,103.6-16.708,155.135-28.772
		c-7.495,75.05-15.029,149.339-22.599,222.887c-12.234-16.167-41.808-10.372-66.84,11.763
		c-24.896,22.057-35.583,52.334-23.612,68.929c12.094,16.677,42.276,13.553,67.192-8.268c13.803-12.113,22.147-27.792,26.824-41.68
		c4.77-14.185,7.669-30.838,7.669-30.838c7.615-74.546,15.193-149.863,22.731-225.972c0.021-0.145,0.043-0.289,0.064-0.434
		c1.964-19.837,3.926-39.728,5.885-59.675C2886.271,1963.587,2826.753,1977.16,2767.118,1986.623z M2928.506,1996.177
		c-51.82,12.889-103.897,23.253-156.052,30.823c0.42-2.557,0.841-5.114,1.261-7.673c52.163-7.784,104.241-18.423,156.052-31.636
		C2929.347,1990.522,2928.927,1993.35,2928.506,1996.177z"/>
	<path id="path9104_5_" d="M2212.714,1968.856c-18.372-6.613-36.702-13.63-54.981-21.042c3.791-23.41,7.592-46.694,11.402-69.855
		c18.259,8.199,36.582,15.949,54.955,23.239C2220.289,1923.644,2216.497,1946.196,2212.714,1968.856z M2308.11,1931.181
		c2.531-14.347,5.065-28.661,7.602-42.943c-19.428-6.468-38.804-13.5-58.109-21.081c5.086-29.333,10.187-58.504,15.3-87.519
		c-8.508-4.543-16.997-9.22-25.465-14.028c-5.264,30.159-10.514,60.499-15.748,91.027c-18.364-7.706-36.669-15.912-54.904-24.601
		c5.043-30.353,10.102-60.501,15.178-90.447c-8.515-5.42-17.009-10.973-25.48-16.657c-5.227,31.225-10.437,62.678-15.627,94.365
		c-15.134-7.592-30.222-15.515-45.26-23.758c-2.538,15.95-5.072,31.963-7.601,48.039c15.051,7.796,30.147,15.292,45.285,22.479
		c-3.811,23.531-7.612,47.195-11.402,70.992c-15.138-6.457-30.244-13.186-45.312-20.179c-2.529,16.442-5.053,32.951-7.572,49.526
		c15.063,6.473,30.16,12.703,45.284,18.686c-4.951,31.416-9.885,63.07-14.801,94.965c8.474,3.758,16.958,7.437,25.452,11.037
		c5.056-32.251,10.132-64.261,15.224-96.033c18.279,6.853,36.601,13.347,54.959,19.478c-4.907,29.608-9.801,59.408-14.677,89.404
		c8.476,3.281,16.962,6.488,25.456,9.62c5.021-30.42,10.059-60.647,15.111-90.684c19.326,6.094,38.697,11.788,58.097,17.081
		c2.531-14.622,5.065-29.206,7.602-43.753c-19.407-5.646-38.777-11.738-58.097-18.273c3.791-22.343,7.59-44.586,11.397-66.731
		C2269.313,1918.366,2288.689,1925.032,2308.11,1931.181"/>
	<path id="path9248_7_" d="M4899.378,149.742c-62.814,66.057-124.471,136.595-185.738,210.289c-3.12,3.765-6.237,7.537-9.354,11.316
		c2.843,54.936,5.683,109.959,8.521,165.068c10.727,207.778,21.42,416.737,32.087,626.842c-13.021-24.095-32.7-9.16-49.047,42.203
		c-20.124,63.257-27.3,156.63-15.975,209.614c11.437,53.099,37.035,46.385,57.235-16.19c15.895-49.285,23.509-118.172,20.62-171.964
		c0.058-0.049,0.116-0.098,0.173-0.147c-11.88-235.127-23.79-468.868-35.741-701.172c58.28-67.336,116.874-132.114,176.406-193.25
		c8.26,167.506,16.507,335.465,24.745,503.859c-13.001-26.013-32.708-12.188-49.019,39.713
		c-20.18,64.109-27.324,160.96-15.996,216.506c11.447,55.799,36.997,49.876,57.222-13.482
		c15.901-49.946,23.515-120.454,20.641-176.078c0.063-0.065,0.125-0.131,0.188-0.196c-9.474-193.856-18.959-387.164-28.461-579.894
		C4905.051,265.045,4902.215,207.366,4899.378,149.742"/>
	<path id="path9248_6_" d="M1064.038,1113.732c-61.559-13.928-123.704-22.816-185.738-25.799c-3.118-0.139-6.235-0.264-9.353-0.373
		c2.837,49.449,5.677,98.764,8.521,147.946c10.641,183.58,21.334,365.248,32.088,544.984c-13.128-26.937-32.863-25.545-49.047,9.095
		c-20.375,43.639-27.398,121.329-15.974,172.157c11.339,50.1,36.781,53.701,57.235,9.32c15.74-34.188,23.503-86.922,20.62-132.001
		c0.058-0.012,0.116-0.024,0.173-0.036c-11.987-198.832-23.896-400.082-35.741-603.722c58.794-1.098,117.8,2.841,176.406,11.279
		c8.209,129.204,16.456,257.162,24.745,383.87c-13.104-26.712-32.869-29.093-49.019-0.681
		c-20.43,35.865-27.422,105.464-15.996,153.456c11.35,47.424,36.748,54.577,57.221,17.933
		c15.75-28.281,23.509-74.522,20.641-115.616c0.063-0.012,0.125-0.023,0.188-0.035c-9.542-144.203-19.026-290.064-28.461-437.577
		C1069.706,1203.347,1066.87,1158.613,1064.038,1113.732"/>
	<path id="path10417_5_" d="M1927.661,2166.314c0,0-85.96-126.458-14.348-203.9c44.115-47.517,60.624-81.258,66.089-99.925
		c0-0.973,0-1.946,0-2.919c3.625,1.586,7.251,3.16,10.878,4.723c0,122.2,0,244.401,0,366.601c-0.067-0.008-0.133-0.015-0.2-0.023
		c0.187,22.547-12.283,46.053-32.618,58.673c-26.214,16.388-54.947,7.696-64.514-21.247c-9.668-29.329,3.525-66.379,29.696-80.844
		c20.92-11.58,43.55-5.553,56.758,11.432c0-75.742,0-151.484,0-227.227c-24.085,23.506-67.374,20.043-77.654,61.406
		C1887.046,2092.804,1927.661,2166.314,1927.661,2166.314"/>
	<path d="M3184.768,1946.667c-4.906,1.879-9.664,4.557-14.224,7.85c-3.601-23.609-7.054-46.368-10.111-67.246
		c24.447-44.349,45.082-99.563,44.633-182.836c0.061-59.998-13.375-98.953-27.804-90.189
		c-18.056,11.264-39.301,84.991-38.614,138.562c0.166,16.396,3.841,47.992,9.255,87.682
		c-33.436,63.856-73.888,126.422-73.928,189.417c-0.518,57.892,26.294,127.42,89.51,114.53c9.739-1.952,18.474-5.355,26.242-9.956
		c5.813,45.379,9.643,81.63,9.627,98.648c0.145,68.764-62.572,77.211-62.709,37.724c0,0-0.036-0.203,0.215-1.259
		c0.782,0.041,1.575,0.032,2.377-0.035c13.018-1.095,23.574-16.661,23.584-34.731c-0.01-18.074-10.562-31.217-23.584-29.434
		c-7.335,1.017-13.834,6.427-18.984,13.1c-5.22,6.774-9.554,17.917-9.709,38.497c0.097,52.103,96.505,83.53,96.602-28.152
		c0.147-15.063-4.16-52.196-10.573-98.921C3266.817,2077.777,3248.499,1924.044,3184.768,1946.667z M3196.23,1693.943
		c0.645,42.013-19.057,89.559-43.524,137.286c-2.335-18.765-3.792-33.693-3.958-43.096
		C3149.885,1685.987,3196.183,1628.218,3196.23,1693.943z M3091.442,2050.676c0.034-65.03,34.171-102.869,64.27-155.036
		c2.942,20.269,6.083,41.579,9.275,63.283c-41.301,35.772-61.587,119.383-2.595,142.932c-35.666-35.169-18.215-90.226,7.756-107.756
		c6.606,45.207,13.086,90.585,18.255,130.143c-7.036,5.067-15.311,8.831-24.918,10.855
		C3139.48,2139.898,3091.49,2128.333,3091.442,2050.676z M3195.026,2118.774c-5.491-39.287-12.25-84.109-18.933-127.914
		c1.067-0.445,2.138-0.826,3.218-1.125C3223.156,1975.375,3240.296,2075.741,3195.026,2118.774z"/>
	<path d="M174.032,1121.109c-4.806-0.459-9.471,1.53-13.927,5.566c-3.538-70.018-6.916-137.913-9.9-200.423
		c23.461-90.929,44.14-208.896,43.7-433.707c0.059-161.297-13.156-294.247-27.223-299.493
		c-17.762-5.793-38.48,163.788-37.807,318.841c0.162,47.325,3.734,143.623,9.062,264.906
		c-33.663,137.693-72.345,280.176-72.384,471.893c-0.507,175.782,25.681,400.055,87.64,402.444
		c9.534,0.464,18.065-3.55,25.693-11.194c5.66,126.973,9.442,227.049,9.426,273.096c0.142,186.128-61.265,198.892-61.399,85.321
		c0,0-0.035-0.593,0.211-3.562c0.766,0.329,1.542,0.514,2.327,0.539c12.748,0.362,23.081-40.367,23.092-91.053
		c-0.01-50.698-10.347-92.379-23.092-93.024c-7.184-0.327-13.56,12.529-18.587,29.879c-5.126,17.721-9.355,48.919-9.506,109.496
		c0.095,153.498,94.489,253.659,94.584-46.227c0.144-40.383-4.112-142.334-10.352-272.483
		C252.005,1539.353,236.254,1131.96,174.032,1121.109z M185.255,448.172c0.632,115.191-19.144,211.723-42.615,309.261
		c-2.291-56.672-3.713-101.298-3.875-128.288C139.877,340.746,185.209,269.75,185.255,448.172z M82.657,1326.592
		c0.033-194.901,32.731-271.426,62.928-382.865c2.872,60.848,5.947,124.539,9.081,189.036
		c-41.316,55.409-60.527,288.941-2.541,398.209c-35.481-126.547-18.081-271.862,7.594-294.501
		c6.428,131.802,12.787,262.389,17.873,374.611c-6.912,9.215-14.992,14.292-24.397,13.867
		C129.692,1623.172,82.704,1559.334,82.657,1326.592z M184.077,1600.625c-5.405-111.104-12.036-239.732-18.537-367.076
		c1.045-0.137,2.094-0.089,3.15,0.194C211.505,1239.204,227.198,1516.78,184.077,1600.625z"/>
	<path d="M4061.957,1708.819c-49.621-119.406-64.599-198.351-68.105-231.664c-0.007-5.337-0.014-10.673-0.021-16.01
		c-0.375,0.232-0.751,0.464-1.126,0.696c-0.076-1.448-0.087-2.419-0.087-2.419c0,0.823,0,1.647,0,2.47
		c-3.211,1.951-6.422,3.902-9.632,5.856c0.495,223.893,0.99,447.932,1.484,672.117c-13.038-27.295-35.496-26.843-56.547,4.063
		c-25.524,37.579-38.834,105.363-29.225,153.444c9.777,48.768,38.77,61.546,64.335,26.254
		c20.449-28.214,32.509-78.774,32.216-124.18c0.076-0.008,0.152-0.017,0.229-0.025c-0.37-164.476-0.74-328.873-1.11-493.191
		c23.838,56.502,68.72,58.565,79.337,144.297c14.796,120.47-25.375,256.48-25.375,256.48S4133.917,1882.356,4061.957,1708.819z
		 M4064.578,1779.306c-11.207-42.659-27.318-70.464-47.963-84.569C4033.363,1679.104,4068.33,1726.576,4064.578,1779.306z"/>
	<path d="M2586.329,1907.86c-51.967-50.309-64.611-83.224-68.105-96.392c-0.007-1.967-0.014-3.934-0.021-5.901
		c-0.375-0.018-0.751-0.036-1.126-0.054c-0.076-0.555-0.087-0.916-0.087-0.916c0,0.303,0,0.607,0,0.911
		c-3.211-0.169-6.422-0.356-9.632-0.563c0.495,83.237,0.99,166.463,1.484,249.679c-13.166-11.452-35.652-14.039-56.547-4.946
		c-25.77,11.256-38.936,36.711-29.225,57.117c9.677,20.272,38.543,27.083,64.335,14.988c20.314-9.521,32.51-27.566,32.217-44.283
		c0.076,0.002,0.152,0.004,0.228,0.007c-0.37-60.526-0.74-121.056-1.11-181.591c23.292,25.112,68.644,31.784,79.336,62.837
		c14.656,42.904-25.374,88.62-25.374,88.62S2654.475,1973.932,2586.329,1907.86z M2588.95,1932.945
		c-11.31-16.307-27.541-28.192-47.962-36.928C2557.685,1893.384,2592.696,1914.831,2588.95,1932.945z"/>
	<g>
		<path fill="none" stroke="#000000" stroke-width="10.3518" stroke-miterlimit="10" d="M5.176,2345.795
			c1706.706,0.643,3413.294,0.643,5120,0c0-780.135,0-1560.269,0-2340.404c-446.197,18.229-862.207,451.712-1280,899.066
			c-415.69,445.089-837.954,866.303-1280,866.67c-442.046-0.367-864.309-421.582-1280-866.67
			C867.383,457.104,451.373,23.62,5.176,5.392C5.176,60.559,5.176,2345.795,5.176,2345.795z"/>
		<path fill="none" stroke="#000000" stroke-width="10.3518" stroke-miterlimit="10" d="M5.176,590.493
			c920.406,28.858,1646.87,1326.999,2560,1328.141c913.131-1.142,1639.594-1299.283,2560-1328.141"/>
		<path fill="none" stroke="#000000" stroke-width="10.3518" stroke-miterlimit="10" d="M5.176,1175.594
			c884.135,18.587,1679.28,889.807,2560,890.546c880.72-0.738,1675.865-871.958,2560-890.546"/>
		<path fill="none" stroke="#000000" stroke-width="10.3518" stroke-miterlimit="10" d="M5.176,1760.695
			c861.41,9.211,1699.498,452.583,2560,452.95c860.502-0.367,1698.59-443.739,2560-452.95"/>
	</g>
</g>
</svg>
